<?xml version="1.0" encoding="UTF-8" standalone="no"?>
<svg
   xmlns:dc="http://purl.org/dc/elements/1.1/"
   xmlns:cc="http://creativecommons.org/ns#"
   xmlns:rdf="http://www.w3.org/1999/02/22-rdf-syntax-ns#"
   xmlns:svg="http://www.w3.org/2000/svg"
   xmlns="http://www.w3.org/2000/svg"
   xmlns:sodipodi="http://sodipodi.sourceforge.net/DTD/sodipodi-0.dtd"
   xmlns:inkscape="http://www.inkscape.org/namespaces/inkscape"
   width="541pt"
   height="106pt"
   viewBox="0 0 541 106"
   version="1.1"
   id="svg4201"
   sodipodi:docname="logo_christmas.svg"
   inkscape:version="0.92.2 2405546, 2018-03-11">
  <metadata
     id="metadata4207">
    <rdf:RDF>
      <cc:Work
         rdf:about="">
        <dc:format>image/svg+xml</dc:format>
        <dc:type
           rdf:resource="http://purl.org/dc/dcmitype/StillImage" />
        <dc:title></dc:title>
      </cc:Work>
    </rdf:RDF>
  </metadata>
  <defs
     id="defs4205" />
  <sodipodi:namedview
     pagecolor="#ffffff"
     bordercolor="#666666"
     borderopacity="1"
     objecttolerance="10"
     gridtolerance="10"
     guidetolerance="10"
     inkscape:pageopacity="0"
     inkscape:pageshadow="2"
     inkscape:window-width="1920"
     inkscape:window-height="1056"
     id="namedview4203"
     showgrid="false"
     inkscape:pagecheckerboard="true"
     inkscape:zoom="0.96903882"
     inkscape:cx="418.97187"
     inkscape:cy="-21.811221"
     inkscape:window-x="0"
     inkscape:window-y="1074"
     inkscape:window-maximized="1"
     inkscape:current-layer="svg4201" />
  <path
     fill="#020202"
     d=" M 72.92 4.86 C 79.69 2.49 86.81 -0.32 94.10 1.15 C 93.17 2.36 92.86 4.65 90.97 4.61 C 80.79 5.49 71.16 9.40 62.20 14.11 C 57.77 16.21 54.03 20.72 48.61 19.17 C 55.56 12.72 64.20 8.41 72.92 4.86 Z"
     id="path4155"
     style="fill:#ffffff;fill-opacity:1;stroke:none" />
  <path
     fill="#020202"
     d=" M 101.69 4.44 C 101.67 2.92 101.84 0.53 103.94 0.71 C 112.11 0.89 119.45 7.31 121.57 15.09 C 123.41 21.86 123.24 29.32 120.60 35.86 C 120.55 37.52 116.88 38.72 117.96 36.16 C 119.68 29.47 120.88 22.04 117.56 15.63 C 114.78 9.32 108.49 5.14 101.69 4.44 Z"
     id="path4157"
     style="fill:#ffffff;fill-opacity:1;stroke:none" />
  <path
     fill="#020202"
     d=" M 70.97 10.67 C 71.73 12.84 76.83 13.16 74.12 15.71 C 74.33 16.07 74.74 16.80 74.95 17.16 C 74.18 17.02 72.65 16.74 71.88 16.60 C 71.15 17.21 70.42 17.82 69.69 18.43 C 69.96 16.48 69.12 15.00 67.55 13.94 C 68.31 13.86 69.83 13.72 70.59 13.64 C 70.69 12.90 70.88 11.41 70.97 10.67 Z"
     id="path4159"
     style="fill:#ffffff;fill-opacity:1;stroke:none" />
  <path
     fill="#020202"
     d=" M 61.25 29.05 C 65.17 26.64 67.47 22.51 69.85 18.73 C 71.09 22.12 72.05 25.77 74.50 28.54 C 76.50 31.06 79.17 32.88 81.64 34.88 C 80.09 36.05 78.46 37.11 76.78 38.11 C 78.76 40.35 81.50 41.61 83.87 43.35 C 83.87 43.67 83.88 44.29 83.88 44.61 C 78.09 47.17 71.61 46.45 65.47 47.13 C 69.53 50.17 74.82 49.80 79.61 49.69 C 81.92 54.54 86.67 57.33 91.37 59.47 C 88.34 65.26 81.03 65.28 75.44 66.47 C 77.65 67.53 80.07 67.89 82.41 68.49 C 84.51 71.03 88.39 71.87 89.52 75.12 C 81.57 76.02 73.58 74.71 66.11 71.99 C 57.53 76.01 47.36 77.10 38.35 73.81 C 41.22 70.94 45.01 68.90 46.60 64.92 C 51.07 64.56 56.03 64.04 59.41 60.73 C 54.13 61.15 48.15 63.00 43.41 59.75 C 39.28 59.76 35.16 59.78 31.03 59.73 C 31.04 66.54 31.11 73.34 31.07 80.14 C 21.05 70.18 10.96 60.26 1.14 50.10 C 10.94 39.90 20.97 29.93 30.94 19.89 C 31.10 26.76 30.95 33.63 31.02 40.49 C 37.28 40.52 43.54 40.45 49.79 40.52 C 48.08 41.75 46.37 42.97 44.64 44.17 C 47.03 46.75 49.43 49.33 51.75 51.98 C 49.11 54.38 46.37 56.68 43.98 59.34 C 47.22 57.87 49.51 55.12 52.02 52.73 C 54.21 52.44 56.44 52.41 58.63 52.06 C 54.80 50.18 50.37 49.09 47.57 45.63 C 52.53 42.73 57.61 39.70 60.93 34.86 C 64.57 35.07 68.39 34.56 71.10 31.88 C 67.05 31.89 62.98 32.18 58.96 31.60 C 58.65 30.11 60.38 29.82 61.25 29.05 Z"
     id="path4161"
     style="fill:#ffffff;fill-opacity:1;stroke:none" />
  <path
     fill="#020202"
     d=" M 99.29 19.94 C 109.31 29.91 119.08 40.13 129.18 50.02 C 119.40 60.23 109.23 70.08 99.25 80.10 C 99.26 73.32 99.22 66.54 99.26 59.75 C 97.30 59.76 95.33 59.76 93.37 59.75 C 89.46 56.46 85.70 52.98 81.80 49.67 C 83.80 48.23 85.80 46.79 87.80 45.37 C 85.79 43.70 83.72 42.10 81.68 40.48 C 87.54 40.48 93.41 40.52 99.27 40.46 C 99.24 33.62 99.19 26.78 99.29 19.94 Z"
     id="path4163"
     style="fill:#ffffff;fill-opacity:1;stroke:none" />
  <path
     fill="#020202"
     d=" M 167.24 20.04 C 170.09 19.99 172.94 19.98 175.79 19.97 C 175.70 39.90 175.77 59.83 175.75 79.76 C 172.92 79.76 170.08 79.76 167.25 79.77 C 167.24 59.86 167.26 39.95 167.24 20.04 Z"
     id="path4165"
     style="fill:#ffffff;fill-opacity:1;stroke:none" />
  <path
     style="fill:#ffffff;stroke-width:1.33333325;fill-opacity:1;stroke:none"
     d="M 502.91992 26.320312 C 491.54659 53.040312 479.93279 79.667319 468.43945 106.33398 C 471.97279 106.36065 475.51974 106.3463 479.06641 106.29297 C 482.63974 97.826302 486.25258 89.387604 489.89258 80.960938 C 497.94591 81.040937 506.01307 81.053932 514.06641 80.947266 C 515.71974 89.413932 517.37352 97.866042 518.85352 106.35938 C 522.38685 106.33271 525.90646 106.33237 529.45312 106.3457 C 524.10646 79.679037 518.82654 52.986978 513.5332 26.320312 C 509.98654 26.333646 506.45326 26.320312 502.91992 26.320312 z M 506.42578 41.013672 C 508.70578 51.627005 510.54576 62.332657 512.73242 72.972656 C 506.34576 72.98599 499.98661 73.039661 493.61328 72.986328 C 497.93328 62.346328 502.07911 51.640338 506.42578 41.013672 z "
     transform="scale(0.75000002)"
     id="path4167" />
  <path
     fill="#020202"
     d=" M 519.46 23.26 C 525.31 18.44 533.50 18.63 540.33 21.01 C 540.14 23.59 539.93 26.17 539.68 28.75 C 535.68 27.21 531.14 25.44 527.00 27.51 C 521.95 29.72 520.20 35.46 519.45 40.47 C 522.15 40.50 524.86 40.50 527.57 40.49 C 527.28 42.75 527.02 45.01 526.76 47.27 C 524.04 47.25 521.32 47.26 518.61 47.26 C 516.53 63.44 514.74 79.68 512.50 95.84 C 510.33 96.83 507.54 96.00 505.17 96.23 C 507.05 79.90 509.09 63.59 511.05 47.27 C 509.07 47.25 507.09 47.24 505.13 47.23 C 505.36 44.98 505.61 42.73 505.87 40.49 C 507.97 40.50 510.07 40.49 512.18 40.49 C 512.84 34.27 514.05 27.22 519.46 23.26 Z"
     id="path4169"
     style="fill:#ffffff;fill-opacity:1;stroke:none" />
  <path
     fill="#020202"
     d=" M 462.39 24.48 C 465.46 22.14 470.14 25.32 469.12 29.01 C 468.74 31.76 465.31 33.08 463.02 31.80 C 460.13 30.68 459.94 26.15 462.39 24.48 Z"
     id="path4171"
     style="fill:#ffffff;fill-opacity:1;stroke:none" />
  <path
     fill="#020202"
     d=" M 439.80 32.50 C 442.24 32.49 444.69 32.49 447.14 32.45 C 446.77 35.13 446.36 37.81 445.96 40.48 C 448.41 40.50 450.87 40.49 453.33 40.49 C 453.02 42.43 452.71 44.36 452.39 46.29 C 449.81 46.25 447.24 46.24 444.66 46.24 C 443.53 53.52 442.15 60.76 441.02 68.04 C 440.84 69.87 440.18 72.06 441.72 73.51 C 445.23 75.02 448.88 73.29 452.07 71.82 C 451.72 74.28 451.44 76.75 451.18 79.22 C 446.40 81.16 440.53 81.98 436.03 78.94 C 433.64 77.52 432.49 74.71 432.52 72.02 C 433.85 63.43 435.31 54.85 436.78 46.28 C 434.55 46.25 432.32 46.24 430.10 46.23 C 430.40 44.33 430.60 42.41 431.09 40.54 C 433.50 40.41 435.92 40.51 438.34 40.49 C 438.81 37.82 439.30 35.16 439.80 32.50 Z"
     id="path4175"
     style="fill:#ffffff;fill-opacity:1;stroke:none" />
  <path
     fill="#020202"
     d=" M 219.87 47.54 C 224.68 42.16 229.87 37.12 235.20 32.25 C 235.25 34.99 235.26 37.73 235.27 40.47 C 239.34 40.50 243.42 40.48 247.50 40.49 C 247.51 42.91 247.50 45.34 247.51 47.76 C 243.42 47.76 239.34 47.75 235.25 47.76 C 235.28 54.20 235.21 60.64 235.27 67.08 C 235.33 69.21 235.75 71.96 238.06 72.79 C 242.04 74.41 246.27 72.32 249.77 70.43 C 249.76 72.99 249.77 75.55 249.69 78.11 C 244.28 80.56 237.53 81.93 232.17 78.65 C 228.75 76.75 227.40 72.70 227.31 68.99 C 227.15 61.93 227.29 54.86 227.25 47.80 C 224.78 47.78 222.32 47.74 219.87 47.54 Z"
     id="path4177"
     style="fill:#ffffff;fill-opacity:1;stroke:none" />
  <path
     fill="#020202"
     d=" M 401.80 48.77 C 408.16 40.41 419.74 37.87 429.66 39.83 C 429.40 42.08 429.13 44.34 428.90 46.60 C 423.07 45.79 416.60 46.00 411.78 49.81 C 405.23 54.52 402.82 65.18 408.53 71.43 C 413.87 76.07 421.79 74.07 426.91 70.11 C 426.51 72.76 426.14 75.41 425.78 78.07 C 418.11 82.50 406.89 82.20 401.05 74.93 C 395.52 67.37 396.29 56.14 401.80 48.77 Z"
     id="path4179"
     style="fill:#ffffff;fill-opacity:1;stroke:none" />
  <path
     style="fill:#ffffff;stroke-width:1.33333325;fill-opacity:1;stroke:none"
     d="m 650.18164,52.298828 c -4.56167,-0.178333 -9.2344,1.133568 -12.92773,3.740234 -9.70667,6.626667 -13.54714,19.20047 -12.48047,30.480469 0.54666,7.853333 4.92015,15.666489 12.16015,19.146489 8.85334,4.41333 19.86706,2.05468 27.40039,-3.94532 1,-3.25333 1.14508,-6.706403 1.70508,-10.066403 -6.8,4.266666 -14.98664,10.305863 -23.30664,6.505859 -6.97333,-3.44 -8.23849,-12.120417 -7.78515,-19.09375 11.12,-0.133333 22.23937,-0.0394 33.35937,-0.05273 0.86667,-7.506667 -0.30719,-15.961146 -5.86719,-21.507813 -3.24666,-3.36 -7.69614,-5.028698 -12.25781,-5.207031 z m -1.36914,8.296875 c 2.47167,-0.07 4.93396,0.76487 6.64062,2.658203 2.41334,2.16 2.57305,5.572526 3.37305,8.50586 -7.18666,0.426666 -14.39927,0.241093 -21.58594,0.121093 1.33334,-2.973333 2.63891,-6.068151 4.87891,-8.521484 1.74,-1.72 4.22169,-2.693672 6.69336,-2.763672 z"
     transform="scale(0.75000002)"
     id="path4181"
     inkscape:connector-curvature="0" />
  <path
     d="m 191.15,44.9 c 4.11,-3.45 9.52,-6 14.99,-4.57 5.76,1.11 9.65,6.89 9.73,12.56 0.31,9.03 0.04,18.08 0.13,27.11 -2.59,0 -5.17,0 -7.76,0 -0.02,-7.66 0.08,-15.31 -0.03,-22.96 -0.26,-3.16 -0.4,-7.01 -3.17,-9.1 -4.59,-2.93 -11.56,-0.77 -13.68,4.19 -0.26,9.28 -0.02,18.58 -0.1,27.87 -2.84,0 -5.68,0 -8.52,0 0.01,-13.18 -0.01,-26.36 0.02,-39.54 2.85,0.03 5.7,0.04 8.55,0.05 -0.05,1.46 -0.11,2.93 -0.16,4.39 z"
     id="path4183"
     inkscape:connector-curvature="0"
     style="fill:#ffffff;fill-opacity:1;stroke:none" />
  <path
     style="fill:#ffffff;stroke-width:1.33333325;fill-opacity:1;stroke:none"
     d="M 360.01953 53.050781 C 353.3322 53.229346 346.70187 55.978985 342.35938 61.146484 C 331.46604 74.386484 335.06583 97.453308 350.8125 105.30664 C 361.18583 109.51997 373.40003 107.4662 382.69336 101.51953 C 382.68003 97.986198 382.66635 94.466927 382.67969 90.933594 C 375.53302 96.066927 366.12013 99.21237 357.4668 96.345703 C 351.08013 93.97237 347.77318 87.359661 346.83984 80.986328 C 359.26651 81.026328 371.69247 80.97401 384.11914 81.027344 C 384.15914 72.347344 381.81302 62.94638 374.67969 57.373047 C 370.45635 54.328047 365.22079 52.911898 360.01953 53.050781 z M 361.07422 62.316406 C 363.38884 62.371094 365.68268 62.985885 367.66602 64.199219 C 371.30602 66.532552 372.50604 70.960599 373.35938 74.947266 C 364.50604 75.040599 355.64044 75.02599 346.78711 74.972656 C 348.12044 71.292656 349.41268 67.265833 352.66602 64.8125 C 355.08852 63.1025 358.09827 62.246094 361.07422 62.316406 z "
     transform="scale(0.75000002)"
     id="path4185" />
  <path
     fill="#020202"
     d=" M 303.49 49.12 C 306.17 45.47 308.88 40.75 313.80 40.09 C 317.86 39.28 321.33 41.93 324.36 44.22 C 323.06 46.61 321.70 48.98 320.37 51.35 C 317.70 49.37 314.61 47.04 311.06 47.85 C 306.38 49.24 303.41 54.19 303.50 58.94 C 303.50 65.96 303.52 72.98 303.51 80.00 C 300.92 80.00 298.33 80.00 295.75 80.00 C 295.74 66.82 295.75 53.65 295.74 40.47 C 298.33 40.49 300.92 40.49 303.52 40.49 C 303.51 43.37 303.51 46.24 303.49 49.12 Z"
     id="path4187"
     inkscape:label="path4187"
     style="fill:#ffffff;fill-opacity:1;stroke:none" />
  <path
     fill="#020202"
     d=" M 459.58 40.48 C 462.04 40.49 464.50 40.49 466.97 40.45 C 465.23 53.55 463.48 66.65 461.75 79.75 C 459.13 79.75 456.51 79.76 453.89 79.74 C 455.76 66.65 457.65 53.56 459.58 40.48 Z"
     id="path4189"
     style="fill:#ffffff;fill-opacity:1;stroke:none" />
  <path
     fill="#020202"
     d=" M 326.96 56.22 C 334.06 56.26 341.15 56.25 348.25 56.23 C 348.26 59.06 348.25 61.90 348.28 64.73 C 341.19 64.79 334.10 64.73 327.01 64.75 C 326.99 61.91 326.97 59.06 326.96 56.22 Z"
     id="path4195"
     style="fill:#ffffff;fill-opacity:1;stroke:none" />
  <path
     fill="#020202"
     d=" M 9.65 68.41 C 10.64 66.43 11.24 62.42 14.34 63.55 C 13.22 71.03 9.00 78.29 10.96 86.05 C 12.16 93.94 19.50 99.48 27.12 100.42 C 38.51 101.82 49.90 98.61 60.41 94.49 C 68.68 91.22 76.57 86.97 83.83 81.84 C 85.64 80.40 88.12 81.23 90.22 80.99 C 74.43 93.63 55.39 103.17 35.03 104.98 C 26.25 105.81 16.09 103.81 10.71 96.19 C 5.07 88.03 7.09 77.30 9.65 68.41 Z"
     id="path4197"
     style="fill:#ffffff;fill-opacity:1;stroke:none" />
  <path
     fill="#020202"
     d=" M 65.33 75.86 C 66.62 76.08 67.90 76.29 69.19 76.52 C 69.29 79.08 70.27 81.76 69.34 84.27 C 67.59 85.79 65.28 85.30 63.36 84.42 C 63.55 81.47 64.38 78.64 65.33 75.86 Z"
     id="path4199"
     style="fill:#ffffff;fill-opacity:1;stroke:none" />
</svg>
