<?xml version="1.0" encoding="utf-8"?>
<!-- Generator: Adobe Illustrator 16.0.3, SVG Export Plug-In . SVG Version: 6.00 Build 0)  -->
<!DOCTYPE svg PUBLIC "-//W3C//DTD SVG 1.1//EN" "http://www.w3.org/Graphics/SVG/1.1/DTD/svg11.dtd">
<svg version="1.1" id="Layer_1" xmlns="http://www.w3.org/2000/svg" xmlns:xlink="http://www.w3.org/1999/xlink" x="0px" y="0px"
	 width="289px" height="86px" viewBox="0 0 289 86" enable-background="new 0 0 289 86" xml:space="preserve">
<g id="background">
	<rect display="none" width="289" height="86"/>
</g>
<g id="Label">
	<g id="Beta" display="none">
		<g id="Badge_3_-_Orange" display="inline">
			<g>
				
					<radialGradient id="SVGID_1_" cx="269.6045" cy="-39.3032" r="42.6322" gradientTransform="matrix(1 0 0 -1 -20.8398 -10.5996)" gradientUnits="userSpaceOnUse">
					<stop  offset="0" style="stop-color:#FFDE40"/>
					<stop  offset="1" style="stop-color:#F6921E"/>
				</radialGradient>
				<path fill="url(#SVGID_1_)" d="M261.328,84.861c-1.104,0-2.085-1.221-3.035-2.399c-0.863-1.073-1.682-2.087-2.63-2.341
					c-0.187-0.051-0.394-0.075-0.613-0.075c-0.886,0-1.937,0.404-2.954,0.796c-0.982,0.379-2,0.77-2.818,0.77
					c-0.352,0-0.643-0.069-0.891-0.213c-0.924-0.535-1.162-2.063-1.393-3.539c-0.206-1.321-0.42-2.688-1.135-3.403
					c-0.717-0.718-2.084-0.931-3.407-1.138c-1.476-0.229-3.002-0.467-3.535-1.391c-0.522-0.902,0.024-2.33,0.556-3.709
					c0.485-1.263,0.987-2.568,0.721-3.566c-0.254-0.951-1.269-1.769-2.342-2.633c-1.18-0.949-2.397-1.933-2.397-3.033
					c0-1.1,1.219-2.082,2.397-3.031c1.073-0.865,2.088-1.682,2.342-2.633c0.268-1-0.234-2.305-0.721-3.567
					c-0.529-1.379-1.078-2.806-0.556-3.709c0.533-0.923,2.06-1.161,3.535-1.392c1.323-0.207,2.69-0.42,3.407-1.135
					c0.717-0.716,0.93-2.084,1.137-3.408c0.229-1.476,0.468-3.001,1.391-3.536c0.248-0.144,0.539-0.213,0.891-0.213
					c0.818,0,1.836,0.391,2.818,0.769c1.018,0.391,2.068,0.795,2.954,0.795c0.222,0,0.427-0.025,0.613-0.075
					c0.95-0.254,1.769-1.268,2.633-2.342c0.949-1.179,1.933-2.398,3.032-2.398s2.083,1.219,3.031,2.398
					c0.865,1.074,1.683,2.088,2.634,2.342c0.187,0.05,0.394,0.075,0.612,0.075c0.887,0,1.938-0.404,2.955-0.795
					c0.983-0.378,2-0.769,2.818-0.769c0.352,0,0.643,0.069,0.891,0.212c0.922,0.534,1.16,2.061,1.391,3.536
					c0.207,1.323,0.42,2.692,1.137,3.407c0.714,0.715,2.082,0.93,3.404,1.137c1.477,0.229,3.003,0.469,3.535,1.393
					c0.523,0.903-0.023,2.329-0.555,3.708c-0.484,1.263-0.986,2.567-0.72,3.565c0.254,0.951,1.269,1.769,2.341,2.634
					c1.18,0.948,2.397,1.933,2.397,3.032c0,1.102-1.22,2.082-2.398,3.033c-1.073,0.863-2.087,1.681-2.342,2.631
					c-0.267,0.998,0.235,2.305,0.722,3.565c0.529,1.38,1.078,2.808,0.555,3.712c-0.532,0.922-2.06,1.16-3.534,1.391
					c-1.323,0.207-2.691,0.42-3.407,1.136c-0.715,0.716-0.929,2.083-1.135,3.405c-0.23,1.477-0.469,3.002-1.393,3.537
					c-0.248,0.145-0.539,0.213-0.892,0.213c-0.817,0-1.835-0.391-2.817-0.769c-1.018-0.392-2.068-0.796-2.953-0.796
					c-0.222,0-0.428,0.025-0.612,0.075c-0.951,0.254-1.769,1.269-2.634,2.342C263.411,83.643,262.43,84.861,261.328,84.861z"/>
				<g>
					<path fill="#E26926" d="M261.328,33.236c1.041,0,2.004,1.195,2.936,2.352c0.877,1.09,1.707,2.12,2.697,2.384
						c0.197,0.053,0.414,0.079,0.646,0.079c0.908,0,1.972-0.408,2.998-0.803c0.974-0.374,1.979-0.76,2.775-0.761
						c0.328,0,0.598,0.064,0.826,0.196c0.871,0.505,1.104,2,1.33,3.447c0.209,1.343,0.426,2.732,1.171,3.476
						c0.743,0.746,2.132,0.963,3.474,1.172c1.447,0.227,2.943,0.459,3.447,1.332c0.494,0.852-0.043,2.25-0.563,3.602
						c-0.492,1.28-1.002,2.604-0.726,3.643c0.267,0.99,1.295,1.82,2.384,2.697c1.155,0.932,2.352,1.895,2.352,2.936
						s-1.195,2.005-2.352,2.937c-1.091,0.878-2.119,1.707-2.386,2.697c-0.274,1.037,0.231,2.36,0.726,3.644
						c0.521,1.353,1.059,2.752,0.563,3.604c-0.504,0.871-1.999,1.104-3.444,1.33c-1.345,0.209-2.732,0.426-3.479,1.171
						c-0.743,0.743-0.96,2.132-1.169,3.474c-0.228,1.447-0.459,2.944-1.332,3.449c-0.229,0.133-0.499,0.197-0.828,0.197
						c-0.795,0-1.801-0.387-2.774-0.762c-1.025-0.396-2.088-0.804-2.996-0.804c-0.23,0-0.449,0.024-0.646,0.078
						c-0.99,0.267-1.819,1.295-2.696,2.386c-0.933,1.155-1.896,2.352-2.937,2.352c-1.043,0-2.007-1.196-2.938-2.354
						c-0.877-1.089-1.705-2.116-2.695-2.383c-0.196-0.052-0.414-0.078-0.645-0.078c-0.91,0-1.973,0.408-3,0.804
						c-0.973,0.375-1.979,0.762-2.773,0.762c-0.328,0-0.6-0.064-0.828-0.197c-0.872-0.505-1.104-2.002-1.331-3.449
						c-0.21-1.342-0.427-2.729-1.169-3.474c-0.745-0.745-2.135-0.962-3.479-1.171c-1.445-0.227-2.941-0.459-3.445-1.33
						c-0.494-0.852,0.045-2.25,0.564-3.602c0.492-1.281,1.002-2.606,0.725-3.646c-0.266-0.99-1.295-1.82-2.385-2.697
						c-1.156-0.932-2.352-1.896-2.352-2.937s1.195-2.004,2.352-2.936c1.09-0.877,2.119-1.707,2.385-2.697
						c0.277-1.037-0.231-2.362-0.725-3.645c-0.521-1.352-1.059-2.75-0.564-3.602c0.504-0.871,2-1.104,3.445-1.33
						c1.344-0.209,2.732-0.426,3.479-1.172c0.744-0.745,0.962-2.132,1.171-3.477c0.227-1.446,0.459-2.942,1.329-3.447
						c0.229-0.132,0.5-0.196,0.828-0.196c0.795,0,1.802,0.387,2.773,0.761c1.027,0.395,2.09,0.804,3,0.804
						c0.23,0,0.447-0.027,0.645-0.079c0.99-0.265,1.82-1.294,2.697-2.384C259.324,34.432,260.287,33.236,261.328,33.236
						 M261.328,32.986c-2.148,0-3.715,4.215-5.697,4.744c-0.184,0.049-0.377,0.071-0.58,0.071c-1.719,0-4.083-1.564-5.773-1.564
						c-0.351,0-0.672,0.067-0.952,0.23c-1.82,1.055-1.074,5.484-2.554,6.963c-1.479,1.479-5.91,0.732-6.963,2.552
						c-1.039,1.795,1.813,5.256,1.265,7.308c-0.529,1.981-4.744,3.549-4.744,5.696c0,2.148,4.215,3.716,4.744,5.697
						c0.549,2.051-2.304,5.512-1.265,7.308c1.053,1.819,5.484,1.073,6.963,2.553c1.478,1.479,0.73,5.908,2.554,6.963
						c0.28,0.162,0.603,0.229,0.952,0.229c1.69,0,4.056-1.563,5.773-1.563c0.203,0,0.396,0.021,0.58,0.07
						c1.98,0.528,3.547,4.743,5.697,4.743c2.148,0,3.715-4.215,5.697-4.743c0.184-0.05,0.377-0.07,0.58-0.07
						c1.717,0,4.08,1.563,5.771,1.563c0.351,0,0.672-0.067,0.953-0.229c1.821-1.055,1.075-5.483,2.553-6.963
						c1.479-1.479,5.91-0.731,6.964-2.553c1.038-1.796-1.812-5.257-1.265-7.308c0.53-1.981,4.744-3.549,4.744-5.697
						c0-2.147-4.214-3.715-4.742-5.696c-0.549-2.052,2.301-5.511,1.262-7.306c-1.053-1.821-5.483-1.075-6.961-2.554
						c-1.479-1.477-0.731-5.908-2.553-6.963c-0.281-0.162-0.603-0.229-0.952-0.229c-1.689,0-4.057,1.564-5.773,1.564
						c-0.203,0-0.396-0.022-0.58-0.071C265.043,37.201,263.477,32.986,261.328,32.986L261.328,32.986z"/>
				</g>
			</g>
			<g opacity="0.8">
				<g>
					
						<linearGradient id="SVGID_2_" gradientUnits="userSpaceOnUse" x1="256.668" y1="-57.4209" x2="295.5557" y2="-57.4209" gradientTransform="matrix(1 0 0 -1 -20.8398 -10.5996)">
						<stop  offset="0" style="stop-color:#FFFFFF"/>
						<stop  offset="1" style="stop-color:#000000"/>
					</linearGradient>
					<path fill="url(#SVGID_2_)" d="M236.225,59.604c0-0.922,1.148-1.848,2.26-2.742c1.072-0.862,2.182-1.758,2.469-2.827
						c0.298-1.115-0.225-2.479-0.732-3.8c-0.498-1.295-1.015-2.637-0.58-3.387c0.441-0.768,1.879-0.99,3.267-1.207
						c1.382-0.217,2.813-0.438,3.614-1.24c0.803-0.801,1.027-2.229,1.242-3.612c0.219-1.389,0.44-2.824,1.209-3.27
						c0.189-0.111,0.42-0.164,0.703-0.164c0.745,0,1.727,0.375,2.674,0.74c1.065,0.41,2.146,0.824,3.103,0.824
						c0.252,0,0.487-0.029,0.706-0.086c1.07-0.287,1.964-1.396,2.828-2.473c0.895-1.109,1.818-2.258,2.74-2.258
						c0.92,0,1.848,1.148,2.74,2.262c0.864,1.072,1.76,2.182,2.827,2.469c0.216,0.057,0.454,0.086,0.706,0.086
						c0.956,0,2.036-0.414,3.079-0.816c0.965-0.371,1.948-0.746,2.694-0.746c0.285,0,0.515,0.053,0.705,0.162
						c0.086,0.051,0.164,0.117,0.237,0.191c-0.159-0.361-0.362-0.648-0.635-0.807c-0.19-0.111-0.42-0.164-0.704-0.164
						c-0.747,0-1.73,0.377-2.695,0.748c-1.043,0.4-2.123,0.816-3.078,0.816c-0.252,0-0.49-0.029-0.707-0.088
						c-1.067-0.285-1.963-1.396-2.826-2.469c-0.895-1.111-1.82-2.26-2.741-2.26c-0.922,0-1.847,1.148-2.74,2.258
						c-0.864,1.074-1.758,2.186-2.828,2.471c-0.218,0.059-0.454,0.088-0.706,0.088c-0.955,0-2.035-0.416-3.103-0.826
						c-0.946-0.363-1.929-0.74-2.673-0.74c-0.284,0-0.514,0.053-0.704,0.166c-0.769,0.443-0.99,1.879-1.208,3.268
						c-0.215,1.383-0.439,2.811-1.242,3.613c-0.803,0.802-2.232,1.025-3.615,1.24c-1.387,0.219-2.824,0.44-3.267,1.209
						c-0.435,0.75,0.082,2.09,0.58,3.387c0.509,1.32,1.03,2.684,0.733,3.797c-0.287,1.072-1.396,1.965-2.47,2.83
						c-1.11,0.895-2.259,1.82-2.259,2.742c0,0.391,0.214,0.781,0.535,1.17C236.281,59.975,236.225,59.789,236.225,59.604z"/>
				</g>
				<g>
					
						<linearGradient id="SVGID_3_" gradientUnits="userSpaceOnUse" x1="303.5156" y1="-67.0596" x2="307.5273" y2="-67.0596" gradientTransform="matrix(1 0 0 -1 -20.8398 -10.5996)">
						<stop  offset="0" style="stop-color:#FFFFFF"/>
						<stop  offset="1" style="stop-color:#000000"/>
					</linearGradient>
					<path fill="url(#SVGID_3_)" d="M282.676,54.488c0.434,0.873,1.373,1.635,2.29,2.373c0.64,0.516,1.283,1.041,1.722,1.57
						c-0.33-0.736-1.23-1.472-2.117-2.187C283.874,55.686,283.168,55.113,282.676,54.488z"/>
				</g>
				<g>
					
						<linearGradient id="SVGID_4_" gradientUnits="userSpaceOnUse" x1="297.2324" y1="-55.6768" x2="304.3691" y2="-55.6768" gradientTransform="matrix(1 0 0 -1 -20.8398 -10.5996)">
						<stop  offset="0" style="stop-color:#FFFFFF"/>
						<stop  offset="1" style="stop-color:#000000"/>
					</linearGradient>
					<path fill="url(#SVGID_4_)" d="M276.93,44.4c0.799,0.803,2.229,1.022,3.609,1.24c1.175,0.184,2.378,0.377,2.99,0.896
						c-0.026-0.108-0.064-0.211-0.118-0.304c-0.442-0.768-1.88-0.991-3.269-1.211c-1.381-0.215-2.812-0.438-3.611-1.239
						c-0.051-0.052-0.092-0.109-0.139-0.164C276.538,43.916,276.711,44.182,276.93,44.4z"/>
				</g>
				<g>
					
						<linearGradient id="SVGID_5_" gradientUnits="userSpaceOnUse" x1="259.9199" y1="-78.6807" x2="261.8789" y2="-78.6807" gradientTransform="matrix(1 0 0 -1 -20.8398 -10.5996)">
						<stop  offset="0" style="stop-color:#FFFFFF"/>
						<stop  offset="1" style="stop-color:#000000"/>
					</linearGradient>
					<path fill="url(#SVGID_5_)" d="M240.219,68.971c0.51-1.32,1.031-2.684,0.733-3.801c-0.101-0.375-0.308-0.727-0.572-1.064
						c0.072,0.146,0.136,0.295,0.177,0.449c0.297,1.115-0.226,2.48-0.734,3.801c-0.497,1.295-1.014,2.636-0.579,3.386
						c0.067,0.118,0.167,0.221,0.278,0.315C239.332,71.279,239.781,70.107,240.219,68.971z"/>
				</g>
				<g>
					
						<linearGradient id="SVGID_6_" gradientUnits="userSpaceOnUse" x1="267.499" y1="-88.5273" x2="269.1768" y2="-88.5273" gradientTransform="matrix(1 0 0 -1 -20.8398 -10.5996)">
						<stop  offset="0" style="stop-color:#FFFFFF"/>
						<stop  offset="1" style="stop-color:#000000"/>
					</linearGradient>
					<path fill="url(#SVGID_6_)" d="M247.762,78.418c-0.203-1.295-0.416-2.623-1.103-3.445c0.385,0.795,0.548,1.822,0.704,2.83
						c0.193,1.232,0.395,2.498,0.974,3.08C248.047,80.227,247.9,79.314,247.762,78.418z"/>
				</g>
			</g>
		</g>
		
			<text transform="matrix(0.9529 -0.3034 0.3034 0.9529 244.2539 69.626)" display="inline" fill="#FFFFFF" font-family="'MyriadPro-Bold'" font-size="16.9772">Beta!</text>
	</g>
	<g id="Production" display="none">
		<g id="Badge_3_-_Green" display="inline">
			<g>
				
					<radialGradient id="SVGID_7_" cx="269.6104" cy="-39.3184" r="42.6321" gradientTransform="matrix(1 0 0 -1 -20.8398 -10.5996)" gradientUnits="userSpaceOnUse">
					<stop  offset="0" style="stop-color:#ECEB7B"/>
					<stop  offset="1" style="stop-color:#8BC53F"/>
				</radialGradient>
				<path fill="url(#SVGID_7_)" d="M261.334,84.875c-1.104,0-2.085-1.221-3.035-2.398c-0.863-1.074-1.681-2.088-2.63-2.342
					c-0.187-0.05-0.394-0.074-0.612-0.074c-0.887,0-1.938,0.403-2.955,0.795c-0.982,0.379-2,0.77-2.817,0.77
					c-0.353,0-0.644-0.068-0.892-0.213c-0.924-0.535-1.162-2.063-1.393-3.538c-0.206-1.321-0.42-2.688-1.134-3.403
					c-0.718-0.718-2.085-0.931-3.408-1.138c-1.476-0.229-3.002-0.468-3.535-1.392c-0.522-0.902,0.024-2.33,0.556-3.709
					c0.485-1.262,0.987-2.567,0.722-3.566c-0.255-0.951-1.269-1.768-2.343-2.633c-1.18-0.949-2.397-1.932-2.397-3.032
					s1.22-2.083,2.397-3.032c1.074-0.865,2.088-1.682,2.343-2.633c0.267-0.999-0.235-2.305-0.722-3.566
					c-0.529-1.379-1.078-2.807-0.556-3.709c0.533-0.924,2.06-1.162,3.535-1.392c1.323-0.207,2.69-0.42,3.407-1.136
					c0.717-0.716,0.93-2.084,1.137-3.407c0.229-1.476,0.469-3.001,1.391-3.536c0.248-0.144,0.539-0.213,0.892-0.213
					c0.817,0,1.835,0.391,2.817,0.769c1.019,0.391,2.068,0.795,2.955,0.795c0.221,0,0.426-0.025,0.612-0.075
					c0.951-0.254,1.769-1.268,2.633-2.342c0.949-1.179,1.933-2.398,3.032-2.398s2.083,1.219,3.032,2.398
					c0.864,1.074,1.682,2.088,2.633,2.342c0.187,0.05,0.394,0.075,0.612,0.075c0.887,0,1.938-0.404,2.955-0.795
					c0.983-0.378,2-0.769,2.818-0.769c0.352,0,0.643,0.069,0.891,0.212c0.923,0.534,1.16,2.061,1.391,3.536
					c0.207,1.323,0.42,2.692,1.137,3.406c0.715,0.716,2.082,0.93,3.404,1.137c1.477,0.23,3.003,0.469,3.536,1.393
					c0.522,0.903-0.024,2.33-0.556,3.709c-0.484,1.262-0.985,2.566-0.72,3.565c0.255,0.951,1.269,1.769,2.341,2.633
					c1.18,0.949,2.397,1.933,2.397,3.032c0,1.102-1.22,2.083-2.397,3.033c-1.074,0.863-2.088,1.681-2.343,2.632
					c-0.266,0.998,0.235,2.304,0.722,3.565c0.529,1.379,1.078,2.808,0.556,3.711c-0.533,0.922-2.06,1.16-3.535,1.391
					c-1.323,0.207-2.69,0.42-3.407,1.136c-0.715,0.716-0.929,2.083-1.135,3.405c-0.23,1.477-0.469,3.003-1.393,3.538
					c-0.248,0.144-0.539,0.213-0.892,0.213c-0.817,0-1.835-0.392-2.817-0.769c-1.018-0.393-2.068-0.797-2.953-0.797
					c-0.221,0-0.428,0.025-0.612,0.075c-0.951,0.255-1.769,1.269-2.633,2.343C263.417,83.656,262.436,84.875,261.334,84.875z"/>
				<g>
					<path fill="#608D2B" d="M261.334,33.25c1.041,0,2.004,1.195,2.936,2.352c0.877,1.09,1.707,2.12,2.697,2.384
						c0.197,0.053,0.414,0.079,0.646,0.079c0.908,0,1.972-0.408,2.998-0.803c0.974-0.374,1.979-0.76,2.775-0.761
						c0.328,0,0.598,0.064,0.826,0.196c0.871,0.505,1.104,2,1.33,3.447c0.209,1.343,0.426,2.732,1.171,3.476
						c0.743,0.745,2.132,0.962,3.474,1.171c1.447,0.227,2.943,0.46,3.447,1.332c0.494,0.852-0.043,2.25-0.563,3.602
						c-0.492,1.28-1.002,2.604-0.725,3.644c0.266,0.989,1.295,1.819,2.383,2.696c1.155,0.933,2.352,1.896,2.352,2.937
						s-1.195,2.004-2.352,2.937c-1.09,0.877-2.119,1.707-2.386,2.696c-0.274,1.037,0.232,2.361,0.726,3.644
						c0.521,1.353,1.059,2.752,0.563,3.604c-0.504,0.871-1.999,1.104-3.444,1.33c-1.345,0.209-2.732,0.426-3.479,1.171
						c-0.743,0.744-0.96,2.132-1.169,3.474c-0.228,1.447-0.459,2.944-1.332,3.449c-0.229,0.133-0.499,0.197-0.828,0.197
						c-0.795,0-1.801-0.387-2.774-0.762c-1.025-0.395-2.088-0.803-2.996-0.803c-0.23,0-0.448,0.024-0.646,0.078
						c-0.989,0.266-1.819,1.295-2.696,2.385c-0.933,1.156-1.896,2.352-2.937,2.352c-1.043,0-2.006-1.195-2.938-2.354
						c-0.877-1.09-1.705-2.117-2.694-2.383c-0.197-0.053-0.414-0.078-0.646-0.078c-0.91,0-1.973,0.408-3,0.803
						c-0.973,0.375-1.979,0.762-2.772,0.762c-0.329,0-0.601-0.064-0.828-0.197c-0.873-0.505-1.104-2.002-1.332-3.449
						c-0.209-1.342-0.427-2.729-1.169-3.474c-0.745-0.745-2.135-0.962-3.479-1.171c-1.445-0.227-2.94-0.459-3.445-1.33
						c-0.493-0.852,0.045-2.25,0.564-3.602c0.492-1.281,1.002-2.606,0.725-3.646c-0.266-0.989-1.295-1.819-2.385-2.696
						c-1.156-0.933-2.352-1.896-2.352-2.937s1.195-2.004,2.352-2.937c1.09-0.877,2.119-1.707,2.385-2.696
						c0.277-1.038-0.231-2.363-0.725-3.646c-0.521-1.352-1.059-2.75-0.564-3.602c0.505-0.871,2-1.104,3.445-1.33
						c1.344-0.209,2.732-0.426,3.479-1.171c0.744-0.745,0.962-2.133,1.171-3.477c0.228-1.446,0.459-2.942,1.33-3.447
						c0.229-0.132,0.499-0.196,0.828-0.196c0.795,0,1.801,0.387,2.772,0.761c1.027,0.395,2.09,0.804,3,0.804
						c0.23,0,0.447-0.027,0.646-0.079c0.989-0.265,1.819-1.294,2.696-2.384C259.33,34.445,260.293,33.25,261.334,33.25 M261.334,33
						c-2.148,0-3.715,4.215-5.697,4.744c-0.184,0.049-0.377,0.071-0.58,0.071c-1.719,0-4.082-1.564-5.772-1.564
						c-0.351,0-0.673,0.067-0.953,0.23c-1.819,1.055-1.074,5.484-2.554,6.963c-1.479,1.479-5.909,0.732-6.963,2.553
						c-1.039,1.795,1.813,5.256,1.265,7.308c-0.529,1.981-4.744,3.549-4.744,5.696s4.215,3.715,4.744,5.696
						c0.549,2.052-2.304,5.513-1.265,7.308c1.054,1.82,5.484,1.074,6.963,2.554c1.478,1.479,0.73,5.907,2.554,6.963
						c0.28,0.162,0.603,0.229,0.953,0.229c1.69,0,4.055-1.563,5.772-1.563c0.203,0,0.396,0.021,0.58,0.069
						c1.98,0.529,3.547,4.744,5.697,4.744c2.148,0,3.715-4.215,5.697-4.744c0.184-0.049,0.377-0.069,0.58-0.069
						c1.717,0,4.08,1.563,5.771,1.563c0.351,0,0.673-0.067,0.953-0.229c1.822-1.056,1.076-5.484,2.554-6.963
						c1.479-1.479,5.909-0.732,6.963-2.554c1.039-1.795-1.812-5.256-1.265-7.308c0.531-1.981,4.744-3.549,4.744-5.696
						s-4.213-3.715-4.742-5.696c-0.549-2.052,2.302-5.511,1.263-7.306c-1.054-1.821-5.484-1.076-6.961-2.555
						c-1.479-1.477-0.732-5.908-2.554-6.963c-0.28-0.162-0.603-0.229-0.952-0.229c-1.689,0-4.056,1.564-5.773,1.564
						c-0.203,0-0.396-0.022-0.58-0.071C265.049,37.215,263.482,33,261.334,33L261.334,33z"/>
				</g>
			</g>
			<g opacity="0.8">
				<g>
					
						<linearGradient id="SVGID_8_" gradientUnits="userSpaceOnUse" x1="256.6729" y1="-57.4341" x2="295.5605" y2="-57.4341" gradientTransform="matrix(1 0 0 -1 -20.8398 -10.5996)">
						<stop  offset="0" style="stop-color:#FFFFFF"/>
						<stop  offset="1" style="stop-color:#000000"/>
					</linearGradient>
					<path fill="url(#SVGID_8_)" d="M236.23,59.617c0-0.922,1.147-1.848,2.258-2.742c1.072-0.863,2.183-1.758,2.47-2.828
						c0.298-1.115-0.226-2.479-0.733-3.799c-0.498-1.295-1.014-2.637-0.58-3.387c0.442-0.769,1.881-0.99,3.268-1.207
						c1.382-0.217,2.813-0.438,3.615-1.24c0.802-0.803,1.027-2.23,1.242-3.613c0.217-1.389,0.439-2.824,1.207-3.27
						c0.19-0.111,0.42-0.164,0.705-0.164c0.744,0,1.727,0.375,2.672,0.74c1.066,0.41,2.146,0.824,3.104,0.824
						c0.252,0,0.488-0.029,0.706-0.086c1.069-0.287,1.964-1.396,2.828-2.473c0.895-1.109,1.817-2.258,2.739-2.258
						s1.849,1.148,2.742,2.262c0.863,1.072,1.758,2.182,2.826,2.469c0.217,0.057,0.454,0.086,0.706,0.086
						c0.956,0,2.036-0.414,3.079-0.816c0.965-0.371,1.948-0.746,2.695-0.746c0.283,0,0.514,0.053,0.703,0.162
						c0.088,0.051,0.164,0.117,0.238,0.191c-0.16-0.361-0.361-0.648-0.635-0.807c-0.189-0.111-0.42-0.164-0.704-0.164
						c-0.747,0-1.729,0.377-2.694,0.748c-1.043,0.4-2.123,0.816-3.08,0.816c-0.252,0-0.489-0.029-0.705-0.088
						c-1.068-0.285-1.963-1.396-2.827-2.469c-0.894-1.111-1.82-2.26-2.741-2.26c-0.922,0-1.846,1.148-2.74,2.258
						c-0.863,1.074-1.758,2.186-2.828,2.471c-0.218,0.059-0.453,0.088-0.705,0.088c-0.957,0-2.037-0.416-3.104-0.826
						c-0.945-0.363-1.928-0.74-2.673-0.74c-0.284,0-0.515,0.053-0.704,0.166c-0.768,0.443-0.99,1.879-1.208,3.268
						c-0.215,1.383-0.438,2.811-1.242,3.613c-0.803,0.802-2.233,1.024-3.614,1.24c-1.388,0.219-2.824,0.44-3.268,1.209
						c-0.434,0.75,0.082,2.09,0.58,3.387c0.509,1.32,1.031,2.685,0.732,3.798c-0.287,1.071-1.396,1.965-2.469,2.829
						c-1.109,0.896-2.259,1.82-2.259,2.742c0,0.392,0.214,0.781,0.536,1.17C236.287,59.988,236.23,59.803,236.23,59.617z"/>
				</g>
				<g>
					
						<linearGradient id="SVGID_9_" gradientUnits="userSpaceOnUse" x1="303.5215" y1="-67.0732" x2="307.5332" y2="-67.0732" gradientTransform="matrix(1 0 0 -1 -20.8398 -10.5996)">
						<stop  offset="0" style="stop-color:#FFFFFF"/>
						<stop  offset="1" style="stop-color:#000000"/>
					</linearGradient>
					<path fill="url(#SVGID_9_)" d="M282.682,54.502c0.435,0.873,1.373,1.635,2.291,2.373c0.639,0.516,1.282,1.041,1.721,1.57
						c-0.33-0.736-1.23-1.471-2.117-2.187C283.88,55.699,283.174,55.127,282.682,54.502z"/>
				</g>
				<g>
					
						<linearGradient id="SVGID_10_" gradientUnits="userSpaceOnUse" x1="297.2383" y1="-55.6904" x2="304.375" y2="-55.6904" gradientTransform="matrix(1 0 0 -1 -20.8398 -10.5996)">
						<stop  offset="0" style="stop-color:#FFFFFF"/>
						<stop  offset="1" style="stop-color:#000000"/>
					</linearGradient>
					<path fill="url(#SVGID_10_)" d="M276.936,44.414c0.799,0.803,2.229,1.023,3.609,1.24c1.175,0.184,2.378,0.377,2.99,0.896
						c-0.026-0.108-0.064-0.211-0.118-0.303c-0.442-0.769-1.88-0.992-3.269-1.211c-1.381-0.216-2.812-0.438-3.61-1.24
						c-0.052-0.051-0.093-0.108-0.14-0.164C276.544,43.93,276.717,44.195,276.936,44.414z"/>
				</g>
				<g>
					
						<linearGradient id="SVGID_11_" gradientUnits="userSpaceOnUse" x1="259.9258" y1="-78.6943" x2="261.8848" y2="-78.6943" gradientTransform="matrix(1 0 0 -1 -20.8398 -10.5996)">
						<stop  offset="0" style="stop-color:#FFFFFF"/>
						<stop  offset="1" style="stop-color:#000000"/>
					</linearGradient>
					<path fill="url(#SVGID_11_)" d="M240.225,68.984c0.51-1.32,1.031-2.685,0.733-3.801c-0.101-0.375-0.308-0.728-0.571-1.064
						c0.071,0.146,0.135,0.295,0.176,0.449c0.297,1.115-0.226,2.479-0.733,3.801c-0.498,1.295-1.015,2.635-0.58,3.385
						c0.067,0.119,0.167,0.221,0.278,0.316C239.338,71.293,239.787,70.121,240.225,68.984z"/>
				</g>
				<g>
					
						<linearGradient id="SVGID_12_" gradientUnits="userSpaceOnUse" x1="267.5049" y1="-88.541" x2="269.1826" y2="-88.541" gradientTransform="matrix(1 0 0 -1 -20.8398 -10.5996)">
						<stop  offset="0" style="stop-color:#FFFFFF"/>
						<stop  offset="1" style="stop-color:#000000"/>
					</linearGradient>
					<path fill="url(#SVGID_12_)" d="M247.768,78.432c-0.203-1.295-0.416-2.623-1.103-3.445c0.385,0.795,0.548,1.822,0.705,2.83
						c0.192,1.232,0.394,2.498,0.973,3.08C248.053,80.24,247.907,79.328,247.768,78.432z"/>
				</g>
			</g>
		</g>
		
			<text transform="matrix(0.9529 -0.3034 0.3034 0.9529 251.1846 58.6445)" display="inline" fill="#FFFFFF" font-family="'MyriadPro-Bold'" font-size="11.3955">Pro-</text>
		
			<text transform="matrix(0.9529 -0.3034 0.3034 0.9529 246.7871 74.3945)" display="inline" fill="#FFFFFF" font-family="'MyriadPro-Bold'" font-size="11.3955">duction</text>
	</g>
	<g id="Staging" display="none">
		<g id="Badge_3_-_Blue" display="inline">
			<g>
				
					<radialGradient id="SVGID_13_" cx="269.6104" cy="-39.3184" r="42.6321" gradientTransform="matrix(1 0 0 -1 -20.8398 -10.5996)" gradientUnits="userSpaceOnUse">
					<stop  offset="0" style="stop-color:#D1EDFB"/>
					<stop  offset="1" style="stop-color:#3DA3DB"/>
				</radialGradient>
				<path fill="url(#SVGID_13_)" d="M261.334,84.875c-1.104,0-2.085-1.221-3.035-2.398c-0.863-1.074-1.681-2.088-2.63-2.342
					c-0.187-0.05-0.394-0.074-0.612-0.074c-0.887,0-1.938,0.403-2.955,0.795c-0.982,0.379-2,0.77-2.817,0.77
					c-0.353,0-0.644-0.068-0.892-0.213c-0.924-0.535-1.162-2.063-1.393-3.538c-0.206-1.321-0.42-2.688-1.134-3.403
					c-0.718-0.718-2.085-0.931-3.408-1.138c-1.476-0.229-3.002-0.468-3.535-1.392c-0.522-0.902,0.024-2.33,0.556-3.709
					c0.485-1.262,0.987-2.567,0.722-3.566c-0.255-0.951-1.269-1.768-2.343-2.633c-1.18-0.949-2.397-1.932-2.397-3.032
					s1.22-2.083,2.397-3.032c1.074-0.865,2.088-1.682,2.343-2.633c0.267-0.999-0.235-2.305-0.722-3.566
					c-0.529-1.379-1.078-2.807-0.556-3.709c0.533-0.924,2.06-1.162,3.535-1.392c1.323-0.207,2.69-0.42,3.407-1.136
					c0.717-0.716,0.93-2.084,1.137-3.407c0.229-1.476,0.469-3.001,1.391-3.536c0.248-0.144,0.539-0.213,0.892-0.213
					c0.817,0,1.835,0.391,2.817,0.769c1.019,0.391,2.068,0.795,2.955,0.795c0.221,0,0.426-0.025,0.612-0.075
					c0.951-0.254,1.769-1.268,2.633-2.342c0.949-1.179,1.933-2.398,3.032-2.398s2.083,1.219,3.032,2.398
					c0.864,1.074,1.682,2.088,2.633,2.342c0.187,0.05,0.394,0.075,0.612,0.075c0.887,0,1.938-0.404,2.955-0.795
					c0.983-0.378,2-0.769,2.818-0.769c0.352,0,0.643,0.069,0.891,0.212c0.923,0.534,1.16,2.061,1.391,3.536
					c0.207,1.323,0.42,2.692,1.137,3.406c0.715,0.716,2.082,0.93,3.404,1.137c1.477,0.23,3.003,0.469,3.536,1.393
					c0.522,0.903-0.024,2.33-0.556,3.709c-0.484,1.262-0.985,2.566-0.72,3.565c0.255,0.951,1.269,1.769,2.341,2.633
					c1.18,0.949,2.397,1.933,2.397,3.032c0,1.102-1.22,2.083-2.397,3.033c-1.074,0.863-2.088,1.681-2.343,2.632
					c-0.266,0.998,0.235,2.304,0.722,3.565c0.529,1.379,1.078,2.808,0.556,3.711c-0.533,0.922-2.06,1.16-3.535,1.391
					c-1.323,0.207-2.69,0.42-3.407,1.136c-0.715,0.716-0.929,2.083-1.135,3.405c-0.23,1.477-0.469,3.003-1.393,3.538
					c-0.248,0.144-0.539,0.213-0.892,0.213c-0.817,0-1.835-0.392-2.817-0.769c-1.018-0.393-2.068-0.797-2.953-0.797
					c-0.221,0-0.428,0.025-0.612,0.075c-0.951,0.255-1.769,1.269-2.633,2.343C263.417,83.656,262.436,84.875,261.334,84.875z"/>
				<g>
					<path fill="#0980BC" d="M261.334,33.25c1.041,0,2.004,1.195,2.936,2.352c0.877,1.09,1.707,2.12,2.697,2.384
						c0.197,0.053,0.414,0.079,0.646,0.079c0.908,0,1.972-0.408,2.998-0.803c0.974-0.374,1.979-0.76,2.775-0.761
						c0.328,0,0.598,0.064,0.826,0.196c0.871,0.505,1.104,2,1.33,3.447c0.209,1.343,0.426,2.732,1.171,3.476
						c0.743,0.745,2.132,0.962,3.474,1.171c1.447,0.227,2.943,0.46,3.447,1.332c0.494,0.852-0.043,2.25-0.563,3.602
						c-0.492,1.28-1.002,2.604-0.725,3.644c0.266,0.989,1.295,1.819,2.383,2.696c1.155,0.933,2.352,1.896,2.352,2.937
						s-1.195,2.004-2.352,2.937c-1.09,0.877-2.119,1.707-2.386,2.696c-0.274,1.037,0.232,2.361,0.726,3.644
						c0.521,1.353,1.059,2.752,0.563,3.604c-0.504,0.871-1.999,1.104-3.444,1.33c-1.345,0.209-2.732,0.426-3.479,1.171
						c-0.743,0.744-0.96,2.132-1.169,3.474c-0.228,1.447-0.459,2.944-1.332,3.449c-0.229,0.133-0.499,0.197-0.828,0.197
						c-0.795,0-1.801-0.387-2.774-0.762c-1.025-0.395-2.088-0.803-2.996-0.803c-0.23,0-0.448,0.024-0.646,0.078
						c-0.989,0.266-1.819,1.295-2.696,2.385c-0.933,1.156-1.896,2.352-2.937,2.352c-1.043,0-2.006-1.195-2.938-2.354
						c-0.877-1.09-1.705-2.117-2.694-2.383c-0.197-0.053-0.414-0.078-0.646-0.078c-0.91,0-1.973,0.408-3,0.803
						c-0.973,0.375-1.979,0.762-2.772,0.762c-0.329,0-0.601-0.064-0.828-0.197c-0.873-0.505-1.104-2.002-1.332-3.449
						c-0.209-1.342-0.427-2.729-1.169-3.474c-0.745-0.745-2.135-0.962-3.479-1.171c-1.445-0.227-2.94-0.459-3.445-1.33
						c-0.493-0.852,0.045-2.25,0.564-3.602c0.492-1.281,1.002-2.606,0.725-3.646c-0.266-0.989-1.295-1.819-2.385-2.696
						c-1.156-0.933-2.352-1.896-2.352-2.937s1.195-2.004,2.352-2.937c1.09-0.877,2.119-1.707,2.385-2.696
						c0.277-1.038-0.231-2.363-0.725-3.646c-0.521-1.352-1.059-2.75-0.564-3.602c0.505-0.871,2-1.104,3.445-1.33
						c1.344-0.209,2.732-0.426,3.479-1.171c0.744-0.745,0.962-2.133,1.171-3.477c0.228-1.446,0.459-2.942,1.33-3.447
						c0.229-0.132,0.499-0.196,0.828-0.196c0.795,0,1.801,0.387,2.772,0.761c1.027,0.395,2.09,0.804,3,0.804
						c0.23,0,0.447-0.027,0.646-0.079c0.989-0.265,1.819-1.294,2.696-2.384C259.33,34.445,260.293,33.25,261.334,33.25 M261.334,33
						c-2.148,0-3.715,4.215-5.697,4.744c-0.184,0.049-0.377,0.071-0.58,0.071c-1.719,0-4.082-1.564-5.772-1.564
						c-0.351,0-0.673,0.067-0.953,0.23c-1.819,1.055-1.074,5.484-2.554,6.963c-1.479,1.479-5.909,0.732-6.963,2.553
						c-1.039,1.795,1.813,5.256,1.265,7.308c-0.529,1.981-4.744,3.549-4.744,5.696s4.215,3.715,4.744,5.696
						c0.549,2.052-2.304,5.513-1.265,7.308c1.054,1.82,5.484,1.074,6.963,2.554c1.478,1.479,0.73,5.907,2.554,6.963
						c0.28,0.162,0.603,0.229,0.953,0.229c1.69,0,4.055-1.563,5.772-1.563c0.203,0,0.396,0.021,0.58,0.069
						c1.98,0.529,3.547,4.744,5.697,4.744c2.148,0,3.715-4.215,5.697-4.744c0.184-0.049,0.377-0.069,0.58-0.069
						c1.717,0,4.08,1.563,5.771,1.563c0.351,0,0.673-0.067,0.953-0.229c1.822-1.056,1.076-5.484,2.554-6.963
						c1.479-1.479,5.909-0.732,6.963-2.554c1.039-1.795-1.812-5.256-1.265-7.308c0.531-1.981,4.744-3.549,4.744-5.696
						s-4.213-3.715-4.742-5.696c-0.549-2.052,2.302-5.511,1.263-7.306c-1.054-1.821-5.484-1.076-6.961-2.555
						c-1.479-1.477-0.732-5.908-2.554-6.963c-0.28-0.162-0.603-0.229-0.952-0.229c-1.689,0-4.056,1.564-5.773,1.564
						c-0.203,0-0.396-0.022-0.58-0.071C265.049,37.215,263.482,33,261.334,33L261.334,33z"/>
				</g>
			</g>
			<g opacity="0.8">
				<g>
					
						<linearGradient id="SVGID_14_" gradientUnits="userSpaceOnUse" x1="256.6729" y1="-57.4341" x2="295.5605" y2="-57.4341" gradientTransform="matrix(1 0 0 -1 -20.8398 -10.5996)">
						<stop  offset="0" style="stop-color:#FFFFFF"/>
						<stop  offset="1" style="stop-color:#000000"/>
					</linearGradient>
					<path fill="url(#SVGID_14_)" d="M236.23,59.617c0-0.922,1.147-1.848,2.258-2.742c1.072-0.863,2.183-1.758,2.47-2.828
						c0.298-1.115-0.226-2.479-0.733-3.799c-0.498-1.295-1.014-2.637-0.58-3.387c0.442-0.769,1.881-0.99,3.268-1.207
						c1.382-0.217,2.813-0.438,3.615-1.24c0.802-0.803,1.027-2.23,1.242-3.613c0.217-1.389,0.439-2.824,1.207-3.27
						c0.19-0.111,0.42-0.164,0.705-0.164c0.744,0,1.727,0.375,2.672,0.74c1.066,0.41,2.146,0.824,3.104,0.824
						c0.252,0,0.488-0.029,0.706-0.086c1.069-0.287,1.964-1.396,2.828-2.473c0.895-1.109,1.817-2.258,2.739-2.258
						s1.849,1.148,2.742,2.262c0.863,1.072,1.758,2.182,2.826,2.469c0.217,0.057,0.454,0.086,0.706,0.086
						c0.956,0,2.036-0.414,3.079-0.816c0.965-0.371,1.948-0.746,2.695-0.746c0.283,0,0.514,0.053,0.703,0.162
						c0.088,0.051,0.164,0.117,0.238,0.191c-0.16-0.361-0.361-0.648-0.635-0.807c-0.189-0.111-0.42-0.164-0.704-0.164
						c-0.747,0-1.729,0.377-2.694,0.748c-1.043,0.4-2.123,0.816-3.08,0.816c-0.252,0-0.489-0.029-0.705-0.088
						c-1.068-0.285-1.963-1.396-2.827-2.469c-0.894-1.111-1.82-2.26-2.741-2.26c-0.922,0-1.846,1.148-2.74,2.258
						c-0.863,1.074-1.758,2.186-2.828,2.471c-0.218,0.059-0.453,0.088-0.705,0.088c-0.957,0-2.037-0.416-3.104-0.826
						c-0.945-0.363-1.928-0.74-2.673-0.74c-0.284,0-0.515,0.053-0.704,0.166c-0.768,0.443-0.99,1.879-1.208,3.268
						c-0.215,1.383-0.438,2.811-1.242,3.613c-0.803,0.802-2.233,1.024-3.614,1.24c-1.388,0.219-2.824,0.44-3.268,1.209
						c-0.434,0.75,0.082,2.09,0.58,3.387c0.509,1.32,1.031,2.685,0.732,3.798c-0.287,1.071-1.396,1.965-2.469,2.829
						c-1.109,0.896-2.259,1.82-2.259,2.742c0,0.392,0.214,0.781,0.536,1.17C236.287,59.988,236.23,59.803,236.23,59.617z"/>
				</g>
				<g>
					
						<linearGradient id="SVGID_15_" gradientUnits="userSpaceOnUse" x1="303.5215" y1="-67.0732" x2="307.5332" y2="-67.0732" gradientTransform="matrix(1 0 0 -1 -20.8398 -10.5996)">
						<stop  offset="0" style="stop-color:#FFFFFF"/>
						<stop  offset="1" style="stop-color:#000000"/>
					</linearGradient>
					<path fill="url(#SVGID_15_)" d="M282.682,54.502c0.435,0.873,1.373,1.635,2.291,2.373c0.639,0.516,1.282,1.041,1.721,1.57
						c-0.33-0.736-1.23-1.471-2.117-2.187C283.88,55.699,283.174,55.127,282.682,54.502z"/>
				</g>
				<g>
					
						<linearGradient id="SVGID_16_" gradientUnits="userSpaceOnUse" x1="297.2383" y1="-55.6904" x2="304.375" y2="-55.6904" gradientTransform="matrix(1 0 0 -1 -20.8398 -10.5996)">
						<stop  offset="0" style="stop-color:#FFFFFF"/>
						<stop  offset="1" style="stop-color:#000000"/>
					</linearGradient>
					<path fill="url(#SVGID_16_)" d="M276.936,44.414c0.799,0.803,2.229,1.023,3.609,1.24c1.175,0.184,2.378,0.377,2.99,0.896
						c-0.026-0.108-0.064-0.211-0.118-0.303c-0.442-0.769-1.88-0.992-3.269-1.211c-1.381-0.216-2.812-0.438-3.61-1.24
						c-0.052-0.051-0.093-0.108-0.14-0.164C276.544,43.93,276.717,44.195,276.936,44.414z"/>
				</g>
				<g>
					
						<linearGradient id="SVGID_17_" gradientUnits="userSpaceOnUse" x1="259.9258" y1="-78.6943" x2="261.8848" y2="-78.6943" gradientTransform="matrix(1 0 0 -1 -20.8398 -10.5996)">
						<stop  offset="0" style="stop-color:#FFFFFF"/>
						<stop  offset="1" style="stop-color:#000000"/>
					</linearGradient>
					<path fill="url(#SVGID_17_)" d="M240.225,68.984c0.51-1.32,1.031-2.685,0.733-3.801c-0.101-0.375-0.308-0.728-0.571-1.064
						c0.071,0.146,0.135,0.295,0.176,0.449c0.297,1.115-0.226,2.479-0.733,3.801c-0.498,1.295-1.015,2.635-0.58,3.385
						c0.067,0.119,0.167,0.221,0.278,0.316C239.338,71.293,239.787,70.121,240.225,68.984z"/>
				</g>
				<g>
					
						<linearGradient id="SVGID_18_" gradientUnits="userSpaceOnUse" x1="267.5049" y1="-88.541" x2="269.1826" y2="-88.541" gradientTransform="matrix(1 0 0 -1 -20.8398 -10.5996)">
						<stop  offset="0" style="stop-color:#FFFFFF"/>
						<stop  offset="1" style="stop-color:#000000"/>
					</linearGradient>
					<path fill="url(#SVGID_18_)" d="M247.768,78.432c-0.203-1.295-0.416-2.623-1.103-3.445c0.385,0.795,0.548,1.822,0.705,2.83
						c0.192,1.232,0.394,2.498,0.973,3.08C248.053,80.24,247.907,79.328,247.768,78.432z"/>
				</g>
			</g>
		</g>
		
			<text transform="matrix(0.9529 -0.3034 0.3034 0.9529 242.7803 70.4072)" display="inline" fill="#FFFFFF" font-family="'MyriadPro-Bold'" font-size="12.4385">Staging</text>
	</g>
</g>
<polygon fill-rule="evenodd" clip-rule="evenodd" fill="#FFFFFF" points="92.041,47.299 87.647,47.299 87.647,15.916 92.041,15.916 
	92.041,47.299 "/>
<path fill-rule="evenodd" clip-rule="evenodd" fill="#FFFFFF" d="M199.469,15.681h-4.001l-13.652,31.618h4.003l4.237-9.962h9.806
	l1.884,9.962h4.002L199.469,15.681z M191.545,34.196l5.179-12.944h0.078l2.511,12.944H191.545z"/>
<path fill-rule="evenodd" clip-rule="evenodd" fill="#FFFFFF" d="M101.611,26.861v2.59c1.648-1.806,3.923-2.903,6.198-2.903
	c2.432,0,4.629,1.098,5.728,3.138c1.02,1.413,1.176,3.059,1.176,5.963v11.926h-4.001V35.727c0-4.159-1.255-5.806-4.314-5.806
	c-1.883,0-3.453,0.862-4.786,2.824v14.83h-4.316V26.861H101.611L101.611,26.861z"/>
<path fill-rule="evenodd" clip-rule="evenodd" fill="#FFFFFF" d="M125.37,26.744h6.59v3.688h-6.59v8.945v1.098
	c0.078,2.588,1.098,3.609,3.06,3.609c1.334,0,2.903-0.392,4.628-1.569v3.843c-1.49,0.863-3.766,1.413-5.256,1.413
	c-2.825,0-5.257-1.413-6.042-3.766c-0.392-1.255-0.392-1.806-0.392-4.394v-9.18h-3.609v-0.549l7.611-7.454V26.744L125.37,26.744z"/>
<path fill-rule="evenodd" clip-rule="evenodd" fill="#FFFFFF" d="M153.054,36.944c0-6.513-3.611-10.592-9.104-10.592
	c-5.806,0-9.728,4.314-9.728,10.592c0,3.138,1.098,5.806,3.06,7.844c2.04,2.196,4.157,2.982,7.141,2.982
	c3.218,0,5.413-0.705,8.158-2.433v-4c-2.276,1.725-4.707,2.589-7.452,2.589c-3.845,0-6.355-2.589-6.748-6.59h14.673V36.944z
	 M138.381,34.981c0.707-3.374,2.511-5.099,5.569-5.099c2.827,0,4.629,1.726,4.943,5.099H138.381z"/>
<polygon fill-rule="evenodd" clip-rule="evenodd" fill="#FFFFFF" points="246.299,47.378 242.299,47.378 245.279,26.744 
	249.046,26.744 246.299,47.378 "/>
<path fill-rule="evenodd" clip-rule="evenodd" fill="#FFFFFF" d="M248.105,22.271c-1.257,0-2.197-0.863-2.197-2.119
	c0-1.255,0.705-2.197,2.197-2.197c1.097,0,2.116,0.942,2.116,2.276C250.222,21.408,249.202,22.271,248.105,22.271L248.105,22.271z"
	/>
<path fill-rule="evenodd" clip-rule="evenodd" fill="#FFFFFF" d="M268.515,37.415c0.235-0.628,0.235-2.002,0.235-2.787
	c0-5.021-3.062-8.552-7.532-8.552c-5.492,0-9.729,5.336-9.729,12.083c0,5.884,3.609,9.807,8.786,9.807
	c2.434,0,4.708-0.863,6.905-2.432l0.548-3.845c-2.745,2.04-5.099,3.06-7.059,3.06c-2.906,0-5.181-2.589-5.181-6.197
	c0-0.393,0-0.51,0-1.137H268.515z M260.996,29.223c0.073-0.005,0.146-0.008,0.222-0.008c2.195,0,3.686,1.804,3.686,4.393v1.452
	h-0.114h-8.438h-0.389C256.706,32.49,258.324,29.288,260.996,29.223z"/>
<path fill-rule="evenodd" clip-rule="evenodd" fill="#FFFFFF" d="M281.624,30.195h-4.315l-3.216,25.971h-3.767l3.138-25.971h-3.138
	l0.391-3.374h3.376c0.235-3.609,0.941-5.493,2.118-7.454c1.806-2.353,4.629-3.765,7.768-3.765c1.489,0,2.824,0.313,5.021,1.02
	l-0.628,3.845c-1.334-0.706-2.904-1.177-4.238-1.177c-3.608,0-5.883,2.746-6.354,7.532h4.236L281.624,30.195L281.624,30.195z"/>
<path fill="#FFFFFF" d="M231.595,42.75c0-0.252,0.003-0.472,0.023-0.701l2.096-11.9h5.13l0.724-3.405h-5.228l0.708-4.315
	l-8.834,7.172l-0.01-0.004l-0.105,0.553h3.613l-2.202,12.473l0,0c-0.04,0.193-0.073,0.388-0.073,0.599
	c0,2.902,2.197,4.707,5.649,4.707c1.334,0,2.432-0.235,4.08-0.942l0.394-3.764c-1.257,0.785-2.512,1.255-3.846,1.255
	C232.301,44.476,231.595,43.927,231.595,42.75z"/>
<path fill="#FFFFFF" d="M220.705,26.037c-8.083,0-13.731,5.022-13.731,12.397c0,5.885,3.609,9.493,9.18,9.493
	c0.284,0,0.548-0.011,0.799-0.034c3.03-0.086,4.89-1.221,4.89-1.221l0.5-3.465c-2.008,1.118-5.276,1.266-5.276,1.266v0.01
	c-0.066-0.004-0.135-0.007-0.207-0.007c-3.608,0-5.806-2.354-5.806-6.042c0-5.1,4.081-8.866,9.494-8.866
	c0.627,0,1.334,0,2.589,0.236l0.314,0.079l0.471-3.453C222.587,26.037,222.037,26.037,220.705,26.037z"/>
<path fill="#FFFFFF" d="M167.153,26.429c-0.792,0-1.571,0.197-2.354,0.653v-0.004c0,0-2.6,1.414-3.924,3.173v-3.507h-4v20.712h4
	V36.472c0-3.373,2.354-6.119,4.943-6.119c1.099,0,2.668,0.627,4.002,1.96l2.04-3.609C170.213,27.213,168.644,26.429,167.153,26.429z
	"/>
<path fill="#FFFFFF" d="M27.654,15.521c3.813-3.093,13.895-7.752,19.798-7.752c0.617-0.353,1.814-1.644,0.777-2.192
	c-6.657,0-18.462,5.241-23.167,9.944h1.377H27.654z"/>
<path fill="#FFFFFF" d="M16.159,58.754c-3.214,0-6.034-0.805-8.079-2.415c-0.911-0.768-4.906-4.751-2.297-13.747
	c0.278-0.889,0.57-1.802,0.831-2.803c0.125-0.494-0.571-1.166-0.993-0.63c-0.438,0.571-0.801,1.257-1.106,2.006h0
	c0,0-2.397,5.209-1.374,10.581c0.319,2.059,1.134,3.8,2.342,5.189c0.005,0.008,0.011,0.013,0.016,0.021h0.003
	c2.229,2.549,5.774,3.918,9.961,3.918c10.618,0,22.606-5.775,31.159-12.627h-2.512C36.504,53.89,25.007,58.754,16.159,58.754z"/>
<path fill="#FFFFFF" d="M38.635,26.074h12.227v-9.909c-3.478,0-6.076,0-7.984,0c-0.017,0-1.195,0-4.68,0c-3.868,0-10.58,0-21.701,0
	v9.909h12.228c0,3.871,0,7.726,0,11.596H16.498v9.872h34.364c0-9.861,0-6.519,0-9.872H38.635V26.074z"/>
<polygon fill="#FFFFFF" points="15.602,36.774 27.83,36.774 27.83,26.97 15.602,26.97 15.602,16.165 0,31.872 15.602,47.541 "/>
<polygon fill="#FFFFFF" points="67.36,31.872 51.759,16.165 51.759,26.97 39.531,26.97 39.531,36.774 51.759,36.774 51.759,47.541 
	"/>
<path fill="#FFFFFF" d="M62.596,18.375c0,2.102-0.216,3.757-0.878,5.754c-0.207,0.856-0.023,1.325,0.833,0.8
	c1.131-1.724,1.541-4.83,1.541-6.918c0-6.566-3.196-11.179-9.865-12.4c-0.868,0.206-1.495,1.439-0.799,2.192
	C58.84,8.134,62.596,13.261,62.596,18.375z"/>
<path fill="#FFFFFF" d="M181.815,38.564h-9.853v-3.243h9.853V38.564z"/>
</svg>
