<?xml version="1.0" encoding="utf-8"?>
<!-- Generator: Adobe Illustrator 16.0.0, SVG Export Plug-In . SVG Version: 6.00 Build 0)  -->
<!DOCTYPE svg PUBLIC "-//W3C//DTD SVG 1.1//EN" "http://www.w3.org/Graphics/SVG/1.1/DTD/svg11.dtd">
<svg version="1.1" id="Layer_1" xmlns="http://www.w3.org/2000/svg" xmlns:xlink="http://www.w3.org/1999/xlink" x="0px" y="0px"
	 width="289px" height="86px" viewBox="0 0 289 86" enable-background="new 0 0 289 86" xml:space="preserve">
<g id="background">
	<rect display="none" width="289" height="86"/>
</g>
<g id="Reflection">
	<defs>
		<filter id="Adobe_OpacityMaskFilter" filterUnits="userSpaceOnUse" x="-10" y="41.996" width="309" height="55.004">
			<feColorMatrix  type="matrix" values="1 0 0 0 0  0 1 0 0 0  0 0 1 0 0  0 0 0 1 0"/>
		</filter>
	</defs>
	<mask maskUnits="userSpaceOnUse" x="-10" y="41.996" width="309" height="55.004" id="SVGID_2_">
		<g filter="url(#Adobe_OpacityMaskFilter)">
			
				<linearGradient id="SVGID_1_" gradientUnits="userSpaceOnUse" x1="245.3994" y1="-19.6001" x2="245.3994" y2="-67.6001" gradientTransform="matrix(1 0 0 -1 -100.8999 29.4004)">
				<stop  offset="0" style="stop-color:#FFFFFF"/>
				<stop  offset="0.1038" style="stop-color:#BDBDBD"/>
				<stop  offset="0.219" style="stop-color:#7A7A7A"/>
				<stop  offset="0.3236" style="stop-color:#464646"/>
				<stop  offset="0.4137" style="stop-color:#202020"/>
				<stop  offset="0.4859" style="stop-color:#090909"/>
				<stop  offset="0.5311" style="stop-color:#000000"/>
			</linearGradient>
			<polygon fill="url(#SVGID_1_)" points="-10,97 299,97 299,49 279.938,49 275,52 269.167,51.917 267.625,49 -10,49 			"/>
		</g>
	</mask>
	<g opacity="0.31" mask="url(#SVGID_2_)" enable-background="new    ">
		<g>
			<defs>
				<polygon id="SVGID_3_" points="-10,97 299,97 299,49 279.938,49 275,52 269.167,51.917 267.625,49 -10,49 				"/>
			</defs>
			<clipPath id="SVGID_4_">
				<use xlink:href="#SVGID_3_"  overflow="visible"/>
			</clipPath>
			<path clip-path="url(#SVGID_4_)" fill="#FFFFFF" d="M16.607,50.254L0.666,66.666l15.941,16.423v-11.28h13.165V61.415H16.607
				V50.254L16.607,50.254z M52.698,50.303H17.202v10.274h13.55c0,4.055,0,8.122,0,12.178H17.365v10.334c58.177,0-1.563,0,35.333,0
				V72.755H39.905V60.577h12.793C52.698,57.061,52.698,53.113,52.698,50.303L52.698,50.303z M53.514,83.027V71.809H40.886V61.415
				h12.628V50.254l15.895,16.412L53.514,83.027L53.514,83.027z"/>
		</g>
		<g>
			<defs>
				<polygon id="SVGID_5_" points="-10,97 299,97 299,49 279.938,49 275,52 269.167,51.917 267.625,49 -10,49 				"/>
			</defs>
			<clipPath id="SVGID_6_">
				<use xlink:href="#SVGID_5_"  overflow="visible"/>
			</clipPath>
			<path clip-path="url(#SVGID_6_)" fill="#FFFFFF" d="M93.647,51.048h-4.412v32.328h4.412V51.048L93.647,51.048z M217.889,51.048
				h-4.016l-7.817,10.263h-9.853l1.67-10.263h-4.018l-5.095,32.572h4.02L217.889,51.048L217.889,51.048z M195.834,64.546h7.803
				l-10.221,13.336h-0.08L195.834,64.546L195.834,64.546z M101.841,72.223v-2.664c1.656,1.857,3.941,2.987,6.226,2.987
				c2.442,0,4.648-1.13,5.752-3.231c1.023-1.453,1.182-3.151,1.182-6.144V50.885h-4.019v12.203c0,4.283-1.261,5.982-4.335,5.982
				c-1.89,0-3.464-0.891-4.806-2.908V50.885h-4.333v21.338H101.841L101.841,72.223z M125.167,72.223h6.619v-3.801h-6.619v-9.211
				v-1.129c0.078-2.672,1.102-3.723,3.071-3.723c1.338,0,2.916,0.402,4.65,1.617v-3.961c-1.498-0.892-3.784-1.457-5.281-1.457
				c-2.838,0-5.277,1.457-6.065,3.883c-0.396,1.295-0.396,1.856-0.396,4.522v9.457h-3.625v0.567l7.646,7.679V72.223L125.167,72.223z
				 M152.742,53.066c-2.754-1.775-4.963-2.508-8.192-2.508c-2.996,0-5.124,0.811-7.17,3.074c-1.97,2.104-3.075,4.85-3.075,8.081
				c0,6.466,3.939,10.91,9.771,10.91c5.516,0,9.142-4.203,9.142-10.91v-0.403h-14.734c0.395-4.121,2.916-6.787,6.775-6.787
				c2.759,0,5.201,0.888,7.483,2.666V53.066L152.742,53.066z M149.042,63.736c-0.315,3.477-2.128,5.254-4.966,5.254
				c-3.073,0-4.885-1.777-5.593-5.254H149.042L149.042,63.736z M161.411,72.223v-4.852h0.08l0.313,0.404
				c2.049,3.561,3.939,4.771,5.91,4.771c1.497,0,3.072-0.81,4.729-2.345l-2.051-3.717c-1.336,1.377-2.912,2.018-4.02,2.018
				c-2.598,0-4.963-2.826-4.963-6.302V50.885h-4.018v21.338H161.411L161.411,72.223z M185.13,59.211h-11.032v4.443h11.032V59.211
				L185.13,59.211z M224.395,68.99l-0.364,0.08c-1.4,0.244-2.106,0.244-2.738,0.244c-5.439,0-7.293-3.881-4.259-9.137
				c2.193-3.798,5.799-6.222,9.421-6.222c1.971,0,3.22,0.565,4.335,2.183l1.828-4.123c-1.271-1.211-2.691-1.613-4.818-1.613
				c-5.595,0-11.364,3.714-14.863,9.775c-4.387,7.598-1.701,12.771,6.412,12.771c1.342,0,1.895,0,3.465-0.403L224.395,68.99
				L224.395,68.99z M236.781,69.234h-4.1l3.424-8.246l0.273-0.891l0.778-1.615l0.621-1.619c0.153-0.401,0.339-0.725,0.571-1.127
				c0.701-1.213,1.734-1.779,3.152-1.779c1.342,0,2.324,0.484,3.119,1.29l1.844-3.878c-1.233-0.727-2.199-0.967-3.539-0.967
				c-3.466,0-6.744,1.854-8.471,4.845c-0.283,0.489-0.361,0.894-0.561,1.375l-0.709,1.776l-0.438,0.893l-0.445,1.051l-3.639,8.893
				h-3.544l-1.335,2.988h3.941l-1.779,4.445h3.783l1.859-4.445h3.938L236.781,69.234L236.781,69.234z M252.245,51.048h-4.021
				l-9.276,21.255h3.78L252.245,51.048L252.245,51.048z M239.126,76.909c-1.259,0-2.72,0.888-3.469,2.185
				c-0.746,1.293-0.594,2.26,0.902,2.26c1.104,0,2.689-0.967,3.483-2.342C240.744,77.797,240.229,76.909,239.126,76.909
				L239.126,76.909z M270.64,52.902c-1.278-1.611-3.051-2.5-5.493-2.5c-5.203,0-11.158,4.039-14.657,10.1
				c-4.015,6.952-2.933,12.447,2.584,12.447c4.491,0,9.664-3.635,12.653-8.813c0.466-0.807,0.746-1.293,0.879-1.938h-13.076
				l0.326-0.565c0.373-0.646,0.654-1.133,0.887-1.536c2.146-3.718,5.97-6.384,8.884-6.384c1.974,0,3.731,1.048,5.275,3.147
				L270.64,52.902L270.64,52.902z M261.441,64.867l-0.186,0.322c-1.543,2.672-4.111,4.526-6.314,4.526
				c-2.365,0-2.975-1.536-2.084-4.85L261.441,64.867L261.441,64.867z M276.541,68.745h-4.338l12.215-26.749h-3.779l-12.293,26.749
				h-3.15l-1.611,3.478h3.383c-1.905,3.719-2.318,5.659-2.301,7.676c0.41,2.429,2.406,3.884,5.559,3.884
				c1.494,0,3.023-0.325,5.648-1.054l1.658-3.961c-1.761,0.729-3.621,1.217-4.957,1.217c-3.625,0-4.275-2.83-1.904-7.762h4.258
				L276.541,68.745L276.541,68.745z"/>
		</g>
	</g>
</g>
<g id="Text">
	<path fill="#FFFFFF" d="M16.607,47.648l-15.941-16l15.941-16.011v10.997h13.165v10.133H16.607V47.648L16.607,47.648z
		 M52.698,47.604H17.202V37.585h13.55c0-3.953,0-7.917,0-11.872H17.365V15.639c58.177,0-1.563,0,35.333,0v10.075H39.905v11.872
		h12.793C52.698,41.014,52.698,44.861,52.698,47.604L52.698,47.604z M7.592,39.685c-0.839,3.229-2.005,5.563-2.005,9.025
		c0,6.916,5.038,10.343,11.754,10.343c9.038,0,20.78-4.967,28.547-10.728h2.566C39.719,55.32,27.475,61.221,16.63,61.221
		c-7.708,0-13.293-4.535-12.699-12.512c0.222-2.868,0.805-7.265,2.647-9.666C7.01,38.495,7.721,39.183,7.592,39.685L7.592,39.685z
		 M55.113,7.185c-0.712-0.77-0.072-2.029,0.816-2.238c6.81,1.247,10.075,5.959,10.075,12.664c0,2.134-0.419,5.304-1.575,7.067
		c-0.874,0.536-1.061,0.057-0.85-0.817c0.676-2.041,0.897-3.732,0.897-5.878C64.476,12.759,60.64,7.522,55.113,7.185L55.113,7.185z
		 M49.923,4.946c-6.797,0-18.855,5.352-23.661,10.156h2.647c3.895-3.16,14.191-7.918,20.22-7.918
		C49.76,6.823,50.983,5.506,49.923,4.946L49.923,4.946z M53.514,15.698v10.938H40.886v10.133h12.628V47.65l15.895-16L53.514,15.698
		L53.514,15.698z"/>
	<path fill="#FFFFFF" d="M93.647,46.875h-4.412V15.359h4.412V46.875L93.647,46.875z M217.717,46.875h-4.016l-7.668-10.004h-9.853
		l1.521,10.004h-4.018l-4.623-31.753h4.021L217.717,46.875L217.717,46.875z M195.857,33.716h7.803l-10.027-13.001h-0.078
		L195.857,33.716L195.857,33.716z M101.841,26.231v2.599c1.656-1.812,3.941-2.914,6.226-2.914c2.442,0,4.648,1.102,5.752,3.15
		c1.023,1.417,1.182,3.073,1.182,5.989v11.978h-4.019V35.138c0-4.176-1.261-5.833-4.335-5.833c-1.89,0-3.464,0.868-4.806,2.836
		v14.894h-4.333V26.231H101.841L101.841,26.231z M125.167,26.231h6.619v3.706h-6.619v8.979v1.102
		c0.078,2.604,1.102,3.628,3.071,3.628c1.338,0,2.916-0.394,4.65-1.578v3.863c-1.498,0.866-3.784,1.418-5.281,1.418
		c-2.838,0-5.277-1.418-6.065-3.785c-0.396-1.261-0.396-1.811-0.396-4.41v-9.219h-3.625v-0.555l7.646-7.484V26.231L125.167,26.231z
		 M152.742,44.907c-2.754,1.731-4.963,2.444-8.192,2.444c-2.996,0-5.124-0.791-7.17-2.998c-1.97-2.049-3.075-4.727-3.075-7.877
		c0-6.303,3.939-10.636,9.771-10.636c5.516,0,9.142,4.097,9.142,10.636v0.395h-14.734c0.395,4.018,2.916,6.616,6.775,6.616
		c2.759,0,5.201-0.864,7.483-2.599V44.907L152.742,44.907z M149.042,34.505c-0.315-3.388-2.128-5.123-4.966-5.123
		c-3.073,0-4.885,1.734-5.593,5.123H149.042L149.042,34.505z M161.411,26.231v4.73h0.08l0.313-0.395
		c2.049-3.47,3.939-4.65,5.91-4.65c1.497,0,3.072,0.789,4.729,2.286l-2.051,3.624c-1.336-1.342-2.912-1.967-4.02-1.967
		c-2.598,0-4.963,2.755-4.963,6.144v11.031h-4.018V26.231H161.411L161.411,26.231z M185.13,38.917h-11.032v-4.331h11.032V38.917
		L185.13,38.917z M224.481,29.382l-0.362-0.078c-1.396-0.237-2.103-0.237-2.734-0.237c-5.439,0-7.348,3.784-4.391,8.906
		c2.137,3.703,5.707,6.065,9.329,6.065c1.971,0,3.228-0.552,4.368-2.127l1.768,4.021c-1.288,1.18-2.715,1.572-4.842,1.572
		c-5.595,0-11.311-3.621-14.723-9.531c-4.275-7.407-1.515-12.45,6.599-12.45c1.342,0,1.895,0,3.459,0.393L224.481,29.382
		L224.481,29.382z M236.874,29.146h-4.1l3.305,8.04l0.26,0.867l0.755,1.576l0.599,1.579c0.146,0.391,0.329,0.706,0.555,1.098
		c0.683,1.183,1.709,1.735,3.127,1.735c1.342,0,2.331-0.473,3.138-1.258l1.787,3.779c-1.244,0.709-2.213,0.943-3.553,0.943
		c-3.467,0-6.719-1.809-8.402-4.724c-0.275-0.477-0.347-0.87-0.539-1.34l-0.686-1.733l-0.424-0.87l-0.429-1.024l-3.51-8.669h-3.544
		l-1.292-2.914h3.94l-1.715-4.333h3.783l1.795,4.333h3.938L236.874,29.146L236.874,29.146z M252.074,46.875h-4.021l-8.968-20.721
		h3.78L252.074,46.875L252.074,46.875z M239.33,21.664c-1.26,0-2.708-0.867-3.438-2.13c-0.729-1.261-0.561-2.203,0.936-2.203
		c1.104,0,2.674,0.942,3.449,2.284C240.96,20.797,240.434,21.664,239.33,21.664L239.33,21.664z M270.494,45.066
		c-1.301,1.572-3.087,2.438-5.529,2.438c-5.203,0-11.1-3.938-14.51-9.846c-3.914-6.778-2.753-12.135,2.764-12.135
		c4.491,0,9.611,3.543,12.525,8.591c0.453,0.786,0.728,1.26,0.851,1.888h-13.077l0.318,0.551c0.364,0.631,0.637,1.104,0.865,1.498
		c2.092,3.625,5.877,6.225,8.791,6.225c1.975,0,3.746-1.021,5.321-3.069L270.494,45.066L270.494,45.066z M261.471,33.403
		l-0.182-0.315c-1.504-2.604-4.047-4.413-6.25-4.413c-2.365,0-2.996,1.498-2.153,4.729L261.471,33.403L261.471,33.403z
		 M276.627,29.622h-4.34L284.113,55.7h-3.777l-11.908-26.078h-3.148l-1.563-3.391h3.385c-1.854-3.625-2.238-5.517-2.189-7.482
		c0.445-2.367,2.461-3.787,5.613-3.787c1.493,0,3.021,0.318,5.634,1.027l1.601,3.862c-1.748-0.71-3.603-1.185-4.937-1.185
		c-3.625,0-4.319,2.757-2.02,7.564h4.256L276.627,29.622L276.627,29.622z"/>
</g>
<g id="Label">
	<g id="Beta" display="none">
		<g id="Badge_3_-_Orange" display="inline">
			<g>
				
					<radialGradient id="SVGID_7_" cx="349.6641" cy="0.6968" r="42.6322" gradientTransform="matrix(1 0 0 -1 -100.8999 29.4004)" gradientUnits="userSpaceOnUse">
					<stop  offset="0" style="stop-color:#FFDE40"/>
					<stop  offset="1" style="stop-color:#F6921E"/>
				</radialGradient>
				<path fill="url(#SVGID_7_)" d="M261.328,84.861c-1.104,0-2.085-1.221-3.035-2.399c-0.863-1.073-1.682-2.087-2.63-2.341
					c-0.187-0.051-0.394-0.075-0.613-0.075c-0.886,0-1.937,0.404-2.954,0.796c-0.982,0.379-2,0.77-2.818,0.77
					c-0.352,0-0.643-0.069-0.891-0.213c-0.924-0.535-1.162-2.063-1.393-3.539c-0.206-1.321-0.42-2.688-1.135-3.403
					c-0.717-0.718-2.084-0.931-3.407-1.138c-1.476-0.229-3.002-0.467-3.535-1.391c-0.522-0.902,0.024-2.33,0.556-3.709
					c0.485-1.263,0.987-2.568,0.721-3.566c-0.254-0.951-1.269-1.769-2.342-2.633c-1.18-0.949-2.397-1.933-2.397-3.033
					c0-1.1,1.219-2.082,2.397-3.031c1.073-0.865,2.088-1.682,2.342-2.633c0.268-1-0.234-2.305-0.721-3.567
					c-0.529-1.379-1.078-2.806-0.556-3.709c0.533-0.923,2.06-1.161,3.535-1.392c1.323-0.207,2.69-0.42,3.407-1.135
					c0.717-0.716,0.93-2.084,1.137-3.408c0.229-1.476,0.468-3.001,1.391-3.536c0.248-0.144,0.539-0.213,0.891-0.213
					c0.818,0,1.836,0.391,2.818,0.769c1.018,0.391,2.068,0.795,2.954,0.795c0.222,0,0.427-0.025,0.613-0.075
					c0.95-0.254,1.769-1.268,2.633-2.342c0.949-1.179,1.933-2.398,3.032-2.398s2.083,1.219,3.031,2.398
					c0.865,1.074,1.683,2.088,2.634,2.342c0.187,0.05,0.394,0.075,0.612,0.075c0.887,0,1.938-0.404,2.955-0.795
					c0.983-0.378,2-0.769,2.818-0.769c0.352,0,0.643,0.069,0.891,0.212c0.922,0.534,1.16,2.061,1.391,3.536
					c0.207,1.323,0.42,2.692,1.137,3.407c0.715,0.715,2.082,0.93,3.404,1.137c1.477,0.229,3.003,0.469,3.535,1.393
					c0.523,0.903-0.023,2.329-0.555,3.708c-0.484,1.263-0.986,2.567-0.72,3.565c0.254,0.951,1.269,1.769,2.341,2.634
					c1.18,0.948,2.397,1.933,2.397,3.032c0,1.102-1.22,2.082-2.397,3.033c-1.074,0.863-2.088,1.681-2.343,2.631
					c-0.267,0.998,0.235,2.305,0.722,3.565c0.529,1.38,1.078,2.808,0.555,3.712c-0.532,0.922-2.059,1.16-3.534,1.391
					c-1.323,0.207-2.69,0.42-3.407,1.136c-0.715,0.716-0.929,2.083-1.135,3.405c-0.23,1.477-0.469,3.002-1.393,3.537
					c-0.248,0.145-0.539,0.213-0.892,0.213c-0.817,0-1.835-0.391-2.817-0.769c-1.018-0.392-2.068-0.796-2.953-0.796
					c-0.222,0-0.428,0.025-0.612,0.075c-0.951,0.254-1.769,1.269-2.634,2.342C263.411,83.643,262.43,84.861,261.328,84.861z"/>
				<g>
					<path fill="#E26926" d="M261.328,33.236c1.041,0,2.004,1.195,2.936,2.352c0.877,1.09,1.707,2.12,2.697,2.384
						c0.197,0.053,0.414,0.079,0.646,0.079c0.908,0,1.972-0.408,2.998-0.803c0.974-0.374,1.979-0.76,2.775-0.761
						c0.328,0,0.598,0.064,0.826,0.196c0.871,0.505,1.104,2,1.33,3.447c0.209,1.343,0.426,2.732,1.171,3.476
						c0.743,0.746,2.132,0.963,3.474,1.172c1.447,0.227,2.943,0.459,3.447,1.332c0.494,0.852-0.043,2.25-0.563,3.602
						c-0.492,1.28-1.002,2.604-0.726,3.643c0.267,0.99,1.295,1.82,2.384,2.697c1.155,0.932,2.352,1.895,2.352,2.936
						s-1.195,2.005-2.352,2.937c-1.091,0.878-2.119,1.707-2.386,2.697c-0.274,1.037,0.231,2.36,0.726,3.644
						c0.521,1.353,1.059,2.752,0.563,3.604c-0.504,0.871-1.999,1.104-3.444,1.33c-1.345,0.209-2.732,0.426-3.479,1.171
						c-0.743,0.743-0.96,2.132-1.169,3.474c-0.228,1.447-0.459,2.944-1.332,3.449c-0.229,0.133-0.499,0.197-0.828,0.197
						c-0.795,0-1.802-0.387-2.774-0.762c-1.025-0.396-2.088-0.804-2.996-0.804c-0.23,0-0.449,0.024-0.646,0.078
						c-0.989,0.267-1.819,1.295-2.696,2.386c-0.933,1.155-1.896,2.352-2.937,2.352c-1.043,0-2.007-1.196-2.938-2.354
						c-0.877-1.089-1.705-2.116-2.695-2.383c-0.196-0.052-0.414-0.078-0.645-0.078c-0.91,0-1.973,0.408-3,0.804
						c-0.973,0.375-1.979,0.762-2.773,0.762c-0.328,0-0.6-0.064-0.828-0.197c-0.872-0.505-1.104-2.002-1.332-3.449
						c-0.209-1.342-0.426-2.729-1.168-3.474c-0.745-0.745-2.135-0.962-3.479-1.171c-1.445-0.227-2.941-0.459-3.445-1.33
						c-0.494-0.852,0.045-2.25,0.564-3.602c0.492-1.281,1.002-2.606,0.725-3.646c-0.266-0.99-1.295-1.82-2.385-2.697
						c-1.156-0.932-2.352-1.896-2.352-2.937s1.195-2.004,2.352-2.936c1.09-0.877,2.119-1.707,2.385-2.697
						c0.277-1.037-0.231-2.362-0.725-3.645c-0.521-1.352-1.059-2.75-0.564-3.602c0.504-0.871,2-1.104,3.445-1.33
						c1.344-0.209,2.732-0.426,3.479-1.172c0.744-0.745,0.962-2.132,1.171-3.477c0.228-1.446,0.459-2.942,1.329-3.447
						c0.229-0.132,0.5-0.196,0.828-0.196c0.795,0,1.802,0.387,2.773,0.761c1.027,0.395,2.09,0.804,3,0.804
						c0.23,0,0.447-0.027,0.645-0.079c0.99-0.265,1.82-1.294,2.697-2.384C259.324,34.432,260.287,33.236,261.328,33.236
						 M261.328,32.986c-2.148,0-3.715,4.215-5.697,4.744c-0.184,0.049-0.377,0.071-0.58,0.071c-1.719,0-4.083-1.564-5.773-1.564
						c-0.35,0-0.672,0.067-0.952,0.23c-1.82,1.055-1.074,5.484-2.554,6.963c-1.479,1.479-5.91,0.732-6.963,2.552
						c-1.039,1.795,1.813,5.256,1.265,7.308c-0.529,1.981-4.744,3.549-4.744,5.696c0,2.148,4.215,3.716,4.744,5.697
						c0.549,2.051-2.304,5.512-1.265,7.308c1.053,1.819,5.484,1.073,6.963,2.553c1.478,1.479,0.73,5.908,2.554,6.963
						c0.28,0.162,0.603,0.229,0.952,0.229c1.69,0,4.056-1.563,5.773-1.563c0.203,0,0.396,0.021,0.58,0.07
						c1.98,0.528,3.547,4.743,5.697,4.743c2.148,0,3.715-4.215,5.697-4.743c0.184-0.05,0.377-0.07,0.58-0.07
						c1.717,0,4.08,1.563,5.771,1.563c0.351,0,0.672-0.067,0.953-0.229c1.821-1.055,1.075-5.483,2.553-6.963
						c1.479-1.479,5.91-0.731,6.964-2.553c1.038-1.796-1.812-5.257-1.265-7.308c0.53-1.981,4.744-3.549,4.744-5.697
						c0-2.147-4.214-3.715-4.742-5.696c-0.549-2.052,2.301-5.511,1.263-7.306c-1.054-1.821-5.484-1.075-6.962-2.554
						c-1.479-1.477-0.731-5.908-2.553-6.963c-0.281-0.162-0.603-0.229-0.952-0.229c-1.689,0-4.057,1.564-5.773,1.564
						c-0.203,0-0.396-0.022-0.58-0.071C265.043,37.201,263.477,32.986,261.328,32.986L261.328,32.986z"/>
				</g>
			</g>
			<g opacity="0.8">
				<g>
					
						<linearGradient id="SVGID_8_" gradientUnits="userSpaceOnUse" x1="336.7285" y1="-17.4209" x2="375.6152" y2="-17.4209" gradientTransform="matrix(1 0 0 -1 -100.8999 29.4004)">
						<stop  offset="0" style="stop-color:#FFFFFF"/>
						<stop  offset="1" style="stop-color:#000000"/>
					</linearGradient>
					<path fill="url(#SVGID_8_)" d="M236.225,59.604c0-0.922,1.148-1.848,2.26-2.742c1.072-0.862,2.182-1.758,2.469-2.827
						c0.298-1.115-0.225-2.479-0.732-3.8c-0.498-1.295-1.015-2.637-0.58-3.387c0.441-0.768,1.879-0.99,3.267-1.207
						c1.382-0.217,2.813-0.438,3.614-1.24c0.803-0.801,1.027-2.229,1.242-3.612c0.219-1.389,0.44-2.824,1.209-3.27
						c0.189-0.111,0.42-0.164,0.703-0.164c0.745,0,1.727,0.375,2.674,0.74c1.065,0.41,2.146,0.824,3.103,0.824
						c0.252,0,0.487-0.029,0.706-0.086c1.07-0.287,1.964-1.396,2.828-2.473c0.895-1.109,1.818-2.258,2.74-2.258
						c0.92,0,1.848,1.148,2.74,2.262c0.864,1.072,1.76,2.182,2.827,2.469c0.216,0.057,0.454,0.086,0.706,0.086
						c0.956,0,2.036-0.414,3.079-0.816c0.965-0.371,1.948-0.746,2.694-0.746c0.285,0,0.515,0.053,0.705,0.162
						c0.086,0.051,0.164,0.117,0.237,0.191c-0.159-0.361-0.362-0.648-0.635-0.807c-0.19-0.111-0.42-0.164-0.704-0.164
						c-0.747,0-1.73,0.377-2.695,0.748c-1.043,0.4-2.123,0.816-3.078,0.816c-0.252,0-0.49-0.029-0.707-0.088
						c-1.067-0.285-1.963-1.396-2.826-2.469c-0.895-1.111-1.82-2.26-2.741-2.26c-0.923,0-1.847,1.148-2.74,2.258
						c-0.864,1.074-1.758,2.186-2.827,2.471c-0.219,0.059-0.455,0.088-0.707,0.088c-0.955,0-2.035-0.416-3.103-0.826
						c-0.946-0.363-1.929-0.74-2.673-0.74c-0.284,0-0.514,0.053-0.704,0.166c-0.769,0.443-0.99,1.879-1.208,3.268
						c-0.215,1.383-0.439,2.811-1.242,3.613c-0.803,0.802-2.232,1.025-3.615,1.24c-1.387,0.219-2.824,0.44-3.267,1.209
						c-0.435,0.75,0.082,2.09,0.579,3.387c0.51,1.32,1.031,2.684,0.734,3.797c-0.287,1.072-1.396,1.965-2.47,2.83
						c-1.11,0.895-2.259,1.82-2.259,2.742c0,0.391,0.214,0.781,0.535,1.17C236.281,59.975,236.225,59.789,236.225,59.604z"/>
				</g>
				<g>
					
						<linearGradient id="SVGID_9_" gradientUnits="userSpaceOnUse" x1="383.5762" y1="-27.0596" x2="387.5879" y2="-27.0596" gradientTransform="matrix(1 0 0 -1 -100.8999 29.4004)">
						<stop  offset="0" style="stop-color:#FFFFFF"/>
						<stop  offset="1" style="stop-color:#000000"/>
					</linearGradient>
					<path fill="url(#SVGID_9_)" d="M282.676,54.488c0.434,0.873,1.373,1.635,2.29,2.373c0.64,0.516,1.283,1.041,1.722,1.57
						c-0.33-0.736-1.23-1.472-2.117-2.187C283.874,55.686,283.168,55.113,282.676,54.488z"/>
				</g>
				<g>
					
						<linearGradient id="SVGID_10_" gradientUnits="userSpaceOnUse" x1="377.293" y1="-15.6768" x2="384.4297" y2="-15.6768" gradientTransform="matrix(1 0 0 -1 -100.8999 29.4004)">
						<stop  offset="0" style="stop-color:#FFFFFF"/>
						<stop  offset="1" style="stop-color:#000000"/>
					</linearGradient>
					<path fill="url(#SVGID_10_)" d="M276.93,44.4c0.799,0.803,2.229,1.022,3.609,1.24c1.175,0.184,2.378,0.377,2.99,0.896
						c-0.026-0.108-0.064-0.211-0.118-0.304c-0.442-0.768-1.88-0.991-3.269-1.211c-1.381-0.215-2.812-0.438-3.611-1.239
						c-0.051-0.052-0.092-0.109-0.139-0.164C276.538,43.916,276.711,44.182,276.93,44.4z"/>
				</g>
				<g>
					
						<linearGradient id="SVGID_11_" gradientUnits="userSpaceOnUse" x1="339.9795" y1="-38.6807" x2="341.9395" y2="-38.6807" gradientTransform="matrix(1 0 0 -1 -100.8999 29.4004)">
						<stop  offset="0" style="stop-color:#FFFFFF"/>
						<stop  offset="1" style="stop-color:#000000"/>
					</linearGradient>
					<path fill="url(#SVGID_11_)" d="M240.219,68.971c0.51-1.32,1.031-2.684,0.733-3.801c-0.101-0.375-0.308-0.727-0.572-1.064
						c0.072,0.146,0.136,0.295,0.177,0.449c0.297,1.115-0.226,2.48-0.734,3.801c-0.497,1.295-1.014,2.636-0.579,3.386
						c0.067,0.118,0.167,0.221,0.278,0.315C239.332,71.279,239.781,70.107,240.219,68.971z"/>
				</g>
				<g>
					
						<linearGradient id="SVGID_12_" gradientUnits="userSpaceOnUse" x1="347.5586" y1="-48.5273" x2="349.2363" y2="-48.5273" gradientTransform="matrix(1 0 0 -1 -100.8999 29.4004)">
						<stop  offset="0" style="stop-color:#FFFFFF"/>
						<stop  offset="1" style="stop-color:#000000"/>
					</linearGradient>
					<path fill="url(#SVGID_12_)" d="M247.762,78.418c-0.203-1.295-0.416-2.623-1.103-3.445c0.385,0.795,0.548,1.822,0.704,2.83
						c0.193,1.232,0.395,2.498,0.974,3.08C248.047,80.227,247.9,79.314,247.762,78.418z"/>
				</g>
			</g>
		</g>
		
			<text transform="matrix(0.9529 -0.3034 0.3034 0.9529 244.2529 69.626)" display="inline" fill="#FFFFFF" font-family="'MyriadPro-Bold'" font-size="16.9772">Beta!</text>
	</g>
	<g id="Production" display="none">
		<g id="Badge_3_-_Green" display="inline">
			<g>
				
					<radialGradient id="SVGID_13_" cx="349.6699" cy="0.6816" r="42.6321" gradientTransform="matrix(1 0 0 -1 -100.8999 29.4004)" gradientUnits="userSpaceOnUse">
					<stop  offset="0" style="stop-color:#ECEB7B"/>
					<stop  offset="1" style="stop-color:#8BC53F"/>
				</radialGradient>
				<path fill="url(#SVGID_13_)" d="M261.334,84.875c-1.104,0-2.085-1.221-3.035-2.398c-0.863-1.074-1.681-2.088-2.63-2.342
					c-0.187-0.05-0.394-0.074-0.612-0.074c-0.887,0-1.938,0.403-2.955,0.795c-0.982,0.379-2,0.77-2.817,0.77
					c-0.353,0-0.644-0.068-0.892-0.213c-0.924-0.535-1.162-2.063-1.393-3.538c-0.206-1.321-0.42-2.688-1.134-3.403
					c-0.718-0.718-2.085-0.931-3.408-1.138c-1.476-0.229-3.002-0.468-3.535-1.392c-0.522-0.902,0.024-2.33,0.556-3.709
					c0.485-1.262,0.987-2.567,0.722-3.566c-0.255-0.951-1.269-1.768-2.343-2.633c-1.18-0.949-2.397-1.932-2.397-3.032
					s1.22-2.083,2.397-3.032c1.074-0.865,2.088-1.682,2.343-2.633c0.267-0.999-0.235-2.305-0.722-3.566
					c-0.529-1.379-1.078-2.807-0.556-3.709c0.533-0.924,2.06-1.162,3.535-1.392c1.323-0.207,2.69-0.42,3.407-1.136
					c0.717-0.716,0.93-2.084,1.137-3.407c0.229-1.476,0.469-3.001,1.391-3.536c0.248-0.144,0.539-0.213,0.892-0.213
					c0.817,0,1.835,0.391,2.817,0.769c1.019,0.391,2.068,0.795,2.955,0.795c0.221,0,0.426-0.025,0.612-0.075
					c0.951-0.254,1.769-1.268,2.634-2.342c0.948-1.179,1.932-2.398,3.031-2.398s2.083,1.219,3.032,2.398
					c0.864,1.074,1.682,2.088,2.633,2.342c0.187,0.05,0.394,0.075,0.612,0.075c0.887,0,1.938-0.404,2.955-0.795
					c0.983-0.378,2-0.769,2.818-0.769c0.352,0,0.643,0.069,0.891,0.212c0.923,0.534,1.16,2.061,1.391,3.536
					c0.207,1.323,0.42,2.692,1.137,3.406c0.715,0.716,2.082,0.93,3.404,1.137c1.477,0.23,3.003,0.469,3.536,1.393
					c0.522,0.903-0.024,2.33-0.556,3.709c-0.484,1.262-0.985,2.566-0.719,3.565c0.254,0.951,1.268,1.769,2.34,2.633
					c1.18,0.949,2.397,1.933,2.397,3.032c0,1.102-1.22,2.083-2.397,3.033c-1.074,0.863-2.088,1.681-2.343,2.632
					c-0.266,0.998,0.235,2.304,0.722,3.565c0.529,1.379,1.078,2.808,0.556,3.711c-0.533,0.922-2.06,1.16-3.535,1.391
					c-1.323,0.207-2.69,0.42-3.407,1.136c-0.715,0.716-0.929,2.083-1.135,3.405c-0.23,1.477-0.469,3.003-1.393,3.538
					c-0.248,0.144-0.539,0.213-0.892,0.213c-0.817,0-1.835-0.392-2.817-0.769c-1.018-0.393-2.068-0.797-2.953-0.797
					c-0.221,0-0.428,0.025-0.612,0.075c-0.951,0.255-1.769,1.269-2.633,2.343C263.417,83.656,262.436,84.875,261.334,84.875z"/>
				<g>
					<path fill="#608D2B" d="M261.334,33.25c1.041,0,2.004,1.195,2.936,2.352c0.877,1.09,1.707,2.12,2.697,2.384
						c0.197,0.053,0.414,0.079,0.646,0.079c0.908,0,1.972-0.408,2.998-0.803c0.974-0.374,1.979-0.76,2.775-0.761
						c0.328,0,0.598,0.064,0.826,0.196c0.871,0.505,1.104,2,1.33,3.447c0.209,1.343,0.426,2.732,1.171,3.476
						c0.743,0.745,2.132,0.962,3.474,1.171c1.447,0.227,2.943,0.46,3.447,1.332c0.494,0.852-0.043,2.25-0.563,3.602
						c-0.492,1.28-1.002,2.604-0.725,3.644c0.266,0.989,1.295,1.819,2.383,2.696c1.155,0.933,2.352,1.896,2.352,2.937
						s-1.195,2.004-2.352,2.937c-1.09,0.877-2.119,1.707-2.385,2.696c-0.275,1.037,0.231,2.361,0.725,3.644
						c0.521,1.353,1.059,2.752,0.563,3.604c-0.504,0.871-1.999,1.104-3.444,1.33c-1.344,0.209-2.732,0.426-3.479,1.171
						c-0.743,0.744-0.96,2.132-1.169,3.474c-0.228,1.447-0.459,2.944-1.332,3.449c-0.229,0.133-0.499,0.197-0.828,0.197
						c-0.795,0-1.801-0.387-2.774-0.762c-1.025-0.395-2.088-0.803-2.996-0.803c-0.23,0-0.448,0.024-0.646,0.078
						c-0.989,0.266-1.819,1.295-2.696,2.385c-0.933,1.156-1.896,2.352-2.937,2.352c-1.043,0-2.006-1.195-2.938-2.354
						c-0.877-1.09-1.705-2.117-2.694-2.383c-0.197-0.053-0.414-0.078-0.646-0.078c-0.91,0-1.973,0.408-3,0.803
						c-0.973,0.375-1.979,0.762-2.773,0.762c-0.328,0-0.6-0.064-0.827-0.197c-0.873-0.505-1.104-2.002-1.332-3.449
						c-0.209-1.342-0.427-2.729-1.169-3.474c-0.745-0.745-2.135-0.962-3.479-1.171c-1.445-0.227-2.94-0.459-3.445-1.33
						c-0.493-0.852,0.045-2.25,0.564-3.602c0.492-1.281,1.002-2.606,0.725-3.646c-0.266-0.989-1.295-1.819-2.385-2.696
						c-1.156-0.933-2.352-1.896-2.352-2.937s1.195-2.004,2.352-2.937c1.09-0.877,2.119-1.707,2.385-2.696
						c0.277-1.038-0.231-2.363-0.725-3.646c-0.521-1.352-1.059-2.75-0.564-3.602c0.505-0.871,2-1.104,3.445-1.33
						c1.344-0.209,2.732-0.426,3.479-1.171c0.744-0.745,0.962-2.133,1.171-3.477c0.228-1.446,0.459-2.942,1.33-3.447
						c0.229-0.132,0.499-0.196,0.827-0.196c0.796,0,1.802,0.387,2.773,0.761c1.027,0.395,2.09,0.804,3,0.804
						c0.23,0,0.447-0.027,0.646-0.079c0.989-0.265,1.819-1.294,2.696-2.384C259.33,34.445,260.293,33.25,261.334,33.25 M261.334,33
						c-2.148,0-3.715,4.215-5.697,4.744c-0.184,0.049-0.377,0.071-0.58,0.071c-1.719,0-4.082-1.564-5.772-1.564
						c-0.351,0-0.673,0.067-0.953,0.23c-1.819,1.055-1.074,5.484-2.554,6.963c-1.479,1.479-5.909,0.732-6.963,2.553
						c-1.039,1.795,1.813,5.256,1.265,7.308c-0.529,1.981-4.744,3.549-4.744,5.696s4.215,3.715,4.744,5.696
						c0.549,2.052-2.304,5.513-1.265,7.308c1.054,1.82,5.484,1.074,6.963,2.554c1.478,1.479,0.73,5.907,2.554,6.963
						c0.28,0.162,0.603,0.229,0.953,0.229c1.69,0,4.055-1.563,5.772-1.563c0.203,0,0.396,0.021,0.58,0.069
						c1.98,0.529,3.547,4.744,5.697,4.744c2.148,0,3.715-4.215,5.697-4.744c0.184-0.049,0.377-0.069,0.58-0.069
						c1.717,0,4.08,1.563,5.771,1.563c0.351,0,0.673-0.067,0.953-0.229c1.821-1.056,1.076-5.484,2.554-6.963
						c1.479-1.479,5.909-0.732,6.963-2.554c1.039-1.795-1.812-5.256-1.265-7.308c0.531-1.981,4.744-3.549,4.744-5.696
						s-4.213-3.715-4.742-5.696c-0.549-2.052,2.302-5.511,1.263-7.306c-1.054-1.821-5.484-1.076-6.961-2.555
						c-1.479-1.477-0.732-5.908-2.554-6.963c-0.28-0.162-0.603-0.229-0.952-0.229c-1.689,0-4.056,1.564-5.773,1.564
						c-0.203,0-0.396-0.022-0.58-0.071C265.049,37.215,263.482,33,261.334,33L261.334,33z"/>
				</g>
			</g>
			<g opacity="0.8">
				<g>
					
						<linearGradient id="SVGID_14_" gradientUnits="userSpaceOnUse" x1="336.7324" y1="-17.4341" x2="375.6211" y2="-17.4341" gradientTransform="matrix(1 0 0 -1 -100.8999 29.4004)">
						<stop  offset="0" style="stop-color:#FFFFFF"/>
						<stop  offset="1" style="stop-color:#000000"/>
					</linearGradient>
					<path fill="url(#SVGID_14_)" d="M236.23,59.617c0-0.922,1.147-1.848,2.258-2.742c1.072-0.863,2.183-1.758,2.47-2.828
						c0.298-1.115-0.226-2.479-0.733-3.799c-0.498-1.295-1.014-2.637-0.58-3.387c0.442-0.769,1.881-0.99,3.268-1.207
						c1.382-0.217,2.813-0.438,3.615-1.24c0.802-0.803,1.027-2.23,1.242-3.613c0.217-1.389,0.439-2.824,1.207-3.27
						c0.19-0.111,0.42-0.164,0.705-0.164c0.744,0,1.727,0.375,2.672,0.74c1.066,0.41,2.146,0.824,3.104,0.824
						c0.252,0,0.488-0.029,0.706-0.086c1.069-0.287,1.964-1.396,2.828-2.473c0.896-1.109,1.817-2.258,2.739-2.258
						s1.849,1.148,2.742,2.262c0.863,1.072,1.758,2.182,2.826,2.469c0.217,0.057,0.454,0.086,0.706,0.086
						c0.956,0,2.036-0.414,3.079-0.816c0.965-0.371,1.947-0.746,2.695-0.746c0.283,0,0.514,0.053,0.703,0.162
						c0.088,0.051,0.164,0.117,0.238,0.191c-0.16-0.361-0.361-0.648-0.635-0.807c-0.189-0.111-0.42-0.164-0.704-0.164
						c-0.747,0-1.729,0.377-2.694,0.748c-1.043,0.4-2.123,0.816-3.08,0.816c-0.252,0-0.489-0.029-0.705-0.088
						c-1.068-0.285-1.963-1.396-2.827-2.469c-0.894-1.111-1.82-2.26-2.741-2.26c-0.922,0-1.846,1.148-2.74,2.258
						c-0.863,1.074-1.758,2.186-2.828,2.471c-0.218,0.059-0.453,0.088-0.705,0.088c-0.957,0-2.037-0.416-3.104-0.826
						c-0.945-0.363-1.928-0.74-2.673-0.74c-0.284,0-0.515,0.053-0.704,0.166c-0.768,0.443-0.99,1.879-1.208,3.268
						c-0.215,1.383-0.438,2.811-1.242,3.613c-0.803,0.802-2.233,1.024-3.614,1.24c-1.388,0.219-2.824,0.44-3.268,1.209
						c-0.434,0.75,0.082,2.09,0.58,3.387c0.509,1.32,1.031,2.685,0.732,3.798c-0.287,1.071-1.396,1.965-2.469,2.829
						c-1.109,0.896-2.259,1.82-2.259,2.742c0,0.392,0.214,0.781,0.536,1.17C236.287,59.988,236.23,59.803,236.23,59.617z"/>
				</g>
				<g>
					
						<linearGradient id="SVGID_15_" gradientUnits="userSpaceOnUse" x1="383.582" y1="-27.0732" x2="387.5938" y2="-27.0732" gradientTransform="matrix(1 0 0 -1 -100.8999 29.4004)">
						<stop  offset="0" style="stop-color:#FFFFFF"/>
						<stop  offset="1" style="stop-color:#000000"/>
					</linearGradient>
					<path fill="url(#SVGID_15_)" d="M282.682,54.502c0.435,0.873,1.373,1.635,2.291,2.373c0.639,0.516,1.282,1.041,1.721,1.57
						c-0.33-0.736-1.23-1.471-2.117-2.187C283.88,55.699,283.174,55.127,282.682,54.502z"/>
				</g>
				<g>
					
						<linearGradient id="SVGID_16_" gradientUnits="userSpaceOnUse" x1="377.2988" y1="-15.6904" x2="384.4355" y2="-15.6904" gradientTransform="matrix(1 0 0 -1 -100.8999 29.4004)">
						<stop  offset="0" style="stop-color:#FFFFFF"/>
						<stop  offset="1" style="stop-color:#000000"/>
					</linearGradient>
					<path fill="url(#SVGID_16_)" d="M276.936,44.414c0.799,0.803,2.229,1.023,3.609,1.24c1.176,0.184,2.378,0.377,2.99,0.896
						c-0.026-0.108-0.064-0.211-0.118-0.303c-0.442-0.769-1.88-0.992-3.269-1.211c-1.381-0.216-2.812-0.438-3.61-1.24
						c-0.052-0.051-0.093-0.108-0.14-0.164C276.544,43.93,276.717,44.195,276.936,44.414z"/>
				</g>
				<g>
					
						<linearGradient id="SVGID_17_" gradientUnits="userSpaceOnUse" x1="339.9854" y1="-38.6943" x2="341.9453" y2="-38.6943" gradientTransform="matrix(1 0 0 -1 -100.8999 29.4004)">
						<stop  offset="0" style="stop-color:#FFFFFF"/>
						<stop  offset="1" style="stop-color:#000000"/>
					</linearGradient>
					<path fill="url(#SVGID_17_)" d="M240.225,68.984c0.51-1.32,1.031-2.685,0.733-3.801c-0.101-0.375-0.308-0.728-0.571-1.064
						c0.071,0.146,0.135,0.295,0.176,0.449c0.297,1.115-0.226,2.479-0.733,3.801c-0.498,1.295-1.015,2.635-0.58,3.385
						c0.067,0.119,0.167,0.221,0.278,0.316C239.338,71.293,239.787,70.121,240.225,68.984z"/>
				</g>
				<g>
					
						<linearGradient id="SVGID_18_" gradientUnits="userSpaceOnUse" x1="347.5645" y1="-48.541" x2="349.2422" y2="-48.541" gradientTransform="matrix(1 0 0 -1 -100.8999 29.4004)">
						<stop  offset="0" style="stop-color:#FFFFFF"/>
						<stop  offset="1" style="stop-color:#000000"/>
					</linearGradient>
					<path fill="url(#SVGID_18_)" d="M247.768,78.432c-0.203-1.295-0.416-2.623-1.103-3.445c0.385,0.795,0.548,1.822,0.705,2.83
						c0.192,1.232,0.394,2.498,0.973,3.08C248.053,80.24,247.907,79.328,247.768,78.432z"/>
				</g>
			</g>
		</g>
		
			<text transform="matrix(0.9529 -0.3034 0.3034 0.9529 251.1836 58.6445)" display="inline" fill="#FFFFFF" font-family="'MyriadPro-Bold'" font-size="11.3955">Pro-</text>
		
			<text transform="matrix(0.9529 -0.3034 0.3034 0.9529 246.7871 74.3945)" display="inline" fill="#FFFFFF" font-family="'MyriadPro-Bold'" font-size="11.3955">duction</text>
	</g>
	<g id="Staging" display="none">
		<g id="Badge_3_-_Blue" display="inline">
			<g>
				
					<radialGradient id="SVGID_19_" cx="349.6699" cy="0.6816" r="42.6321" gradientTransform="matrix(1 0 0 -1 -100.8999 29.4004)" gradientUnits="userSpaceOnUse">
					<stop  offset="0" style="stop-color:#D1EDFB"/>
					<stop  offset="1" style="stop-color:#3DA3DB"/>
				</radialGradient>
				<path fill="url(#SVGID_19_)" d="M261.334,84.875c-1.104,0-2.085-1.221-3.035-2.398c-0.863-1.074-1.681-2.088-2.63-2.342
					c-0.187-0.05-0.394-0.074-0.612-0.074c-0.887,0-1.938,0.403-2.955,0.795c-0.982,0.379-2,0.77-2.817,0.77
					c-0.353,0-0.644-0.068-0.892-0.213c-0.924-0.535-1.162-2.063-1.393-3.538c-0.206-1.321-0.42-2.688-1.134-3.403
					c-0.718-0.718-2.085-0.931-3.408-1.138c-1.476-0.229-3.002-0.468-3.535-1.392c-0.522-0.902,0.024-2.33,0.556-3.709
					c0.485-1.262,0.987-2.567,0.722-3.566c-0.255-0.951-1.269-1.768-2.343-2.633c-1.18-0.949-2.397-1.932-2.397-3.032
					s1.22-2.083,2.397-3.032c1.074-0.865,2.088-1.682,2.343-2.633c0.267-0.999-0.235-2.305-0.722-3.566
					c-0.529-1.379-1.078-2.807-0.556-3.709c0.533-0.924,2.06-1.162,3.535-1.392c1.323-0.207,2.69-0.42,3.407-1.136
					c0.717-0.716,0.93-2.084,1.137-3.407c0.229-1.476,0.469-3.001,1.391-3.536c0.248-0.144,0.539-0.213,0.892-0.213
					c0.817,0,1.835,0.391,2.817,0.769c1.019,0.391,2.068,0.795,2.955,0.795c0.221,0,0.426-0.025,0.612-0.075
					c0.951-0.254,1.769-1.268,2.634-2.342c0.948-1.179,1.932-2.398,3.031-2.398s2.083,1.219,3.032,2.398
					c0.864,1.074,1.682,2.088,2.633,2.342c0.187,0.05,0.394,0.075,0.612,0.075c0.887,0,1.938-0.404,2.955-0.795
					c0.983-0.378,2-0.769,2.818-0.769c0.352,0,0.643,0.069,0.891,0.212c0.923,0.534,1.16,2.061,1.391,3.536
					c0.207,1.323,0.42,2.692,1.137,3.406c0.715,0.716,2.082,0.93,3.404,1.137c1.477,0.23,3.003,0.469,3.536,1.393
					c0.522,0.903-0.024,2.33-0.556,3.709c-0.484,1.262-0.985,2.566-0.719,3.565c0.254,0.951,1.268,1.769,2.34,2.633
					c1.18,0.949,2.397,1.933,2.397,3.032c0,1.102-1.22,2.083-2.397,3.033c-1.074,0.863-2.088,1.681-2.343,2.632
					c-0.266,0.998,0.235,2.304,0.722,3.565c0.529,1.379,1.078,2.808,0.556,3.711c-0.533,0.922-2.06,1.16-3.535,1.391
					c-1.323,0.207-2.69,0.42-3.407,1.136c-0.715,0.716-0.929,2.083-1.135,3.405c-0.23,1.477-0.469,3.003-1.393,3.538
					c-0.248,0.144-0.539,0.213-0.892,0.213c-0.817,0-1.835-0.392-2.817-0.769c-1.018-0.393-2.068-0.797-2.953-0.797
					c-0.221,0-0.428,0.025-0.612,0.075c-0.951,0.255-1.769,1.269-2.633,2.343C263.417,83.656,262.436,84.875,261.334,84.875z"/>
				<g>
					<path fill="#0980BC" d="M261.334,33.25c1.041,0,2.004,1.195,2.936,2.352c0.877,1.09,1.707,2.12,2.697,2.384
						c0.197,0.053,0.414,0.079,0.646,0.079c0.908,0,1.972-0.408,2.998-0.803c0.974-0.374,1.979-0.76,2.775-0.761
						c0.328,0,0.598,0.064,0.826,0.196c0.871,0.505,1.104,2,1.33,3.447c0.209,1.343,0.426,2.732,1.171,3.476
						c0.743,0.745,2.132,0.962,3.474,1.171c1.447,0.227,2.943,0.46,3.447,1.332c0.494,0.852-0.043,2.25-0.563,3.602
						c-0.492,1.28-1.002,2.604-0.725,3.644c0.266,0.989,1.295,1.819,2.383,2.696c1.155,0.933,2.352,1.896,2.352,2.937
						s-1.195,2.004-2.352,2.937c-1.09,0.877-2.119,1.707-2.385,2.696c-0.275,1.037,0.231,2.361,0.725,3.644
						c0.521,1.353,1.059,2.752,0.563,3.604c-0.504,0.871-1.999,1.104-3.444,1.33c-1.344,0.209-2.732,0.426-3.479,1.171
						c-0.743,0.744-0.96,2.132-1.169,3.474c-0.228,1.447-0.459,2.944-1.332,3.449c-0.229,0.133-0.499,0.197-0.828,0.197
						c-0.795,0-1.801-0.387-2.774-0.762c-1.025-0.395-2.088-0.803-2.996-0.803c-0.23,0-0.448,0.024-0.646,0.078
						c-0.989,0.266-1.819,1.295-2.696,2.385c-0.933,1.156-1.896,2.352-2.937,2.352c-1.043,0-2.006-1.195-2.938-2.354
						c-0.877-1.09-1.705-2.117-2.694-2.383c-0.197-0.053-0.414-0.078-0.646-0.078c-0.91,0-1.973,0.408-3,0.803
						c-0.973,0.375-1.979,0.762-2.773,0.762c-0.328,0-0.6-0.064-0.827-0.197c-0.873-0.505-1.104-2.002-1.332-3.449
						c-0.209-1.342-0.427-2.729-1.169-3.474c-0.745-0.745-2.135-0.962-3.479-1.171c-1.445-0.227-2.94-0.459-3.445-1.33
						c-0.493-0.852,0.045-2.25,0.564-3.602c0.492-1.281,1.002-2.606,0.725-3.646c-0.266-0.989-1.295-1.819-2.385-2.696
						c-1.156-0.933-2.352-1.896-2.352-2.937s1.195-2.004,2.352-2.937c1.09-0.877,2.119-1.707,2.385-2.696
						c0.277-1.038-0.231-2.363-0.725-3.646c-0.521-1.352-1.059-2.75-0.564-3.602c0.505-0.871,2-1.104,3.445-1.33
						c1.344-0.209,2.732-0.426,3.479-1.171c0.744-0.745,0.962-2.133,1.171-3.477c0.228-1.446,0.459-2.942,1.33-3.447
						c0.229-0.132,0.499-0.196,0.827-0.196c0.796,0,1.802,0.387,2.773,0.761c1.027,0.395,2.09,0.804,3,0.804
						c0.23,0,0.447-0.027,0.646-0.079c0.989-0.265,1.819-1.294,2.696-2.384C259.33,34.445,260.293,33.25,261.334,33.25 M261.334,33
						c-2.148,0-3.715,4.215-5.697,4.744c-0.184,0.049-0.377,0.071-0.58,0.071c-1.719,0-4.082-1.564-5.772-1.564
						c-0.351,0-0.673,0.067-0.953,0.23c-1.819,1.055-1.074,5.484-2.554,6.963c-1.479,1.479-5.909,0.732-6.963,2.553
						c-1.039,1.795,1.813,5.256,1.265,7.308c-0.529,1.981-4.744,3.549-4.744,5.696s4.215,3.715,4.744,5.696
						c0.549,2.052-2.304,5.513-1.265,7.308c1.054,1.82,5.484,1.074,6.963,2.554c1.478,1.479,0.73,5.907,2.554,6.963
						c0.28,0.162,0.603,0.229,0.953,0.229c1.69,0,4.055-1.563,5.772-1.563c0.203,0,0.396,0.021,0.58,0.069
						c1.98,0.529,3.547,4.744,5.697,4.744c2.148,0,3.715-4.215,5.697-4.744c0.184-0.049,0.377-0.069,0.58-0.069
						c1.717,0,4.08,1.563,5.771,1.563c0.351,0,0.673-0.067,0.953-0.229c1.821-1.056,1.076-5.484,2.554-6.963
						c1.479-1.479,5.909-0.732,6.963-2.554c1.039-1.795-1.812-5.256-1.265-7.308c0.531-1.981,4.744-3.549,4.744-5.696
						s-4.213-3.715-4.742-5.696c-0.549-2.052,2.302-5.511,1.263-7.306c-1.054-1.821-5.484-1.076-6.961-2.555
						c-1.479-1.477-0.732-5.908-2.554-6.963c-0.28-0.162-0.603-0.229-0.952-0.229c-1.689,0-4.056,1.564-5.773,1.564
						c-0.203,0-0.396-0.022-0.58-0.071C265.049,37.215,263.482,33,261.334,33L261.334,33z"/>
				</g>
			</g>
			<g opacity="0.8">
				<g>
					
						<linearGradient id="SVGID_20_" gradientUnits="userSpaceOnUse" x1="336.7324" y1="-17.4341" x2="375.6211" y2="-17.4341" gradientTransform="matrix(1 0 0 -1 -100.8999 29.4004)">
						<stop  offset="0" style="stop-color:#FFFFFF"/>
						<stop  offset="1" style="stop-color:#000000"/>
					</linearGradient>
					<path fill="url(#SVGID_20_)" d="M236.23,59.617c0-0.922,1.147-1.848,2.258-2.742c1.072-0.863,2.183-1.758,2.47-2.828
						c0.298-1.115-0.226-2.479-0.733-3.799c-0.498-1.295-1.014-2.637-0.58-3.387c0.442-0.769,1.881-0.99,3.268-1.207
						c1.382-0.217,2.813-0.438,3.615-1.24c0.802-0.803,1.027-2.23,1.242-3.613c0.217-1.389,0.439-2.824,1.207-3.27
						c0.19-0.111,0.42-0.164,0.705-0.164c0.744,0,1.727,0.375,2.672,0.74c1.066,0.41,2.146,0.824,3.104,0.824
						c0.252,0,0.488-0.029,0.706-0.086c1.069-0.287,1.964-1.396,2.828-2.473c0.896-1.109,1.817-2.258,2.739-2.258
						s1.849,1.148,2.742,2.262c0.863,1.072,1.758,2.182,2.826,2.469c0.217,0.057,0.454,0.086,0.706,0.086
						c0.956,0,2.036-0.414,3.079-0.816c0.965-0.371,1.947-0.746,2.695-0.746c0.283,0,0.514,0.053,0.703,0.162
						c0.088,0.051,0.164,0.117,0.238,0.191c-0.16-0.361-0.361-0.648-0.635-0.807c-0.189-0.111-0.42-0.164-0.704-0.164
						c-0.747,0-1.729,0.377-2.694,0.748c-1.043,0.4-2.123,0.816-3.08,0.816c-0.252,0-0.489-0.029-0.705-0.088
						c-1.068-0.285-1.963-1.396-2.827-2.469c-0.894-1.111-1.82-2.26-2.741-2.26c-0.922,0-1.846,1.148-2.74,2.258
						c-0.863,1.074-1.758,2.186-2.828,2.471c-0.218,0.059-0.453,0.088-0.705,0.088c-0.957,0-2.037-0.416-3.104-0.826
						c-0.945-0.363-1.928-0.74-2.673-0.74c-0.284,0-0.515,0.053-0.704,0.166c-0.768,0.443-0.99,1.879-1.208,3.268
						c-0.215,1.383-0.438,2.811-1.242,3.613c-0.803,0.802-2.233,1.024-3.614,1.24c-1.388,0.219-2.824,0.44-3.268,1.209
						c-0.434,0.75,0.082,2.09,0.58,3.387c0.509,1.32,1.031,2.685,0.732,3.798c-0.287,1.071-1.396,1.965-2.469,2.829
						c-1.109,0.896-2.259,1.82-2.259,2.742c0,0.392,0.214,0.781,0.536,1.17C236.287,59.988,236.23,59.803,236.23,59.617z"/>
				</g>
				<g>
					
						<linearGradient id="SVGID_21_" gradientUnits="userSpaceOnUse" x1="383.582" y1="-27.0732" x2="387.5938" y2="-27.0732" gradientTransform="matrix(1 0 0 -1 -100.8999 29.4004)">
						<stop  offset="0" style="stop-color:#FFFFFF"/>
						<stop  offset="1" style="stop-color:#000000"/>
					</linearGradient>
					<path fill="url(#SVGID_21_)" d="M282.682,54.502c0.435,0.873,1.373,1.635,2.291,2.373c0.639,0.516,1.282,1.041,1.721,1.57
						c-0.33-0.736-1.23-1.471-2.117-2.187C283.88,55.699,283.174,55.127,282.682,54.502z"/>
				</g>
				<g>
					
						<linearGradient id="SVGID_22_" gradientUnits="userSpaceOnUse" x1="377.2988" y1="-15.6904" x2="384.4355" y2="-15.6904" gradientTransform="matrix(1 0 0 -1 -100.8999 29.4004)">
						<stop  offset="0" style="stop-color:#FFFFFF"/>
						<stop  offset="1" style="stop-color:#000000"/>
					</linearGradient>
					<path fill="url(#SVGID_22_)" d="M276.936,44.414c0.799,0.803,2.229,1.023,3.609,1.24c1.176,0.184,2.378,0.377,2.99,0.896
						c-0.026-0.108-0.064-0.211-0.118-0.303c-0.442-0.769-1.88-0.992-3.269-1.211c-1.381-0.216-2.812-0.438-3.61-1.24
						c-0.052-0.051-0.093-0.108-0.14-0.164C276.544,43.93,276.717,44.195,276.936,44.414z"/>
				</g>
				<g>
					
						<linearGradient id="SVGID_23_" gradientUnits="userSpaceOnUse" x1="339.9854" y1="-38.6943" x2="341.9453" y2="-38.6943" gradientTransform="matrix(1 0 0 -1 -100.8999 29.4004)">
						<stop  offset="0" style="stop-color:#FFFFFF"/>
						<stop  offset="1" style="stop-color:#000000"/>
					</linearGradient>
					<path fill="url(#SVGID_23_)" d="M240.225,68.984c0.51-1.32,1.031-2.685,0.733-3.801c-0.101-0.375-0.308-0.728-0.571-1.064
						c0.071,0.146,0.135,0.295,0.176,0.449c0.297,1.115-0.226,2.479-0.733,3.801c-0.498,1.295-1.015,2.635-0.58,3.385
						c0.067,0.119,0.167,0.221,0.278,0.316C239.338,71.293,239.787,70.121,240.225,68.984z"/>
				</g>
				<g>
					
						<linearGradient id="SVGID_24_" gradientUnits="userSpaceOnUse" x1="347.5645" y1="-48.541" x2="349.2422" y2="-48.541" gradientTransform="matrix(1 0 0 -1 -100.8999 29.4004)">
						<stop  offset="0" style="stop-color:#FFFFFF"/>
						<stop  offset="1" style="stop-color:#000000"/>
					</linearGradient>
					<path fill="url(#SVGID_24_)" d="M247.768,78.432c-0.203-1.295-0.416-2.623-1.103-3.445c0.385,0.795,0.548,1.822,0.705,2.83
						c0.192,1.232,0.394,2.498,0.973,3.08C248.053,80.24,247.907,79.328,247.768,78.432z"/>
				</g>
			</g>
		</g>
		
			<text transform="matrix(0.9529 -0.3034 0.3034 0.9529 242.7803 70.4072)" display="inline" fill="#FFFFFF" font-family="'MyriadPro-Bold'" font-size="12.4385">Staging</text>
	</g>
</g>
</svg>
