<?xml version="1.0" encoding="UTF-8"?>
<svg version="1.1" xmlns="http://www.w3.org/2000/svg" width="1145" height="218">
<path d="M0 0 C6.08322462 5.13825769 9.52874841 10.10473313 10.2890625 18.1640625 C10.95954873 31.42711823 7.54326033 42.1614433 2.2890625 54.1640625 C1.64324219 55.64712891 1.64324219 55.64712891 0.984375 57.16015625 C-5.7935775 71.61845137 -15.73810546 84.77026381 -25.7109375 97.1640625 C-26.51096191 98.15913818 -26.51096191 98.15913818 -27.32714844 99.17431641 C-30.61662532 103.25674215 -33.91552413 107.33142002 -37.24853516 111.37841797 C-38.22199272 112.56704378 -39.18531056 113.76404786 -40.13818359 114.96923828 C-41.28581548 116.40325324 -42.49321035 117.78907216 -43.7109375 119.1640625 C-44.3709375 119.1640625 -45.0309375 119.1640625 -45.7109375 119.1640625 C-45.98405762 119.75791748 -46.25717773 120.35177246 -46.53857422 120.96362305 C-47.67488701 123.09639838 -48.83252398 124.60692675 -50.46875 126.37109375 C-51.00757813 126.95391113 -51.54640625 127.53672852 -52.1015625 128.13720703 C-52.67390625 128.74419434 -53.24625 129.35118164 -53.8359375 129.9765625 C-54.42632812 130.60675293 -55.01671875 131.23694336 -55.625 131.88623047 C-59.11722203 135.57852772 -62.66488885 139.08616666 -66.57421875 142.33984375 C-68.86273817 144.29366198 -71.04654736 146.34467818 -73.23413086 148.41015625 C-80.05231609 154.82727176 -87.15962939 160.63491706 -94.7109375 166.1640625 C-95.29020996 166.58961426 -95.86948242 167.01516602 -96.46630859 167.45361328 C-120.19745705 184.81929116 -152.90892664 205.19107714 -183.41577148 205.30932617 C-185.09793007 205.31889595 -185.09793007 205.31889595 -186.81407166 205.32865906 C-188.61733665 205.33032829 -188.61733665 205.33032829 -190.45703125 205.33203125 C-191.70090103 205.33535965 -192.94477081 205.33868805 -194.22633362 205.34211731 C-196.85474274 205.34717592 -199.48315828 205.34952596 -202.11157227 205.34936523 C-204.80109355 205.34928381 -207.49044513 205.35625188 -210.17993164 205.36987305 C-214.06401774 205.38819084 -217.94790627 205.3931015 -221.83203125 205.39453125 C-223.6322599 205.40530952 -223.6322599 205.40530952 -225.46885681 205.41630554 C-226.59344803 205.41322891 -227.71803925 205.41015228 -228.87670898 205.40698242 C-229.86090317 205.40840744 -230.84509735 205.40983246 -231.8591156 205.41130066 C-240.22586326 204.68594706 -248.55936082 199.91496661 -254.1484375 193.7265625 C-259.88542954 186.23434343 -260.79285835 179.48918985 -259.7109375 170.1640625 C-257.41018717 160.82812893 -253.24005372 152.97174823 -247.7109375 145.1640625 C-247.0509375 145.4940625 -246.3909375 145.8240625 -245.7109375 146.1640625 C-245.91589844 146.83050781 -246.12085938 147.49695313 -246.33203125 148.18359375 C-249.67347333 159.61484296 -251.59371412 170.48960383 -245.6484375 181.3515625 C-240.7479353 188.56579155 -232.94137396 192.0764153 -224.7109375 194.1640625 C-223.61458984 194.44636719 -223.61458984 194.44636719 -222.49609375 194.734375 C-218.6196415 195.33242514 -214.81366155 195.2692263 -210.8984375 195.2265625 C-210.11017578 195.22205078 -209.32191406 195.21753906 -208.50976562 195.21289062 C-206.57678989 195.20117562 -204.64385357 195.18324248 -202.7109375 195.1640625 C-202.7109375 194.5040625 -202.7109375 193.8440625 -202.7109375 193.1640625 C-200.7309375 193.1640625 -198.7509375 193.1640625 -196.7109375 193.1640625 C-196.7109375 193.8240625 -196.7109375 194.4840625 -196.7109375 195.1640625 C-178.99600176 191.7188044 -162.35253382 187.17315472 -145.7109375 180.1640625 C-144.92541504 179.83680176 -144.13989258 179.50954102 -143.33056641 179.17236328 C-122.56117645 170.3805807 -104.4130016 157.16699887 -87.7109375 142.1640625 C-86.29522196 140.93380047 -84.87854875 139.70463965 -83.4609375 138.4765625 C-81.32287594 136.61519126 -79.31707212 134.75983224 -77.3359375 132.7265625 C-75.7109375 131.1640625 -75.7109375 131.1640625 -73.7109375 131.1640625 C-73.4840625 130.6071875 -73.2571875 130.0503125 -73.0234375 129.4765625 C-70.8580526 125.66136053 -67.48278102 122.91290406 -64.3515625 119.875 C-59.12952552 114.77242138 -54.37562409 109.48869612 -49.82421875 103.78125 C-47.33046542 100.69286787 -44.70286411 97.74783417 -42.0234375 94.8203125 C-40.49497672 93.08512612 -40.49497672 93.08512612 -39.7109375 90.1640625 C-39.0509375 89.5040625 -38.3909375 88.8440625 -37.7109375 88.1640625 C-36.69831804 86.84028774 -35.69934776 85.50600994 -34.7109375 84.1640625 C-34.25074219 83.56207031 -33.79054687 82.96007812 -33.31640625 82.33984375 C-27.13894404 74.22235208 -20.96875232 65.93750696 -17.7109375 56.1640625 C-17.0509375 56.1640625 -16.3909375 56.1640625 -15.7109375 56.1640625 C-9.80147882 38.15200889 -9.80147882 38.15200889 -12.6640625 19.8828125 C-15.42176001 15.35524943 -19.69904334 12.67026166 -24.7109375 11.1640625 C-38.65105624 9.71488652 -51.72417812 10.98711528 -64.7109375 16.1640625 C-65.43055664 16.44813965 -66.15017578 16.7322168 -66.89160156 17.02490234 C-83.43258009 23.69698485 -102.9358478 32.3889728 -115.7109375 45.1640625 C-114.32216396 48.52026521 -112.79415785 50.23704978 -109.7109375 52.1640625 C-109.0509375 52.1640625 -108.3909375 52.1640625 -107.7109375 52.1640625 C-107.79794922 51.13345703 -107.79794922 51.13345703 -107.88671875 50.08203125 C-108.02235374 47.37320677 -108.05933179 44.8554084 -107.7109375 42.1640625 C-105.5234375 40.2265625 -105.5234375 40.2265625 -102.7109375 39.1640625 C-101.8240625 38.6071875 -100.9371875 38.0503125 -100.0234375 37.4765625 C-97.7109375 36.1640625 -97.7109375 36.1640625 -95.7109375 36.1640625 C-95.3809375 35.1740625 -95.0509375 34.1840625 -94.7109375 33.1640625 C-92.92431641 32.3203125 -92.92431641 32.3203125 -90.7109375 32.1640625 C-88.57958984 33.1328125 -88.57958984 33.1328125 -86.296875 34.6640625 C-85.45253906 35.22222656 -84.60820312 35.78039063 -83.73828125 36.35546875 C-82.86300781 36.95230469 -81.98773438 37.54914062 -81.0859375 38.1640625 C-80.23386719 38.72996094 -79.38179687 39.29585937 -78.50390625 39.87890625 C-75.8920782 41.62144206 -73.29625225 43.38234432 -70.7109375 45.1640625 C-69.88322845 45.59804352 -69.05551941 46.03202454 -68.20272827 46.47915649 C-64.19601952 48.78758897 -61.26209868 50.47795097 -59.78250122 55.0043335 C-59.41904231 58.51902135 -59.37672945 61.90476428 -59.453125 65.4375 C-59.44830109 66.71581696 -59.44347717 67.99413391 -59.43850708 69.31118774 C-59.43280909 72.01051969 -59.46197164 74.70651574 -59.51708984 77.40527344 C-59.58514704 80.8419587 -59.57326591 84.27266227 -59.53576469 87.70963097 C-59.50936302 91.01533081 -59.54611454 94.3193415 -59.578125 97.625 C-59.56324539 99.45821304 -59.56324539 99.45821304 -59.54806519 101.32846069 C-59.7613608 109.12653484 -61.32494868 113.15144352 -66.90310669 118.67129517 C-68.7109375 120.1640625 -68.7109375 120.1640625 -69.7109375 120.1640625 C-69.70125946 119.39033798 -69.69158142 118.61661346 -69.68161011 117.81944275 C-69.59905483 110.50713121 -69.56478446 103.19690359 -69.58396721 95.88420773 C-69.59214631 92.12492924 -69.58203368 88.36759919 -69.52929688 84.60864258 C-69.47902913 80.97673472 -69.47788392 77.34775047 -69.50998306 73.71566963 C-69.51371806 72.33422075 -69.50011481 70.95260682 -69.46844101 69.57151604 C-69.15335424 61.45299589 -69.15335424 61.45299589 -73.01715088 54.71316528 C-75.51530074 52.95073568 -77.95406878 51.47822496 -80.7109375 50.1640625 C-80.69681824 51.17946609 -80.68269897 52.19486969 -80.66815186 53.24104309 C-80.54248674 62.84744332 -80.4807558 72.452452 -80.48034286 82.05969715 C-80.47811004 86.99831035 -80.45397988 91.93472394 -80.37841797 96.87280273 C-80.30621003 101.64584961 -80.29333714 106.41582558 -80.32022858 111.18930626 C-80.32028404 113.00291681 -80.2995698 114.81665985 -80.2569809 116.62977028 C-79.92830375 131.53536074 -79.92830375 131.53536074 -84.31311035 136.67538452 C-87.20743225 139.54872644 -90.35230083 141.85889705 -93.7109375 144.1640625 C-95.25525045 145.34811904 -96.7976203 146.53472671 -98.3359375 147.7265625 C-98.94695312 148.16097656 -99.55796875 148.59539062 -100.1875 149.04296875 C-101.86770211 150.22055313 -101.86770211 150.22055313 -103.7109375 152.1640625 C-104.7009375 152.1640625 -105.6909375 152.1640625 -106.7109375 152.1640625 C-106.90605475 149.41441022 -107.09230183 146.66464118 -107.2734375 143.9140625 C-107.32951172 143.13675781 -107.38558594 142.35945312 -107.44335938 141.55859375 C-107.49169922 140.80449219 -107.54003906 140.05039063 -107.58984375 139.2734375 C-107.6369751 138.58217773 -107.68410645 137.89091797 -107.73266602 137.17871094 C-107.7109375 135.1640625 -107.7109375 135.1640625 -106.7109375 131.1640625 C-111.0009375 131.1640625 -115.2909375 131.1640625 -119.7109375 131.1640625 C-119.7109375 135.7840625 -119.7109375 140.4040625 -119.7109375 145.1640625 C-124.48473502 143.97061312 -126.09668459 142.36760485 -129.7109375 139.1640625 C-131.54313396 140.99625896 -130.94995078 143.92119991 -131.02734375 146.38671875 C-131.09018555 148.27680664 -131.09018555 148.27680664 -131.15429688 150.20507812 C-131.19411346 151.54556986 -131.23382564 152.8860647 -131.2734375 154.2265625 C-131.31661792 155.57097773 -131.36023206 156.9153791 -131.40429688 158.25976562 C-131.51079108 161.5610859 -131.6128021 164.86248486 -131.7109375 168.1640625 C-136.84493295 166.21891083 -140.64533708 163.36025158 -144.9921875 160.0390625 C-150.41784353 156.29723075 -155.94122991 155.43140234 -162.3359375 154.4140625 C-163.19445312 154.26324219 -164.05296875 154.11242187 -164.9375 153.95703125 C-165.7625 153.82425781 -166.5875 153.69148437 -167.4375 153.5546875 C-168.18596191 153.43125977 -168.93442383 153.30783203 -169.70556641 153.18066406 C-172.03373766 152.97368491 -172.03373766 152.97368491 -174.7109375 155.1640625 C-173.3909375 155.1640625 -172.0709375 155.1640625 -170.7109375 155.1640625 C-169.46763984 156.59498882 -168.23215708 158.03536638 -167.07666016 159.53808594 C-164.88432028 162.14820098 -162.20625305 163.8858007 -159.3984375 165.7890625 C-158.5472937 166.36708618 -158.5472937 166.36708618 -157.67895508 166.95678711 C-153.49970998 169.75106708 -149.28797521 172.09990824 -144.7109375 174.1640625 C-144.7109375 174.8240625 -144.7109375 175.4840625 -144.7109375 176.1640625 C-146.76505998 177.20164999 -148.82963355 178.2185659 -150.8984375 179.2265625 C-152.62126953 180.07927734 -152.62126953 180.07927734 -154.37890625 180.94921875 C-157.95443236 182.25283964 -159.21008261 182.50013756 -162.7109375 181.1640625 C-174.33190538 174.00501352 -184.82114368 163.9377608 -191.7109375 152.1640625 C-190.7209375 151.8340625 -189.7309375 151.5040625 -188.7109375 151.1640625 C-188.7109375 150.5040625 -188.7109375 149.8440625 -188.7109375 149.1640625 C-189.3709375 149.1640625 -190.0309375 149.1640625 -190.7109375 149.1640625 C-190.7109375 148.5040625 -190.7109375 147.8440625 -190.7109375 147.1640625 C-191.5153125 147.05191406 -191.5153125 147.05191406 -192.3359375 146.9375 C-200.8783625 145.50439581 -208.69165636 142.32799724 -216.7109375 139.1640625 C-215.8359375 132.4140625 -215.8359375 132.4140625 -214.7109375 130.1640625 C-212.26274073 131.11613902 -209.92794068 132.03912128 -207.6484375 133.3515625 C-205.2585408 134.35377724 -204.10718584 134.01986548 -201.7109375 133.1640625 C-202.2059375 132.019375 -202.2059375 132.019375 -202.7109375 130.8515625 C-203.7109375 128.1640625 -203.7109375 128.1640625 -203.7109375 125.1640625 C-204.3709375 124.8340625 -205.0309375 124.5040625 -205.7109375 124.1640625 C-205.3809375 123.1740625 -205.0509375 122.1840625 -204.7109375 121.1640625 C-205.7009375 120.6690625 -205.7009375 120.6690625 -206.7109375 120.1640625 C-205.98777344 119.13345703 -205.98777344 119.13345703 -205.25 118.08203125 C-204.61835938 117.18097656 -203.98671875 116.27992188 -203.3359375 115.3515625 C-202.70945313 114.45824219 -202.08296875 113.56492187 -201.4375 112.64453125 C-198.89039798 109.01577105 -198.89039798 109.01577105 -196.7109375 105.1640625 C-195.7209375 105.4940625 -194.7309375 105.8240625 -193.7109375 106.1640625 C-193.02144037 109.03443601 -192.49160136 111.81906283 -192.0234375 114.7265625 C-190.45151787 123.39930777 -187.55328322 130.45050873 -183.3203125 138.13671875 C-181.7109375 141.1640625 -181.7109375 141.1640625 -181.7109375 143.1640625 C-178.4109375 143.4940625 -175.1109375 143.8240625 -171.7109375 144.1640625 C-171.7109375 143.1740625 -171.7109375 142.1840625 -171.7109375 141.1640625 C-172.7009375 140.8340625 -173.6909375 140.5040625 -174.7109375 140.1640625 C-174.7109375 139.5040625 -174.7109375 138.8440625 -174.7109375 138.1640625 C-175.3709375 138.1640625 -176.0309375 138.1640625 -176.7109375 138.1640625 C-176.7263987 137.2644278 -176.7263987 137.2644278 -176.74217224 136.34661865 C-176.85114197 130.05130066 -176.96565482 123.75610011 -177.08325195 117.4609375 C-177.12631367 115.11786376 -177.16800621 112.77476442 -177.20825195 110.43164062 C-177.26665864 107.04549471 -177.33014244 103.65947434 -177.39453125 100.2734375 C-177.41124374 99.24168396 -177.42795624 98.20993042 -177.44517517 97.14691162 C-177.56782956 90.99654166 -177.94974124 84.91629586 -178.49729919 78.78961182 C-178.89524678 73.89895788 -178.71373675 69.06023647 -178.5234375 64.1640625 C-178.50474609 63.15472656 -178.48605469 62.14539063 -178.46679688 61.10546875 C-178.19161468 53.83486555 -178.19161468 53.83486555 -175.78515625 50.4765625 C-173.7109375 49.1640625 -173.7109375 49.1640625 -171.7109375 49.1640625 C-171.2159375 48.1740625 -171.2159375 48.1740625 -170.7109375 47.1640625 C-169.19995775 46.21738743 -167.64893611 45.33463523 -166.0859375 44.4765625 C-158.36501714 40.09265009 -151.0125893 35.1655916 -143.63427734 30.23168945 C-142.6695752 29.59320068 -141.70487305 28.95471191 -140.7109375 28.296875 C-139.8446875 27.71824707 -138.9784375 27.13961914 -138.0859375 26.54345703 C-135.90222904 25.27516418 -134.17810998 24.60881032 -131.7109375 24.1640625 C-131.54349364 29.25420389 -131.38291669 34.34449744 -131.22875977 39.43505859 C-131.1753202 41.16754009 -131.11998932 42.8999643 -131.06274414 44.63232422 C-130.98088757 47.11934048 -130.90578762 49.606482 -130.83203125 52.09375 C-130.79147865 53.25945023 -130.79147865 53.25945023 -130.75010681 54.44869995 C-130.59706579 59.93631909 -130.59706579 59.93631909 -131.7109375 62.1640625 C-127.0909375 62.1640625 -122.4709375 62.1640625 -117.7109375 62.1640625 C-118.0409375 61.5040625 -118.3709375 60.8440625 -118.7109375 60.1640625 C-118.78159367 58.12351245 -118.79515726 56.08071993 -118.7734375 54.0390625 C-118.76441406 52.94335938 -118.75539062 51.84765625 -118.74609375 50.71875 C-118.72869141 49.45417969 -118.72869141 49.45417969 -118.7109375 48.1640625 C-120.0309375 48.1640625 -121.3509375 48.1640625 -122.7109375 48.1640625 C-122.7379418 46.70583038 -122.75733537 45.24745575 -122.7734375 43.7890625 C-122.78503906 42.97695313 -122.79664063 42.16484375 -122.80859375 41.328125 C-122.7109375 39.1640625 -122.7109375 39.1640625 -121.7109375 37.1640625 C-120.44773112 36.40613867 -119.14884778 35.70719833 -117.8359375 35.0390625 C-111.3175715 31.53478894 -105.46315332 27.09503863 -99.640625 22.546875 C-97.11148356 20.73449429 -94.43051561 19.52432881 -91.61328125 18.2265625 C-89.64771425 17.24718824 -89.64771425 17.24718824 -88.19140625 15.60546875 C-85.84138098 13.31744942 -82.81599898 13.02657958 -79.7109375 12.1640625 C-79.3809375 11.5040625 -79.0509375 10.8440625 -78.7109375 10.1640625 C-76.515625 9.0859375 -76.515625 9.0859375 -73.5859375 7.9140625 C-71.95011719 7.25857422 -71.95011719 7.25857422 -70.28125 6.58984375 C-69.10304687 6.11933594 -67.92484375 5.64882813 -66.7109375 5.1640625 C-65.53273437 4.66261719 -64.35453125 4.16117188 -63.140625 3.64453125 C-44.3344664 -4.24127835 -18.4790125 -12.51460501 0 0 Z M-165.20614624 53.38192749 C-170.64851772 59.42690716 -169.19707348 68.32940179 -169.07421875 76.02734375 C-169.08122361 77.98555076 -169.09278118 79.94374631 -169.10868835 81.90190125 C-169.13696473 87.04274121 -169.09791927 92.18102297 -169.04638672 97.32159424 C-169.01578648 101.52839482 -169.03367343 105.73434124 -169.05398273 109.94115925 C-169.07715024 114.94906951 -169.07871901 119.95688996 -169.07421875 124.96484375 C-169.07395502 125.92332026 -169.07369129 126.88179676 -169.07341957 127.86931801 C-169.06750048 130.56976755 -169.04690774 133.26965021 -169.02075195 135.9699707 C-169.02001175 136.77464783 -169.01927155 137.57932495 -169.01850891 138.40838623 C-169.12025347 142.7522122 -169.12025347 142.7522122 -166.7109375 146.1640625 C-166.7109375 146.4940625 -166.7109375 146.8240625 -166.7109375 147.1640625 C-163.0809375 147.8240625 -159.4509375 148.4840625 -155.7109375 149.1640625 C-155.7109375 116.1640625 -155.7109375 83.1640625 -155.7109375 49.1640625 C-159.15785461 49.1640625 -162.44646498 51.59025973 -165.20614624 53.38192749 Z M-111.7109375 61.1640625 C-113.07986989 64.7438134 -113.07986989 64.7438134 -112.7109375 71.1640625 C-123.6009375 71.1640625 -134.4909375 71.1640625 -145.7109375 71.1640625 C-145.7109375 75.1240625 -145.7109375 79.0840625 -145.7109375 83.1640625 C-134.8209375 83.1640625 -123.9309375 83.1640625 -112.7109375 83.1640625 C-112.7109375 85.4740625 -112.7109375 87.7840625 -112.7109375 90.1640625 C-112.0509375 91.1540625 -111.3909375 92.1440625 -110.7109375 93.1640625 C-109.74671875 92.33261719 -108.7825 91.50117187 -107.7890625 90.64453125 C-106.51307763 89.54680897 -105.23703281 88.44915638 -103.9609375 87.3515625 C-103.32671875 86.80435547 -102.6925 86.25714844 -102.0390625 85.69335938 C-98.99823788 83.08015071 -95.96812379 80.5082496 -92.7109375 78.1640625 C-93.98220193 74.3502692 -95.71121003 73.28373593 -98.8359375 70.7890625 C-99.82464844 69.99886719 -100.81335938 69.20867187 -101.83203125 68.39453125 C-105.0676288 65.88771144 -108.34066433 63.48580624 -111.7109375 61.1640625 Z M-134.0234375 105.3515625 C-134.59255859 105.83431641 -135.16167969 106.31707031 -135.74804688 106.81445312 C-139.22858278 109.79149015 -142.51474209 112.88391449 -145.7109375 116.1640625 C-145.16566406 116.5765625 -144.62039062 116.9890625 -144.05859375 117.4140625 C-138.99035777 121.29537826 -134.17095361 125.3508186 -129.4609375 129.66015625 C-127.96910595 131.27269029 -127.96910595 131.27269029 -126.7109375 131.1640625 C-126.3809375 127.8640625 -126.0509375 124.5640625 -125.7109375 121.1640625 C-114.4909375 121.1640625 -103.2709375 121.1640625 -91.7109375 121.1640625 C-91.7109375 117.2040625 -91.7109375 113.2440625 -91.7109375 109.1640625 C-102.9309375 109.1640625 -114.1509375 109.1640625 -125.7109375 109.1640625 C-125.7109375 106.1940625 -125.7109375 103.2240625 -125.7109375 100.1640625 C-129.18976595 100.1640625 -131.4921503 103.16302451 -134.0234375 105.3515625 Z M-184.7109375 149.1640625 C-185.0409375 150.1540625 -185.3709375 151.1440625 -185.7109375 152.1640625 C-183.11611621 154.75888379 -181.31210125 154.86396552 -177.7109375 155.1640625 C-177.0509375 154.5040625 -176.3909375 153.8440625 -175.7109375 153.1640625 C-178.64922347 150.66107816 -180.88996511 149.69475311 -184.7109375 149.1640625 Z " fill="#FDFDFD" transform="translate(259.7109375,12.8359375)"/>
<path d="M0 0 C2.294398 1.76812519 4.41261197 3.60644527 6.50390625 5.609375 C7.78164542 7.11346963 7.78164542 7.11346963 9 7 C9.144375 5.700625 9.28875 4.40125 9.4375 3.0625 C9.875 -0.875 9.875 -0.875 11 -2 C13.14307896 -2.12537741 15.29078886 -2.17574364 17.4375 -2.1875 C18.61183594 -2.20167969 19.78617188 -2.21585937 20.99609375 -2.23046875 C24 -2 24 -2 26 0 C26.20358427 2.48600403 26.28323091 4.86108274 26.2746582 7.34863281 C26.27976913 8.10672241 26.28488007 8.86481201 26.29014587 9.64587402 C26.30409849 12.16503709 26.30307865 14.68392773 26.30078125 17.203125 C26.30466964 18.96034852 26.3090046 20.71757111 26.31376648 22.47479248 C26.32124413 26.1704003 26.32092959 29.86591267 26.31567383 33.56152344 C26.30992564 38.26172785 26.32668873 42.96153221 26.3500185 47.66167068 C26.36488195 51.29948149 26.36560974 54.93719929 26.36250877 58.5750351 C26.3630173 60.30510998 26.36816543 62.03519074 26.37832069 63.7652359 C26.46016281 79.68130229 25.65468371 95.92560807 14.375 108.3125 C5.13182225 116.97688294 -5.86827673 118.40641896 -17.984375 118.21484375 C-28.30098149 117.82712815 -38.0098398 113.48148528 -45.125 106 C-47.296667 103.60634037 -48.01475501 102.6934857 -47.9453125 99.4296875 C-46.753304 96.36593011 -45.62317522 95.65672586 -42.75 94.125 C-41.98171875 93.69445312 -41.2134375 93.26390625 -40.421875 92.8203125 C-37.46832755 91.8199174 -35.93118452 91.98723193 -33 93 C-31.76961832 94.4894094 -30.54153886 95.98117686 -29.34765625 97.5 C-26.02739296 101.1955974 -22.44327363 101.86082719 -17.71875 102.31640625 C-10.75122737 102.54716822 -4.5763464 102.5636927 1 98 C6.8849054 92.16047947 8.0872064 84.96234065 8.125 76.9375 C8.08375 75.638125 8.0425 74.33875 8 73 C7.40832031 73.55429688 6.81664062 74.10859375 6.20703125 74.6796875 C5.41683594 75.40414062 4.62664063 76.12859375 3.8125 76.875 C2.64654297 77.95394531 2.64654297 77.95394531 1.45703125 79.0546875 C-4.62500957 83.87003938 -12.43397673 84.70563948 -20 84 C-29.91210374 82.24643442 -38.69535387 78.56631817 -44.875 70.375 C-53.26180198 57.280512 -54.68879603 41.76524031 -51.8125 26.75 C-50.4001051 20.8245107 -48.51213897 15.97472836 -45 11 C-44.51917969 10.30261719 -44.03835938 9.60523437 -43.54296875 8.88671875 C-33.4111603 -4.20328195 -14.35892146 -8.22202269 0 0 Z M-30.45703125 18.73046875 C-35.83927349 26.64713392 -37.05964831 36.66743479 -36 46 C-34.34046674 54.44093535 -31.2057444 60.95597892 -24 66 C-18.79900532 69.19884186 -12.88626279 68.54280507 -7 68 C-1.63379138 66.7082955 1.23620904 64.08855646 4.375 59.625 C9.75067772 50.6509689 11.2497658 40.69557688 8.78125 30.48046875 C6.1917927 22.25894182 2.7694763 16.18594051 -5 12 C-14.48721788 8.99724949 -23.77129334 11.46336233 -30.45703125 18.73046875 Z " fill="#FDFDFD" transform="translate(855,84)"/>
<path d="M0 0 C1.37605825 1.05639317 2.73170253 2.14028732 4.05859375 3.2578125 C5.58486284 4.66609203 5.58486284 4.66609203 7.65234375 4.46484375 C7.96171875 3.49546875 8.27109375 2.52609375 8.58984375 1.52734375 C9.65234375 -1.53515625 9.65234375 -1.53515625 10.65234375 -2.53515625 C12.83527149 -2.76997318 15.02437549 -2.94878948 17.21484375 -3.09765625 C19.01115234 -3.22333984 19.01115234 -3.22333984 20.84375 -3.3515625 C21.77058594 -3.41214844 22.69742187 -3.47273438 23.65234375 -3.53515625 C25.16748314 -0.50487747 24.82285219 2.64638458 24.84179688 5.97216797 C24.85423683 7.13339676 24.85423683 7.13339676 24.8669281 8.31808472 C24.88434508 10.00194109 24.89950738 11.68582191 24.91270447 13.36971664 C24.93370964 16.03423167 24.9607356 18.69862449 24.98937988 21.36306763 C25.04912541 27.02194612 25.10123811 32.68088152 25.15234375 38.33984375 C25.21157337 44.88950249 25.27391076 51.43910135 25.34422302 57.98865128 C25.37078801 60.61431208 25.39161077 63.23997889 25.41223145 65.86569214 C25.42883791 67.47670783 25.44571005 69.0877208 25.46289062 70.69873047 C25.46707504 71.42926636 25.47125946 72.15980225 25.47557068 72.91247559 C25.51671692 76.24484912 25.6686665 79.27169527 26.65234375 82.46484375 C27.65379913 89.81838755 25.76550133 95.35267066 21.65234375 101.46484375 C19.55070901 103.86671202 17.26854019 105.6483149 14.65234375 107.46484375 C13.82476563 108.06296875 12.9971875 108.66109375 12.14453125 109.27734375 C0.98582112 116.90723102 -10.06298708 118.6638703 -23.34765625 117.46484375 C-31.66743762 115.62331111 -37.46378591 110.76264132 -43.0703125 104.55859375 C-44.68613949 101.91002107 -44.904362 100.51462305 -44.34765625 97.46484375 C-42.5546875 95.62890625 -42.5546875 95.62890625 -40.16015625 94.08984375 C-38.99419922 93.30480469 -38.99419922 93.30480469 -37.8046875 92.50390625 C-34.80958887 91.23729856 -33.38898081 91.40140763 -30.34765625 92.46484375 C-29.45046875 93.60953125 -29.45046875 93.60953125 -28.53515625 94.77734375 C-24.85510446 99.29855023 -21.0190543 101.16468667 -15.21875 101.81640625 C-7.87179927 102.00369816 -1.06813246 101.94984678 4.50390625 96.73046875 C7.32290045 93.40946189 8.6916235 91.52539689 8.52734375 87.08984375 C8.09421875 85.29546875 8.09421875 85.29546875 7.65234375 83.46484375 C7.53970648 80.12980118 7.59193246 76.80088963 7.65234375 73.46484375 C6.95109375 74.01914063 6.24984375 74.5734375 5.52734375 75.14453125 C-3.11449399 81.74332583 -8.69439263 84.32674356 -19.55078125 82.9921875 C-28.47614263 81.30933305 -35.42396993 77.39850724 -41.34765625 70.46484375 C-49.92100365 57.38019347 -51.99316337 42.62017732 -49.22265625 27.46484375 C-46.39838864 15.31516422 -40.25453944 5.42181619 -29.6796875 -1.27734375 C-20.37886143 -6.29386971 -8.85203878 -5.78843801 0 0 Z M-26.16015625 17.15234375 C-32.69757204 25.37251121 -34.03145065 34.86831531 -33.09765625 45.2421875 C-31.91162881 52.11479294 -29.75602628 58.62613315 -24.41015625 63.33984375 C-19.20304432 66.95294183 -14.73658826 68.41788886 -8.34765625 67.46484375 C-2.10450573 65.36868613 1.72976526 62.24798206 4.7421875 56.3203125 C9.89316694 45.26678723 9.81806422 35.0315874 5.91796875 23.49609375 C3.62773092 18.01083277 1.09508701 13.71220201 -4.28515625 10.96484375 C-13.06810593 9.53089278 -19.97164496 10.52086534 -26.16015625 17.15234375 Z " fill="#FDFDFC" transform="translate(1028.34765625,84.53515625)"/>
<path d="M0 0 C8.47814161 7.29514511 13.29568074 18.04602572 15 29 C15.11468855 31.22709156 15.17478617 33.45749358 15.1875 35.6875 C15.20167969 36.82574219 15.21585938 37.96398437 15.23046875 39.13671875 C15 42 15 42 13 44 C10.5196228 44.24050903 10.5196228 44.24050903 7.35693359 44.22705078 C6.17586029 44.22689972 4.99478699 44.22674866 3.77792358 44.22659302 C2.49769318 44.21627045 1.21746277 44.20594788 -0.1015625 44.1953125 C-2.06166763 44.19106766 -2.06166763 44.19106766 -4.06137085 44.18673706 C-7.53682081 44.17909776 -11.01210383 44.1594469 -14.48748779 44.1373291 C-18.03330222 44.11687696 -21.5791436 44.10773671 -25.125 44.09765625 C-32.08340195 44.07620116 -39.04169296 44.04206173 -46 44 C-45.3961563 45.90842562 -44.78381372 47.81416329 -44.16796875 49.71875 C-43.82789795 50.78029297 -43.48782715 51.84183594 -43.13745117 52.93554688 C-40.86149883 59.06728196 -37.68648874 63.4790915 -31.8125 66.5 C-25.89248473 68.73246367 -19.73879307 69.16915436 -13.6640625 67.26953125 C-9.33836642 65.29965106 -6.68813924 62.9824285 -4 59 C-3.00465586 57.66318744 -2.00539896 56.32926698 -1 55 C0.95903745 55.47627975 2.91721097 55.95611423 4.875 56.4375 C5.96554687 56.70433594 7.05609375 56.97117187 8.1796875 57.24609375 C11 58 11 58 13 59 C12.69261138 66.37732697 9.43884993 70.60022791 4.28125 75.69921875 C-3.81017568 82.5049306 -14.35405192 84.75922423 -24.73046875 84.3828125 C-37.99667004 82.82954162 -46.72541403 77.32510358 -55.2421875 67.35546875 C-57.90298238 63.79000361 -59.5910761 60.20452553 -61 56 C-61.33644531 55.04287109 -61.33644531 55.04287109 -61.6796875 54.06640625 C-65.77016682 39.69369467 -63.55592164 22.40665117 -56.57421875 9.38671875 C-50.68479444 0.45759158 -42.71686713 -5.40721127 -32.2578125 -7.68359375 C-20.28625949 -9.36126813 -9.71027376 -7.29359128 0 0 Z M-40.3125 14.6875 C-43.36559947 19.12156544 -46 24.5134574 -46 30 C-31.81 30 -17.62 30 -3 30 C-4.07596649 20.31630156 -5.78042295 16.01864481 -12.625 9.5 C-21.84899225 3.67432069 -33.69378256 6.54013529 -40.3125 14.6875 Z " fill="#FDFDFD" transform="translate(535,88)"/>
<path d="M0 0 C7.36065244 6.12112469 12.93730338 13.80239549 14.6875 23.3125 C15.16662591 30.23707393 15.34345473 37.39466566 14.6875 44.3125 C12.96955099 46.03044901 10.68811587 45.48172129 8.34155273 45.51782227 C7.2004454 45.53776749 6.05933807 45.55771271 4.88365173 45.57826233 C3.6420076 45.59497482 2.40036346 45.61168732 1.12109375 45.62890625 C-0.14266586 45.64968735 -1.40642548 45.67046844 -2.70848083 45.69187927 C-6.07368633 45.74633714 -9.43890173 45.7965428 -12.80419922 45.84472656 C-16.23605901 45.89489759 -19.66782831 45.95060655 -23.09960938 46.00585938 C-29.83716761 46.11320191 -36.57479336 46.21494325 -43.3125 46.3125 C-43.09315796 48.21286011 -43.09315796 48.21286011 -42.86938477 50.15161133 C-42.7871315 50.86424637 -42.70487823 51.57688141 -42.62013245 52.31111145 C-41.84915006 57.32695209 -39.21105754 61.75442451 -35.30859375 64.95703125 C-28.69990618 69.18026253 -23.08243873 69.89006908 -15.3125 69.3125 C-9.8357205 67.7861844 -7.07200996 65.38647906 -3.671875 61.03125 C-2.32206921 59.324599 -0.87710523 57.82188386 0.6875 56.3125 C2.83752171 56.90158801 4.9824692 57.5092242 7.125 58.125 C8.31996094 58.46144531 9.51492188 58.79789062 10.74609375 59.14453125 C11.71675781 59.52996094 12.68742187 59.91539062 13.6875 60.3125 C14.6875 63.3125 14.6875 63.3125 14.0078125 65.29296875 C8.9953032 74.54809212 1.77673039 81.05375223 -8.3125 84.3125 C-20.43528667 87.28298415 -32.67398242 85.34794325 -43.625 79.5625 C-44.511875 78.82 -45.39875 78.0775 -46.3125 77.3125 C-46.94542969 76.79300781 -47.57835937 76.27351563 -48.23046875 75.73828125 C-57.67354816 67.28734527 -61.71504407 55.41555577 -62.52734375 43.0390625 C-62.93805102 28.155031 -59.5652324 14.11664221 -49.1796875 3.0625 C-35.96742239 -9.32054345 -14.7700864 -10.23641123 0 0 Z M-38.3125 14.3125 C-42.3646215 19.46350191 -44.08250514 23.75764649 -44.3125 30.3125 C-43.08016415 31.7737027 -43.08016415 31.7737027 -39.34350586 31.42602539 C-37.57144393 31.4258662 -35.7993774 31.42016785 -34.02734375 31.41015625 C-33.09652481 31.4087413 -32.16570587 31.40732635 -31.2066803 31.40586853 C-28.22108809 31.40025172 -25.23556971 31.3876964 -22.25 31.375 C-20.23112087 31.36998716 -18.21224057 31.36542388 -16.19335938 31.36132812 C-11.23304428 31.35027683 -6.27278468 31.33300095 -1.3125 31.3125 C-1.61402586 29.87333026 -1.92058302 28.43521407 -2.22924805 26.99755859 C-2.3994194 26.1965976 -2.56959076 25.3956366 -2.74491882 24.57040405 C-3.46125823 21.72072244 -4.59165004 19.43779096 -6.125 16.9375 C-6.60582031 16.12539062 -7.08664062 15.31328125 -7.58203125 14.4765625 C-10.36182548 11.00025097 -13.91068178 8.94133117 -18.3125 8.3125 C-26.01971273 7.93345675 -32.59827703 8.59827703 -38.3125 14.3125 Z " fill="#FDFDFD" transform="translate(1130.3125,86.6875)"/>
<path d="M0 0 C6.9939377 6.15079501 9.23210027 14.75192643 9.9765625 23.73828125 C10.12870503 28.20449631 10.140459 32.66818553 10.14453125 37.13671875 C10.14952385 39.04368027 10.14952385 39.04368027 10.15461731 40.98916626 C10.15966207 43.66354913 10.16246093 46.33783014 10.16186523 49.01220703 C10.16176289 52.44213308 10.17550701 55.8718555 10.19263744 59.30173302 C10.20639152 62.58005412 10.20584427 65.85837268 10.20703125 69.13671875 C10.21421677 70.36997894 10.22140228 71.60323914 10.22880554 72.87387085 C10.22572891 74.00910187 10.22265228 75.14433289 10.21948242 76.31396484 C10.22090744 77.31575775 10.22233246 78.31755066 10.22380066 79.34970093 C9.9765625 81.73828125 9.9765625 81.73828125 7.9765625 83.73828125 C5.26171875 84.0390625 5.26171875 84.0390625 2.0390625 84.05078125 C0.97816406 84.06753906 -0.08273437 84.08429688 -1.17578125 84.1015625 C-4.0234375 83.73828125 -4.0234375 83.73828125 -5.828125 82.41796875 C-7.52053421 80.03974666 -8.21885769 77.52336521 -9.0234375 74.73828125 C-9.73306641 75.44404297 -9.73306641 75.44404297 -10.45703125 76.1640625 C-18.2176785 83.47087073 -25.11866394 85.37988705 -35.7421875 85.08203125 C-43.80709857 84.2371358 -50.21459402 81.62772802 -55.65625 75.53515625 C-60.93931001 68.59170595 -61.72793748 61.20486138 -61.0234375 52.73828125 C-59.45890491 45.45630238 -56.63300618 40.35328973 -50.3984375 36.11328125 C-38.28287619 29.08625569 -22.77674606 28.49634213 -9.0234375 28.73828125 C-8.43317428 20.2195237 -8.43317428 20.2195237 -12.0234375 12.73828125 C-12.0234375 12.07828125 -12.0234375 11.41828125 -12.0234375 10.73828125 C-19.3596821 7.9650924 -26.83099707 7.74734078 -34.4609375 9.55078125 C-38.61736529 13.09895132 -40.68916646 17.86280026 -43.0234375 22.73828125 C-45.33661711 22.43085222 -47.64897102 22.11720423 -49.9609375 21.80078125 C-51.24871094 21.62675781 -52.53648437 21.45273438 -53.86328125 21.2734375 C-57.0234375 20.73828125 -57.0234375 20.73828125 -58.0234375 19.73828125 C-58.0234375 11.75672928 -55.58217406 6.49240398 -50.0234375 0.73828125 C-35.12924393 -9.99527578 -15.11351121 -10.7610336 0 0 Z M-40.0234375 47.73828125 C-43.59276635 51.69253772 -43.58911353 54.8773109 -43.4375 60.0390625 C-42.77057717 64.38664435 -41.37373095 65.89781507 -38.0234375 68.73828125 C-31.91058061 71.6618215 -26.27128654 71.3764205 -19.9609375 69.23828125 C-14.67881263 66.99176777 -11.78540266 63.70166514 -9.0234375 58.73828125 C-7.88266093 55.31595153 -7.92528633 52.65154908 -7.9609375 49.05078125 C-7.96996094 47.87128906 -7.97898437 46.69179687 -7.98828125 45.4765625 C-7.99988281 44.57292969 -8.01148438 43.66929687 -8.0234375 42.73828125 C-24.92050837 41.6960891 -24.92050837 41.6960891 -40.0234375 47.73828125 Z " fill="#FDFDFD" transform="translate(955.0234375,87.26171875)"/>
<path d="M0 0 C0.95438965 -0.00953201 1.9087793 -0.01906403 2.89208984 -0.02888489 C3.92543457 -0.02797348 4.9587793 -0.02706207 6.0234375 -0.02612305 C7.61019287 -0.03255074 7.61019287 -0.03255074 9.22900391 -0.03910828 C11.46841719 -0.04485836 13.70784915 -0.04534687 15.94726562 -0.04101562 C19.38443653 -0.03785467 22.82074805 -0.06131049 26.2578125 -0.08666992 C28.42968641 -0.08894264 30.60156264 -0.08964654 32.7734375 -0.08862305 C33.80678223 -0.09783279 34.84012695 -0.10704254 35.90478516 -0.11653137 C36.8591748 -0.11030258 37.81356445 -0.10407379 38.796875 -0.09765625 C39.63911621 -0.09828568 40.48135742 -0.0989151 41.34912109 -0.0995636 C42.02539551 0.0239296 42.70166992 0.14742279 43.3984375 0.2746582 C45.45523752 3.35985824 45.69310564 4.18739324 45.7109375 7.7121582 C45.72769531 8.47399414 45.74445312 9.23583008 45.76171875 10.02075195 C45.28384652 12.98561512 44.5499517 14.16337201 42.3984375 16.2746582 C39.2121582 16.72875977 39.2121582 16.72875977 35.32421875 16.6652832 C33.44730347 16.65029785 33.44730347 16.65029785 31.5324707 16.63500977 C29.94136475 16.59859375 28.35025879 16.56217773 26.7109375 16.5246582 C21.6578125 16.4421582 16.6046875 16.3596582 11.3984375 16.2746582 C11.3984375 28.1546582 11.3984375 40.0346582 11.3984375 52.2746582 C20.19436846 52.15597126 20.19436846 52.15597126 28.98974609 52.00439453 C30.6267749 51.99315552 30.6267749 51.99315552 32.296875 51.98168945 C33.41755371 51.965979 34.53823242 51.95026855 35.69287109 51.93408203 C37.03212646 52.10266724 37.03212646 52.10266724 38.3984375 52.2746582 C40.43875505 55.33513453 40.71437274 56.20961815 40.7734375 59.7121582 C40.80179688 60.47399414 40.83015625 61.23583008 40.859375 62.02075195 C40.21172242 65.18766332 38.8956396 66.26234212 36.3984375 68.2746582 C33.64941406 68.72875977 33.64941406 68.72875977 30.5390625 68.6652832 C29.53391602 68.65529297 28.52876953 68.64530273 27.49316406 68.63500977 C26.2244043 68.59859375 24.95564453 68.56217773 23.6484375 68.5246582 C17.5846875 68.4009082 17.5846875 68.4009082 11.3984375 68.2746582 C11.3984375 80.1546582 11.3984375 92.0346582 11.3984375 104.2746582 C21.7947906 104.15602613 21.7947906 104.15602613 32.19067383 104.00439453 C34.12849731 103.99315552 34.12849731 103.99315552 36.10546875 103.98168945 C37.11885315 103.9586676 37.11885315 103.9586676 38.15270996 103.93518066 C41.04838676 103.93356387 42.93347238 103.94058959 45.32714844 105.66040039 C46.72732943 107.77024467 46.83168519 109.1905383 46.8359375 111.7121582 C46.85527344 112.47399414 46.87460937 113.23583008 46.89453125 114.02075195 C46.16386224 117.34040566 45.17566518 118.26781699 42.3984375 120.2746582 C38.95262906 120.87479055 35.54070423 120.81091609 32.05078125 120.77075195 C31.04253799 120.77220718 30.03429474 120.77366241 28.99549866 120.77516174 C26.86635444 120.77350319 24.73719818 120.76194681 22.6081543 120.74121094 C19.34437326 120.7122331 16.08221393 120.72060782 12.81835938 120.73364258 C10.74999209 120.72740589 8.68162993 120.7190155 6.61328125 120.70825195 C5.14603859 120.71265541 5.14603859 120.71265541 3.64915466 120.71714783 C2.74133743 120.70446365 1.8335202 120.69177948 0.89819336 120.67871094 C-0.29949425 120.67060646 -0.29949425 120.67060646 -1.52137756 120.66233826 C-4.15698186 120.17114577 -5.03660799 119.43162515 -6.6015625 117.2746582 C-6.9516781 114.22926272 -7.11488964 111.38193613 -7.1484375 108.3293457 C-7.16925888 107.39933746 -7.19008026 106.46932922 -7.21153259 105.51113892 C-7.27498029 102.39069911 -7.31445567 99.27051586 -7.3515625 96.1496582 C-7.36869293 95.0773999 -7.38582336 94.0051416 -7.4034729 92.90039062 C-7.71572636 73.25818668 -7.58202979 53.61904184 -7.31788635 33.97733307 C-7.2890096 31.77061543 -7.26320415 29.5638781 -7.23791504 27.3571167 C-7.1890223 23.21476668 -7.12144784 19.07294471 -7.05078125 14.9309082 C-7.03603256 13.67798981 -7.02128387 12.42507141 -7.00608826 11.13418579 C-6.9830513 9.99267059 -6.96001434 8.8511554 -6.9362793 7.67504883 C-6.91993942 6.67558228 -6.90359955 5.67611572 -6.88676453 4.6463623 C-6.34349866 0.12863186 -3.97607709 0.02175071 0 0 Z " fill="#FEFEFD" transform="translate(670.6015625,50.725341796875)"/>
<path d="M0 0 C7.3844212 5.78732546 9.70180907 13.44898476 10.94174194 22.39154053 C11.54088855 28.12182618 11.6177651 33.81280502 11.61328125 39.5703125 C11.61756638 40.80997772 11.6218515 42.04964294 11.62626648 43.32687378 C11.63196383 45.92005811 11.63254437 48.51325841 11.62817383 51.10644531 C11.62604319 53.76219958 11.63066382 56.41669784 11.64868164 59.07226562 C11.67306289 62.9259229 11.677343 66.77908809 11.67578125 70.6328125 C11.684991 71.82335236 11.69420074 73.01389221 11.70368958 74.24050903 C11.69746078 75.33950531 11.69123199 76.43850159 11.68481445 77.57080078 C11.68544388 78.53752716 11.6860733 79.50425354 11.6867218 80.50027466 C11.3125 82.9375 11.3125 82.9375 9.94914246 84.74801636 C7.58551512 86.46586013 5.76553369 86.33603216 2.875 86.3125 C1.45380859 86.32410156 1.45380859 86.32410156 0.00390625 86.3359375 C-3.18618828 85.86367387 -4.39767519 85.19135161 -6.6875 82.9375 C-7.17956543 80.35273743 -7.17956543 80.35273743 -7.16992188 77.21606445 C-7.17672974 76.04086746 -7.1835376 74.86567047 -7.19055176 73.65486145 C-7.17923218 72.38301498 -7.1679126 71.11116852 -7.15625 69.80078125 C-7.16702274 67.80113834 -7.17781779 65.80149526 -7.18990326 63.80185986 C-7.20895965 59.57647057 -7.19251046 55.35107166 -7.18243408 51.12567139 C-7.17552481 47.65631393 -7.17647536 44.18737381 -7.1973877 40.71806335 C-7.21134926 38.1170332 -7.2077828 35.51583417 -7.18444824 32.91487122 C-7.22528262 25.77136174 -7.79174672 20.99086641 -11.6875 14.9375 C-14.85161813 11.86926423 -17.80952227 11.69199489 -22.0625 11.5 C-27.49346064 11.67542807 -30.42594785 12.54565237 -34.6875 15.9375 C-38.90316915 21.37790484 -39.80064876 26.90612764 -39.84521484 33.61401367 C-39.86060806 35.28550728 -39.86060806 35.28550728 -39.87631226 36.99076843 C-39.88361359 38.18361954 -39.89091492 39.37647064 -39.8984375 40.60546875 C-39.92648427 43.13216818 -39.95514855 45.65886082 -39.984375 48.18554688 C-40.02578807 52.16884374 -40.06374548 56.15206871 -40.08886719 60.13549805 C-40.11633242 63.9799202 -40.16217796 67.82376586 -40.2109375 71.66796875 C-40.21419037 72.86689255 -40.21744324 74.06581635 -40.22079468 75.30107117 C-40.23736115 76.40594376 -40.25392761 77.51081635 -40.27099609 78.64916992 C-40.27908295 79.62448166 -40.2871698 80.5997934 -40.29550171 81.60466003 C-40.42486115 82.37449722 -40.55422058 83.14433441 -40.6875 83.9375 C-44.03947843 86.17215229 -45.26541246 86.20858649 -49.1875 86.1875 C-50.62609375 86.19523437 -50.62609375 86.19523437 -52.09375 86.203125 C-54.6875 85.9375 -54.6875 85.9375 -57.6875 83.9375 C-57.97906417 81.16169626 -58.07612232 78.60924333 -58.04394531 75.83178711 C-58.04598969 74.99429428 -58.04803406 74.15680145 -58.05014038 73.29393005 C-58.05315592 70.51734804 -58.03464971 67.74135546 -58.015625 64.96484375 C-58.01256888 63.04195808 -58.01069164 61.1190702 -58.00994873 59.19618225 C-58.00534095 55.16349842 -57.9908959 51.13101377 -57.96875 47.09838867 C-57.94044828 41.91724007 -57.92953721 36.73624842 -57.9250679 31.55502987 C-57.92092037 27.58405472 -57.91110881 23.61311162 -57.89919281 19.64215279 C-57.89347737 17.73108745 -57.88872291 15.82001901 -57.88492584 13.9089489 C-57.8780861 11.24384966 -57.8644652 8.57887739 -57.84863281 5.91381836 C-57.84751495 5.11639221 -57.84639709 4.31896606 -57.84524536 3.49737549 C-57.80218658 -1.94781342 -57.80218658 -1.94781342 -56.6875 -3.0625 C-54.33436445 -3.13521741 -51.97916332 -3.14620868 -49.625 -3.125 C-48.33464844 -3.11597656 -47.04429687 -3.10695313 -45.71484375 -3.09765625 C-44.71582031 -3.08605469 -43.71679688 -3.07445313 -42.6875 -3.0625 C-42.0275 -0.7525 -41.3675 1.5575 -40.6875 3.9375 C-37.95869497 2.73682579 -35.7298147 1.23543285 -33.375 -0.5625 C-23.27044826 -7.81979457 -10.1911877 -6.30244502 0 0 Z M-41.6875 5.9375 C-41.3575 6.5975 -41.0275 7.2575 -40.6875 7.9375 C-40.3575 7.2775 -40.0275 6.6175 -39.6875 5.9375 C-40.3475 5.9375 -41.0075 5.9375 -41.6875 5.9375 Z " fill="#FDFEFD" transform="translate(777.6875,85.0625)"/>
<path d="M0 0 C7.06208381 5.49940995 9.68558577 13.05713619 10.9609375 21.6796875 C11.25129561 26.47098708 11.26507441 31.25168043 11.26171875 36.05078125 C11.26561275 37.42318347 11.26994885 38.7955845 11.27470398 40.16798401 C11.2821175 43.02470845 11.28190728 45.88130912 11.27661133 48.73803711 C11.27077401 52.40233368 11.28787233 56.06613175 11.310956 59.73034573 C11.32565232 62.55529241 11.32657155 65.38011716 11.32344627 68.20509529 C11.32420944 70.21377408 11.33808737 72.22243397 11.35212708 74.23106384 C11.34589828 75.44315018 11.33966949 76.65523651 11.33325195 77.90405273 C11.33388138 78.97388901 11.3345108 80.04372528 11.3351593 81.14598083 C11.21166611 81.98210403 11.08817291 82.81822723 10.9609375 83.6796875 C7.63877512 85.89446242 6.41060427 85.97636457 2.5234375 85.9921875 C1.57597656 86.00894531 0.62851562 86.02570313 -0.34765625 86.04296875 C-3.53907139 85.61219718 -4.73801797 84.90802251 -7.0390625 82.6796875 C-7.50662231 80.32943726 -7.50662231 80.32943726 -7.46142578 77.52490234 C-7.45466827 76.47305756 -7.44791077 75.42121277 -7.44094849 74.3374939 C-7.41402924 73.20002716 -7.38710999 72.06256042 -7.359375 70.890625 C-7.34897186 69.71762848 -7.33856873 68.54463196 -7.32785034 67.33609009 C-7.29216187 63.57512427 -7.22988534 59.81523745 -7.1640625 56.0546875 C-7.10865882 52.31566171 -7.05916767 48.57680473 -7.021698 44.83755493 C-6.99737827 42.51007906 -6.96236551 40.18268267 -6.91506958 37.8555603 C-6.80578289 28.89666409 -7.10305528 20.83781385 -13.0390625 13.6796875 C-17.70269744 10.73583117 -22.71450758 11.09142223 -28.0390625 11.6796875 C-31.6407922 12.72194628 -34.1555145 14.38543829 -36.31640625 17.55078125 C-39.21341882 23.00458783 -40.1550834 28.10284743 -40.19677734 34.2644043 C-40.21217056 35.90586678 -40.21217056 35.90586678 -40.22787476 37.58049011 C-40.23517609 38.75146744 -40.24247742 39.92244476 -40.25 41.12890625 C-40.27804654 43.61003289 -40.30671082 46.09115261 -40.3359375 48.57226562 C-40.37735126 52.48315395 -40.41424143 56.3939099 -40.44042969 60.30493164 C-40.46789577 64.07985994 -40.51374085 67.85420124 -40.5625 71.62890625 C-40.56575287 72.80595627 -40.56900574 73.98300629 -40.57235718 75.19572449 C-40.58892365 76.28057632 -40.60549011 77.36542816 -40.62255859 78.4831543 C-40.63064545 79.44070114 -40.6387323 80.39824799 -40.64706421 81.3848114 C-40.77642365 82.14212051 -40.90578308 82.89942963 -41.0390625 83.6796875 C-44.39104093 85.91433979 -45.61697496 85.95077399 -49.5390625 85.9296875 C-50.97765625 85.93742187 -50.97765625 85.93742187 -52.4453125 85.9453125 C-55.0390625 85.6796875 -55.0390625 85.6796875 -58.0390625 83.6796875 C-58.33062667 80.90388376 -58.42768482 78.35143083 -58.39550781 75.57397461 C-58.39755219 74.73648178 -58.39959656 73.89898895 -58.40170288 73.03611755 C-58.40471842 70.25953554 -58.38621221 67.48354296 -58.3671875 64.70703125 C-58.36413138 62.78414558 -58.36225414 60.8612577 -58.36151123 58.93836975 C-58.35690345 54.90568592 -58.3424584 50.87320127 -58.3203125 46.84057617 C-58.29201078 41.65942757 -58.28109971 36.47843592 -58.2766304 31.29721737 C-58.27248287 27.32624222 -58.26267131 23.35529912 -58.25075531 19.38434029 C-58.24503987 17.47327495 -58.24028541 15.56220651 -58.23648834 13.6511364 C-58.2296486 10.98603716 -58.2160277 8.32106489 -58.20019531 5.65600586 C-58.19907745 4.85857971 -58.19795959 4.06115356 -58.19680786 3.23956299 C-58.15374908 -2.20562592 -58.15374908 -2.20562592 -57.0390625 -3.3203125 C-54.68592695 -3.39302991 -52.33072582 -3.40402118 -49.9765625 -3.3828125 C-48.68621094 -3.37378906 -47.39585937 -3.36476563 -46.06640625 -3.35546875 C-45.06738281 -3.34386719 -44.06835938 -3.33226563 -43.0390625 -3.3203125 C-41.0390625 3.3046875 -41.0390625 3.3046875 -41.0390625 6.6796875 C-40.3996875 5.7928125 -39.7603125 4.9059375 -39.1015625 3.9921875 C-29.17560124 -7.97568579 -12.33658754 -7.9880586 0 0 Z " fill="#FDFDFD" transform="translate(397.0390625,85.3203125)"/>
<path d="M0 0 C-10.47943445 9.12724936 -10.47943445 9.12724936 -16.59375 8.90625 C-19.11269757 8.39032098 -21.53106024 7.71438321 -24 7 C-41.60268297 3.53172508 -59.97712658 7.35601576 -75.078125 16.95703125 C-77.79005215 18.89465133 -80.40198309 20.91306839 -83 23 C-83.62132813 23.44601563 -84.24265625 23.89203125 -84.8828125 24.3515625 C-96.05073139 32.81840333 -105.1520144 49.1080576 -108.5 62.5 C-109.89134178 67.74759152 -112.76150571 69.87492916 -117 73 C-118.3303125 74.3303125 -118.3303125 74.3303125 -119.6875 75.6875 C-121.69413609 77.69413609 -123.68472871 79.37073502 -126 81 C-126.495 77.535 -126.495 77.535 -127 74 C-126.34 74 -125.68 74 -125 74 C-125.3403125 73.0409375 -125.3403125 73.0409375 -125.6875 72.0625 C-126.07657678 68.24954758 -125.07007102 65.77780809 -123.76953125 62.2265625 C-122.83393295 59.51950142 -122.36364296 56.8364151 -122 54 C-121.34 54 -120.68 54 -120 54 C-120 52.35 -120 50.7 -120 49 C-143.52822977 59.89838581 -143.52822977 59.89838581 -158.78125 79.93359375 C-160.71170414 86.24567078 -160.59925341 92.71051768 -157.6953125 98.68359375 C-156.2034427 101.18117677 -154.62837491 103.5898431 -153 106 C-151.99146975 107.66151873 -150.98909134 109.3268365 -150 111 C-151.65 113.64 -153.3 116.28 -155 119 C-163.63427827 116.84143043 -171.64496504 107.54310125 -176.16796875 100.0703125 C-179.01685851 93.62352911 -179.30137663 85.90969132 -177.0859375 79.25390625 C-169.59367013 63.37513314 -153.6548154 53.73977246 -138 47 C-134.91484123 45.89568806 -131.80997302 44.86377805 -128.70092773 43.82885742 C-116.30728112 39.65163796 -111.37449779 36.58259812 -105 25 C-92.63246943 9.17741327 -73.56502967 -4.30472565 -53.50683594 -7.70263672 C-35.11754879 -9.88399158 -16.35563105 -9.34607489 0 0 Z " fill="#FDFDFD" transform="translate(178,21)"/>
<path d="M0 0 C3.57355319 1.54688529 6.12558556 3.70537105 9 6.3125 C9.845625 7.07175781 10.69125 7.83101563 11.5625 8.61328125 C17.67296657 14.59644643 22.11528247 21.1989161 22.5 29.9375 C21.95629608 40.59739202 16.61413179 47.88802721 9 55 C5.47889556 57.91492628 1.82278062 60.49705148 -2 63 C-2.84433594 63.57234375 -3.68867188 64.1446875 -4.55859375 64.734375 C-15.36750665 71.57426763 -28.18824073 76.58070002 -40.5 79.9609375 C-43.7517233 81.312435 -44.47688125 82.73691228 -46.125 85.8125 C-58.34260509 106.36396817 -78.24986824 119.15017254 -100.76953125 125.8203125 C-109.94479714 127.87210424 -119.65669081 127.16472044 -129 127 C-129 126.34 -129 125.68 -129 125 C-128.49138428 124.71801758 -127.98276855 124.43603516 -127.45874023 124.14550781 C-125.11806972 122.84746821 -122.77778284 121.54873841 -120.4375 120.25 C-119.63763672 119.8065625 -118.83777344 119.363125 -118.01367188 118.90625 C-117.22412109 118.46796875 -116.43457031 118.0296875 -115.62109375 117.578125 C-114.44123901 116.92517456 -114.44123901 116.92517456 -113.23754883 116.2590332 C-111.84670026 115.47642479 -110.46439232 114.67816828 -109.09643555 113.85620117 C-105.14012025 111.48086202 -101.36636795 110.07031777 -96.9375 108.8125 C-78.67482883 103.15258125 -64.21108094 89.71632472 -54.99169922 73.19287109 C-54.0853372 71.46883869 -53.19859909 69.73453402 -52.3125 68 C-49.94131245 63.37562239 -47.75039066 60.2262452 -43.48046875 57.24609375 C-41.65729398 55.71154823 -40.99837071 54.14418014 -40 52 C-38 49.75 -38 49.75 -36 48 C-35.34 48 -34.68 48 -34 48 C-33.34 46.68 -32.68 45.36 -32 44 C-31.67 44 -31.34 44 -31 44 C-31.3663759 52.11522622 -33.41766247 59.3283056 -36 67 C-36.495 68.485 -36.495 68.485 -37 70 C-13.50512838 58.98094826 -13.50512838 58.98094826 2 39 C4.26908662 32.19274014 3.93043707 25.05416573 0.75 18.625 C-1.32296449 14.96335332 -3.56318872 11.42958624 -6 8 C-5.34 8 -4.68 8 -4 8 C-3.71125 7.236875 -3.4225 6.47375 -3.125 5.6875 C-2 3 -2 3 0 0 Z " fill="#FDFDFD" transform="translate(260,79)"/>
<path d="M0 0 C1.258125 -0.01675781 2.51625 -0.03351562 3.8125 -0.05078125 C4.864375 0.06910156 5.91625 0.18898437 7 0.3125 C9.23413013 3.66369519 9.23847762 4.7302755 9.1953125 8.63671875 C9.18886719 9.66474609 9.18242187 10.69277344 9.17578125 11.75195312 C9.15902344 12.82380859 9.14226562 13.89566406 9.125 15 C9.11597656 16.08345703 9.10695313 17.16691406 9.09765625 18.28320312 C9.07407452 20.95972948 9.03820336 23.63614241 9 26.3125 C14.61 26.3125 20.22 26.3125 26 26.3125 C27.31164842 28.93579684 27.13262846 30.94948625 27.125 33.875 C27.12886719 35.36193359 27.12886719 35.36193359 27.1328125 36.87890625 C27 39.3125 27 39.3125 26 40.3125 C23.14122091 40.54951239 20.30116703 40.73469182 17.4375 40.875 C16.63119141 40.91818359 15.82488281 40.96136719 14.99414062 41.00585938 C12.99631195 41.11225262 10.9981793 41.21290888 9 41.3125 C9.04159602 48.93008696 9.11385054 56.54693898 9.20751953 64.1640625 C9.23576107 66.75579188 9.25695965 69.34760789 9.27099609 71.93945312 C9.29238062 75.66321271 9.33901086 79.38592701 9.390625 83.109375 C9.39185364 84.26991394 9.39308228 85.43045288 9.39434814 86.62615967 C9.41406677 87.70697815 9.4337854 88.78779663 9.45410156 89.90136719 C9.46298401 90.85178894 9.47186646 91.80221069 9.48101807 92.78143311 C10.15240935 96.05579805 11.40406226 97.26881369 14 99.3125 C16.75090722 99.72006599 16.75090722 99.72006599 19.625 99.4375 C22.5390625 99.2578125 22.5390625 99.2578125 25 99.3125 C27.52739368 101.83989368 27.49286453 103.24087798 27.875 106.75 C28.05675781 108.20212891 28.05675781 108.20212891 28.2421875 109.68359375 C28 112.3125 28 112.3125 26.2578125 114.109375 C19.15928535 117.89198116 10.45840378 116.28083766 3 114.3125 C-1.8729449 111.87602755 -4.49478623 109.1439837 -7 104.3125 C-9.18930251 96.78783472 -9.26638688 89.30091601 -9.1953125 81.5234375 C-9.1924826 80.33900055 -9.18965271 79.1545636 -9.18673706 77.93423462 C-9.17562395 74.18521631 -9.1505358 70.43644499 -9.125 66.6875 C-9.11495874 64.13151389 -9.1058349 61.575524 -9.09765625 59.01953125 C-9.07571371 52.7837712 -9.04232539 46.54815325 -9 40.3125 C-10.28197266 40.32990234 -10.28197266 40.32990234 -11.58984375 40.34765625 C-12.69457031 40.35667969 -13.79929687 40.36570313 -14.9375 40.375 C-16.03964844 40.38660156 -17.14179688 40.39820313 -18.27734375 40.41015625 C-21 40.3125 -21 40.3125 -22 39.3125 C-22.09873816 37.31450428 -22.12971799 35.31292842 -22.125 33.3125 C-22.12757813 32.219375 -22.13015625 31.12625 -22.1328125 30 C-22 27.3125 -22 27.3125 -21 26.3125 C-18.98035801 26.24005947 -16.95832876 26.22872812 -14.9375 26.25 C-13.28041016 26.26353516 -13.28041016 26.26353516 -11.58984375 26.27734375 C-10.73519531 26.28894531 -9.88054687 26.30054687 -9 26.3125 C-9.01047363 25.59594238 -9.02094727 24.87938477 -9.03173828 24.14111328 C-9.07321299 20.90661095 -9.09929892 17.67216447 -9.125 14.4375 C-9.14175781 13.30957031 -9.15851563 12.18164062 -9.17578125 11.01953125 C-9.18222656 9.94316406 -9.18867188 8.86679688 -9.1953125 7.7578125 C-9.20578613 6.76281738 -9.21625977 5.76782227 -9.22705078 4.74267578 C-8.70716611 -0.82176728 -4.59170922 0.01411386 0 0 Z " fill="#FEFEFD" transform="translate(438,55.6875)"/>
<path d="M0 0 C1.86978516 0.05994141 1.86978516 0.05994141 3.77734375 0.12109375 C5.02644531 0.14300781 6.27554687 0.16492187 7.5625 0.1875 C10.71484375 0.55859375 10.71484375 0.55859375 12.71484375 2.55859375 C12.96931934 4.61071777 12.96931934 4.61071777 12.97554016 7.18945312 C12.98262497 8.165354 12.98970978 9.14125488 12.99700928 10.14672852 C12.99453186 11.22108154 12.99205444 12.29543457 12.98950195 13.40234375 C12.99716835 15.09508423 12.99716835 15.09508423 13.00498962 16.82202148 C13.01893673 20.5675989 13.01792513 24.31299339 13.015625 28.05859375 C13.01950882 30.65169341 13.02384284 33.24479244 13.02861023 35.83789062 C13.03608327 41.27866952 13.03591061 46.71937695 13.03051758 52.16015625 C13.02447387 58.45523392 13.03679688 64.7500883 13.05808765 71.04512787 C13.07779805 77.09464655 13.08088105 83.14404787 13.07735252 89.19360352 C13.07786764 91.77092005 13.08314073 94.34824001 13.09316444 96.92553711 C13.10543584 100.52215013 13.09879318 104.11823975 13.0871582 107.71484375 C13.09862381 109.32637329 13.09862381 109.32637329 13.11032104 110.97045898 C13.10330673 111.94635986 13.09629242 112.92226074 13.08906555 113.92773438 C13.08923329 114.77871704 13.08940104 115.62969971 13.08957386 116.50646973 C12.90408246 117.52227112 12.90408246 117.52227112 12.71484375 118.55859375 C9.26808966 120.85642981 7.78156263 120.85614258 3.71484375 120.87109375 C2.66296875 120.88785156 1.61109375 120.90460938 0.52734375 120.921875 C-2.28515625 120.55859375 -2.28515625 120.55859375 -3.93475533 119.32208061 C-5.6593621 117.0699188 -5.67469955 115.79969241 -5.70407104 112.97952271 C-5.72094467 112.04023926 -5.7378183 111.10095581 -5.75520325 110.13320923 C-5.75848129 109.10456757 -5.76175934 108.0759259 -5.76513672 107.01611328 C-5.78014725 105.93130676 -5.79515778 104.84650024 -5.81062317 103.7288208 C-5.85620827 100.13300818 -5.87995326 96.53743283 -5.90234375 92.94140625 C-5.9268022 90.44659582 -5.95213308 87.95179381 -5.978302 85.45700073 C-6.02974388 80.22316612 -6.07064617 74.98935026 -6.10351562 69.75537109 C-6.1416771 63.70951931 -6.20149447 57.66416828 -6.27258956 51.61862099 C-6.34036747 45.799352 -6.39099434 39.98004672 -6.43442154 34.16054916 C-6.45466183 31.68615506 -6.47945155 29.21179389 -6.50884628 26.73749161 C-6.54779713 23.27820026 -6.56724936 19.81933256 -6.58154297 16.35986328 C-6.5969664 15.33527008 -6.61238983 14.31067688 -6.62828064 13.2550354 C-6.62769898 1.12694525 -6.62769898 1.12694525 0 0 Z " fill="#FEFEFE" transform="translate(309.28515625,50.44140625)"/>
<path d="M0 0 C0.99 0 1.98 0 3 0 C4.06648279 11.10496365 4.06648279 11.10496365 1.51171875 15.64453125 C-0.23015872 17.64606748 -1.87609475 19.40947367 -4 21 C-4.66 21 -5.32 21 -6 21 C-6.2475 21.556875 -6.495 22.11375 -6.75 22.6875 C-8.22924818 25.42410913 -9.93467439 27.67650869 -12 30 C-12.66 30 -13.32 30 -14 30 C-14.33644531 30.77537109 -14.33644531 30.77537109 -14.6796875 31.56640625 C-16.5046891 34.93024057 -18.82571979 37.89044847 -21.125 40.9375 C-34.08691986 58.4237835 -45.60394631 76.51845746 -44 99 C-43.01527432 105.07410001 -40.04406827 108.65424272 -35.3046875 112.46484375 C-28.82661879 116.7798963 -21.55270929 118.5381853 -14 120 C-14 120.33 -14 120.66 -14 121 C-29.903871 122.51434577 -42.54781622 122.90125818 -56 113 C-62.03504821 106.02746858 -63.29999626 98.23468059 -62.97265625 89.296875 C-62.90908856 86.99703963 -62.90908856 86.99703963 -63.55859375 84.828125 C-64 83 -64 83 -63 81 C-62.01 80.505 -62.01 80.505 -61 80 C-61.33 79.01 -61.66 78.02 -62 77 C-60.02 76.505 -60.02 76.505 -58 76 C-57.87431641 75.01 -57.87431641 75.01 -57.74609375 74 C-56.7527792 70.0059394 -54.95774144 66.63618003 -53.0625 63 C-49.77101703 56.62001105 -49.77101703 56.62001105 -47 50 C-46.34 50 -45.68 50 -45 50 C-44.66355469 49.21882813 -44.66355469 49.21882813 -44.3203125 48.421875 C-42.50998487 45.10115568 -40.21326489 42.20774091 -37.875 39.25 C-37.38652588 38.62891357 -36.89805176 38.00782715 -36.39477539 37.36791992 C-33.03131266 33.14942348 -29.499213 29.24562383 -25.55859375 25.55078125 C-23.77728226 23.88105095 -23.77728226 23.88105095 -22 21 C-20.68733482 19.64631404 -19.35432675 18.31200404 -18 17 C-17.34 16.34 -16.68 15.68 -16 15 C-14.94444481 14.07534479 -13.88104736 13.15961011 -12.8125 12.25 C-11.88824219 11.45916016 -11.88824219 11.45916016 -10.9453125 10.65234375 C-9.65356304 9.55513487 -8.35669996 8.46391664 -7.0546875 7.37890625 C-6.13042969 6.60353516 -6.13042969 6.60353516 -5.1875 5.8125 C-4.62417969 5.34457031 -4.06085938 4.87664062 -3.48046875 4.39453125 C-1.75060429 2.87000996 -1.75060429 2.87000996 0 0 Z M-60 77 C-59 79 -59 79 -59 79 Z M-62 84 C-61 86 -61 86 -61 86 Z " fill="#FDFDFD" transform="translate(76,84)"/>
<path d="M0 0 C2.31284456 0.14026283 4.62527591 0.28735558 6.9375 0.4375 C8.86916016 0.55931641 8.86916016 0.55931641 10.83984375 0.68359375 C14 1 14 1 15 2 C15.23287008 3.68183948 15.41264166 5.3712416 15.5625 7.0625 C15.68818359 8.44115234 15.68818359 8.44115234 15.81640625 9.84765625 C15.87699219 10.55792969 15.93757812 11.26820312 16 12 C16.4125 11.46890625 16.825 10.9378125 17.25 10.390625 C22.21847614 4.31311401 26.3285303 0.47701627 34.328125 -0.33984375 C37.6402554 -0.43103677 40.72496455 -0.51491351 44 0 C46.17330391 3.25995586 46.24921459 4.22979966 46.1875 8 C46.18105469 8.86625 46.17460938 9.7325 46.16796875 10.625 C46 13 46 13 45 16 C41.49219942 16.78021604 38.1473412 17.13452916 34.5625 17.3125 C28.36702797 17.85377108 25.07826166 19.86400885 20.75 24.3125 C16.28037639 31.17656483 16.70630483 38.49780987 16.69140625 46.42578125 C16.6662711 48.85482037 16.64087276 51.28385677 16.61523438 53.71289062 C16.58636836 57.52937252 16.56233736 61.34580773 16.54370117 65.16235352 C16.52216192 68.8545608 16.48276113 72.5462508 16.44140625 76.23828125 C16.44129044 77.38718338 16.44117462 78.53608551 16.4410553 79.71980286 C16.42771652 80.77817856 16.41437775 81.83655426 16.40063477 82.92700195 C16.39302879 84.32762627 16.39302879 84.32762627 16.38526917 85.75654602 C16.25813034 86.49688583 16.13099152 87.23722565 16 88 C12.64802157 90.23465229 11.42208754 90.27108649 7.5 90.25 C6.06140625 90.25773437 6.06140625 90.25773437 4.59375 90.265625 C2 90 2 90 -1 88 C-1.29158365 85.22934996 -1.3886262 82.68246087 -1.35644531 79.91015625 C-1.35848969 79.07426971 -1.36053406 78.23838318 -1.36264038 77.37716675 C-1.36565625 74.60539093 -1.34714726 71.83420542 -1.328125 69.0625 C-1.32506866 67.14200996 -1.32319159 65.22151772 -1.32244873 63.30102539 C-1.31784058 59.27253766 -1.30339523 55.24424926 -1.28125 51.21582031 C-1.25296724 46.04373822 -1.24203907 40.87181332 -1.2375679 35.69966125 C-1.23341699 31.73293474 -1.22360225 27.76624024 -1.21169281 23.79953003 C-1.20598265 21.89208229 -1.20122642 19.98463146 -1.19742584 18.07717896 C-1.19057424 15.41467852 -1.176947 12.75230412 -1.16113281 10.08984375 C-1.16001495 9.29601288 -1.15889709 8.50218201 -1.15774536 7.68429565 C-1.11469165 2.22938331 -1.11469165 2.22938331 0 0 Z " fill="#FDFDFD" transform="translate(562,81)"/>
<path d="M0 0 C0 0.66 0 1.32 0 2 C0.66 2 1.32 2 2 2 C5.84391187 5.49209621 8.99941102 9.38033991 12.125 13.5 C12.55425781 14.05558594 12.98351562 14.61117187 13.42578125 15.18359375 C20 23.78064904 20 23.78064904 20 27 C21.8253125 27.3403125 21.8253125 27.3403125 23.6875 27.6875 C30.04403536 29.07862675 35.98401914 31.56385319 42 34 C42 37.57575896 40.91159393 39.05295935 39 42 C34.76570244 40.68938409 30.92592596 39.05643741 27 37 C27.47287245 39.77113427 28.08272777 42.21251974 29.10546875 44.83984375 C31.89576695 52.82795377 31.89576695 52.82795377 30.18847656 56.96777344 C27.63614448 61.39369508 24.52273005 65.3113643 21 69 C20.34 69 19.68 69 19 69 C18.89042969 68.38705078 18.78085938 67.77410156 18.66796875 67.14257812 C15.41172523 49.44502698 10.63255063 35.25143946 -0.53125 21.0390625 C-2 19 -2 19 -2 17 C-2.53625 16.79375 -3.0725 16.5875 -3.625 16.375 C-6.43426902 14.74858109 -8.30369833 12.72457788 -10.5390625 10.3984375 C-12.20489837 8.80386734 -13.84902568 7.82729782 -16 7 C-15.67 5.68 -15.34 4.36 -15 3 C-11.92382812 2.70703125 -11.92382812 2.70703125 -8.84765625 2.4140625 C-8.23792969 2.27742188 -7.62820312 2.14078125 -7 2 C-6.67 1.34 -6.34 0.68 -6 0 C-3 -1 -3 -1 0 0 Z " fill="#FDFDFD" transform="translate(197,33)"/>
<path d="M0 0 C6.22961977 -0.05059881 12.4591868 -0.08569062 18.68896484 -0.10986328 C20.8094277 -0.11993751 22.92987661 -0.13359733 25.05029297 -0.15087891 C28.09345943 -0.17506489 31.13644266 -0.18646869 34.1796875 -0.1953125 C35.13181122 -0.20563507 36.08393494 -0.21595764 37.06491089 -0.22659302 C37.94567291 -0.22674408 38.82643494 -0.22689514 39.73388672 -0.22705078 C40.51110077 -0.231492 41.28831482 -0.23593323 42.08908081 -0.24050903 C44 0 44 0 46 2 C46.23046875 4.75 46.23046875 4.75 46.1875 8 C46.18105469 9.0725 46.17460938 10.145 46.16796875 11.25 C46 14 46 14 45 16 C38.62800706 16.07589394 32.25613009 16.1285335 25.88378906 16.16479492 C23.71479944 16.179907 21.5458405 16.20039735 19.37695312 16.22631836 C16.26424604 16.26259534 13.15194195 16.2797019 10.0390625 16.29296875 C9.065065 16.30845261 8.0910675 16.32393646 7.08755493 16.33988953 C6.18677216 16.34011612 5.28598938 16.34034271 4.35791016 16.34057617 C3.16544174 16.35056892 3.16544174 16.35056892 1.94888306 16.36076355 C1.30575165 16.24171158 0.66262024 16.12265961 0 16 C-2.07324138 12.89013793 -2.27392186 12.10891613 -2.25 8.5625 C-2.25515625 7.80066406 -2.2603125 7.03882812 -2.265625 6.25390625 C-1.97370457 3.77687558 -1.15687708 2.18709507 0 0 Z " fill="#FEFEFD" transform="translate(605,114)"/>
<path d="M0 0 C2.5 2.3125 2.5 2.3125 5 5 C5 5.99 5 6.98 5 8 C2.5 10.1875 2.5 10.1875 0 12 C-2 10 -4 8 -6 6 C-5.195625 5.38125 -4.39125 4.7625 -3.5625 4.125 C-0.96125481 2.25835959 -0.96125481 2.25835959 0 0 Z " fill="#E3EAEA" transform="translate(1131,198)"/>
<path d="" fill="#FFFFFF" transform="translate(0,0)"/>
<path d="" fill="#FFFFFF" transform="translate(0,0)"/>
<path d="" fill="#FFFFFF" transform="translate(0,0)"/>
<path d="" fill="#FFFFFF" transform="translate(0,0)"/>
<path d="" fill="#FFFFFF" transform="translate(0,0)"/>
<path d="" fill="#FFFFFF" transform="translate(0,0)"/>
<path d="" fill="#FFFFFF" transform="translate(0,0)"/>
<path d="" fill="#FFFFFF" transform="translate(0,0)"/>
<path d="" fill="#FFFFFF" transform="translate(0,0)"/>
<path d="" fill="#FFFFFF" transform="translate(0,0)"/>
<path d="" fill="#FFFFFF" transform="translate(0,0)"/>
</svg>
