<?xml version="1.0" encoding="UTF-8"?>
<svg width="289px" height="56px" viewBox="0 0 289 56" version="1.1" xmlns="http://www.w3.org/2000/svg" xmlns:xlink="http://www.w3.org/1999/xlink">
    <!-- Generator: Sketch 59.1 (86144) - https://sketch.com -->
    <title>logo_production_aprilfools</title>
    <desc>Created with Sketch.</desc>
    <g id="Page-1" stroke="none" stroke-width="1" fill="none" fill-rule="evenodd">
        <g id="logo_production_aprilfools" transform="translate(0.000000, -5.000000)">
            <g id="background"></g>
            <g id="Label" transform="translate(235.000000, 32.000000)"></g>
            <polygon id="Path" fill="#231F20" points="92.041 47.299 87.647 47.299 87.647 15.916 92.041 15.916"></polygon>
            <path d="M199.469,15.681 L195.468,15.681 L181.816,47.299 L185.819,47.299 L190.056,37.337 L199.862,37.337 L201.746,47.299 L205.748,47.299 L199.469,15.681 Z M191.545,34.196 L196.724,21.252 L196.802,21.252 L199.313,34.196 L191.545,34.196 Z" id="Shape" fill="#231F20"></path>
            <path d="M101.611,26.861 L101.611,29.451 C103.259,27.645 105.534,26.548 107.809,26.548 C110.241,26.548 112.438,27.646 113.537,29.686 C114.557,31.099 114.713,32.745 114.713,35.649 L114.713,47.575 L110.712,47.575 L110.712,35.727 C110.712,31.568 109.457,29.921 106.398,29.921 C104.515,29.921 102.945,30.783 101.612,32.745 L101.612,47.575 L97.296,47.575 L97.296,26.861 L101.611,26.861 L101.611,26.861 Z" id="Path" fill="#231F20"></path>
            <path d="M125.37,26.744 L131.96,26.744 L131.96,30.432 L125.37,30.432 L125.37,39.377 L125.37,40.475 C125.448,43.063 126.468,44.084 128.43,44.084 C129.764,44.084 131.333,43.692 133.058,42.515 L133.058,46.358 C131.568,47.221 129.292,47.771 127.802,47.771 C124.977,47.771 122.545,46.358 121.76,44.005 C121.368,42.75 121.368,42.199 121.368,39.611 L121.368,30.431 L117.759,30.431 L117.759,29.882 L125.37,22.428 L125.37,26.744 L125.37,26.744 Z" id="Path" fill="#231F20"></path>
            <path d="M153.054,36.944 C153.054,30.431 149.443,26.352 143.95,26.352 C138.144,26.352 134.222,30.666 134.222,36.944 C134.222,40.082 135.32,42.75 137.282,44.788 C139.322,46.984 141.439,47.77 144.423,47.77 C147.641,47.77 149.836,47.065 152.581,45.337 L152.581,41.337 C150.305,43.062 147.874,43.926 145.129,43.926 C141.284,43.926 138.774,41.337 138.381,37.336 L153.054,37.336 L153.054,36.944 L153.054,36.944 Z M138.381,34.981 C139.088,31.607 140.892,29.882 143.95,29.882 C146.777,29.882 148.579,31.608 148.893,34.981 L138.381,34.981 Z" id="Shape" fill="#231F20"></path>
            <polygon id="Path" fill="#231F20" points="246.299 47.378 242.299 47.378 245.279 26.744 249.046 26.744"></polygon>
            <path d="M248.105,22.271 C246.848,22.271 245.908,21.408 245.908,20.152 C245.908,18.897 246.613,17.955 248.105,17.955 C249.202,17.955 250.221001,18.897 250.221001,20.231 C250.222,21.408 249.202,22.271 248.105,22.271 L248.105,22.271 Z" id="Path" fill="#231F20"></path>
            <path d="M268.515,37.415 C268.75,36.787 268.75,35.413 268.75,34.628 C268.75,29.607 265.688,26.076 261.218,26.076 C255.726,26.076 251.489,31.412 251.489,38.159 C251.489,44.043 255.098,47.966 260.275,47.966 C262.709,47.966 264.983,47.103 267.18,45.534 L267.728,41.689 C264.983,43.729 262.629,44.749 260.669,44.749 C257.763,44.749 255.488,42.16 255.488,38.552 C255.488,38.159 255.488,38.042 255.488,37.415 L268.515,37.415 Z M260.996,29.223 C261.069,29.218 261.142,29.215 261.218,29.215 C263.413,29.215 264.904,31.019 264.904,33.608 L264.904,35.06 L264.79,35.06 L256.352,35.06 L255.963,35.06 C256.706,32.49 258.324,29.288 260.996,29.223 Z" id="Shape" fill="#231F20"></path>
            <path d="M281.624,30.195 L277.309,30.195 L274.093,56.166 L270.326,56.166 L273.464,30.195 L270.326,30.195 L270.717,26.821 L274.093,26.821 C274.328,23.212 275.034,21.328 276.211,19.367 C278.017,17.014 280.84,15.602 283.979,15.602 C285.468,15.602 286.803,15.915 289,16.622 L288.372,20.467 C287.038,19.761 285.468,19.29 284.134,19.29 C280.526,19.29 278.251,22.036 277.78,26.822 L282.016,26.822 L281.624,30.195 L281.624,30.195 Z" id="Path" fill="#231F20"></path>
            <path d="M231.595,42.75 C231.595,42.498 231.598,42.278 231.618,42.049 L233.714,30.149 L238.844,30.149 L239.568,26.744 L234.34,26.744 L235.048,22.429 L226.214,29.601 L226.204,29.597 L226.099,30.15 L229.712,30.15 L227.51,42.623 L227.51,42.623 C227.47,42.816 227.437,43.011 227.437,43.222 C227.437,46.124 229.634,47.929 233.086,47.929 C234.42,47.929 235.518,47.694 237.166,46.987 L237.56,43.223 C236.303,44.008 235.048,44.478 233.714,44.478 C232.301,44.476 231.595,43.927 231.595,42.75 Z" id="Path" fill="#231F20" fill-rule="nonzero"></path>
            <path d="M220.705,26.037 C212.622,26.037 206.974,31.059 206.974,38.434 C206.974,44.319 210.583,47.927 216.154,47.927 C216.438,47.927 216.702,47.916 216.953,47.893 C219.983,47.807 221.843,46.672 221.843,46.672 L222.343,43.207 C220.335,44.325 217.067,44.473 217.067,44.473 L217.067,44.483 C217.001,44.479 216.932,44.476 216.86,44.476 C213.252,44.476 211.054,42.122 211.054,38.434 C211.054,33.334 215.135,29.568 220.548,29.568 C221.175,29.568 221.882,29.568 223.137,29.804 L223.451,29.883 L223.922,26.43 C222.587,26.037 222.037,26.037 220.705,26.037 Z" id="Path" fill="#231F20" fill-rule="nonzero"></path>
            <path d="M167.153,26.429 C166.361,26.429 165.582,26.626 164.799,27.082 L164.799,27.078 C164.799,27.078 162.199,28.492 160.875,30.251 L160.875,26.744 L156.875,26.744 L156.875,47.456 L160.875,47.456 L160.875,36.472 C160.875,33.099 163.229,30.353 165.818,30.353 C166.917,30.353 168.486,30.98 169.82,32.313 L171.86,28.704 C170.213,27.213 168.644,26.429 167.153,26.429 Z" id="Path" fill="#231F20" fill-rule="nonzero"></path>
            <path d="M27.654,15.521 C31.467,12.428 41.549,7.769 47.452,7.769 C48.069,7.416 49.266,6.125 48.229,5.577 C41.572,5.577 29.767,10.818 25.062,15.521 L26.439,15.521 L27.654,15.521 Z" id="Path" fill="#231F20" fill-rule="nonzero"></path>
            <path d="M16.159,58.754 C12.945,58.754 10.125,57.949 8.08,56.339 C7.169,55.571 3.174,51.588 5.783,42.592 C6.061,41.703 6.353,40.79 6.614,39.789 C6.739,39.295 6.043,38.623 5.621,39.159 C5.183,39.73 4.82,40.416 4.515,41.165 L4.515,41.165 C4.515,41.165 2.118,46.374 3.141,51.746 C3.46,53.805 4.275,55.546 5.483,56.935 C5.488,56.943 5.494,56.948 5.499,56.956 L5.502,56.956 C7.731,59.505 11.276,60.874 15.463,60.874 C26.081,60.874 38.069,55.099 46.622,48.247 L44.11,48.247 C36.504,53.89 25.007,58.754 16.159,58.754 Z" id="Path" fill="#231F20" fill-rule="nonzero"></path>
            <path d="M38.635,26.074 L50.862,26.074 L50.862,16.165 C47.384,16.165 44.786,16.165 42.878,16.165 C42.861,16.165 41.683,16.165 38.198,16.165 C34.33,16.165 27.618,16.165 16.497,16.165 L16.497,26.074 L28.725,26.074 C28.725,29.945 28.725,33.8 28.725,37.67 L16.498,37.67 L16.498,47.542 L50.862,47.542 C50.862,37.681 50.862,41.023 50.862,37.67 L38.635,37.67 L38.635,26.074 Z" id="Path" fill="#231F20" fill-rule="nonzero"></path>
            <polygon id="Path" fill="#231F20" fill-rule="nonzero" points="15.602 36.774 27.83 36.774 27.83 26.97 15.602 26.97 15.602 16.165 0 31.872 15.602 47.541"></polygon>
            <polygon id="Path" fill="#231F20" fill-rule="nonzero" points="67.36 31.872 51.759 16.165 51.759 26.97 39.531 26.97 39.531 36.774 51.759 36.774 51.759 47.541"></polygon>
            <path d="M62.596,18.375 C62.596,20.477 62.38,22.132 61.718,24.129 C61.511,24.985 61.695,25.454 62.551,24.929 C63.682,23.205 64.092,20.099 64.092,18.011 C64.092,11.445 60.896,6.832 54.227,5.611 C53.359,5.817 52.732,7.05 53.428,7.803 C58.84,8.134 62.596,13.261 62.596,18.375 Z" id="Path" fill="#231F20" fill-rule="nonzero"></path>
            <polygon id="Path" fill="#231F20" fill-rule="nonzero" points="181.815 38.564 171.962 38.564 171.962 35.321 181.815 35.321"></polygon>
        </g>
    </g>
</svg>