<?xml version="1.0" encoding="UTF-8" standalone="no"?>
<!-- Generator: Adobe Illustrator 16.0.3, SVG Export Plug-In . SVG Version: 6.00 Build 0)  -->

<svg
   xmlns:dc="http://purl.org/dc/elements/1.1/"
   xmlns:cc="http://creativecommons.org/ns#"
   xmlns:rdf="http://www.w3.org/1999/02/22-rdf-syntax-ns#"
   xmlns:svg="http://www.w3.org/2000/svg"
   xmlns="http://www.w3.org/2000/svg"
   xmlns:sodipodi="http://sodipodi.sourceforge.net/DTD/sodipodi-0.dtd"
   xmlns:inkscape="http://www.inkscape.org/namespaces/inkscape"
   version="1.1"
   id="Layer_1"
   x="0px"
   y="0px"
   width="289"
   height="55.297001"
   viewBox="0 0 289 55.297001"
   enable-background="new 0 0 289 86"
   xml:space="preserve"
   sodipodi:docname="logo_valentine.svg"
   inkscape:version="0.92.4 5da689c313, 2019-01-14"><metadata
   id="metadata5740"><rdf:RDF><cc:Work
       rdf:about=""><dc:format>image/svg+xml</dc:format><dc:type
         rdf:resource="http://purl.org/dc/dcmitype/StillImage" /><dc:title></dc:title></cc:Work></rdf:RDF></metadata><defs
   id="defs5738" /><sodipodi:namedview
   pagecolor="#ffffff"
   bordercolor="#666666"
   borderopacity="1"
   objecttolerance="10"
   gridtolerance="10"
   guidetolerance="10"
   inkscape:pageopacity="0"
   inkscape:pageshadow="2"
   inkscape:window-width="1904"
   inkscape:window-height="1040"
   id="namedview5736"
   showgrid="false"
   inkscape:pagecheckerboard="true"
   inkscape:zoom="3.924565"
   inkscape:cx="171.23209"
   inkscape:cy="35.026698"
   inkscape:window-x="8"
   inkscape:window-y="32"
   inkscape:window-maximized="0"
   inkscape:current-layer="Layer_1"
   fit-margin-top="0"
   fit-margin-left="0"
   fit-margin-right="0"
   fit-margin-bottom="0" />
<g
   id="background"
   transform="translate(0,-5.577)">
	<rect
   display="none"
   width="289"
   height="86"
   id="rect5499"
   x="0"
   y="0"
   style="display:none" />
</g>
<g
   id="Label"
   transform="translate(0,-5.577)">
	<g
   id="Beta"
   display="none"
   style="display:none">
		<g
   id="Badge_3_-_Orange"
   display="inline"
   style="display:inline">
			<g
   id="g5513">
				
					<radialGradient
   id="SVGID_1_"
   cx="269.60449"
   cy="-39.3032"
   r="42.632198"
   gradientTransform="matrix(1,0,0,-1,-20.8398,-10.5996)"
   gradientUnits="userSpaceOnUse">
					<stop
   offset="0"
   style="stop-color:#FFDE40"
   id="stop5502" />
					<stop
   offset="1"
   style="stop-color:#F6921E"
   id="stop5504" />
				</radialGradient>
				<path
   d="m 261.328,84.861 c -1.104,0 -2.085,-1.221 -3.035,-2.399 -0.863,-1.073 -1.682,-2.087 -2.63,-2.341 -0.187,-0.051 -0.394,-0.075 -0.613,-0.075 -0.886,0 -1.937,0.404 -2.954,0.796 -0.982,0.379 -2,0.77 -2.818,0.77 -0.352,0 -0.643,-0.069 -0.891,-0.213 -0.924,-0.535 -1.162,-2.063 -1.393,-3.539 -0.206,-1.321 -0.42,-2.688 -1.135,-3.403 -0.717,-0.718 -2.084,-0.931 -3.407,-1.138 -1.476,-0.229 -3.002,-0.467 -3.535,-1.391 -0.522,-0.902 0.024,-2.33 0.556,-3.709 0.485,-1.263 0.987,-2.568 0.721,-3.566 -0.254,-0.951 -1.269,-1.769 -2.342,-2.633 -1.18,-0.949 -2.397,-1.933 -2.397,-3.033 0,-1.1 1.219,-2.082 2.397,-3.031 1.073,-0.865 2.088,-1.682 2.342,-2.633 0.268,-1 -0.234,-2.305 -0.721,-3.567 -0.529,-1.379 -1.078,-2.806 -0.556,-3.709 0.533,-0.923 2.06,-1.161 3.535,-1.392 1.323,-0.207 2.69,-0.42 3.407,-1.135 0.717,-0.716 0.93,-2.084 1.137,-3.408 0.229,-1.476 0.468,-3.001 1.391,-3.536 0.248,-0.144 0.539,-0.213 0.891,-0.213 0.818,0 1.836,0.391 2.818,0.769 1.018,0.391 2.068,0.795 2.954,0.795 0.222,0 0.427,-0.025 0.613,-0.075 0.95,-0.254 1.769,-1.268 2.633,-2.342 0.949,-1.179 1.933,-2.398 3.032,-2.398 1.099,0 2.083,1.219 3.031,2.398 0.865,1.074 1.683,2.088 2.634,2.342 0.187,0.05 0.394,0.075 0.612,0.075 0.887,0 1.938,-0.404 2.955,-0.795 0.983,-0.378 2,-0.769 2.818,-0.769 0.352,0 0.643,0.069 0.891,0.212 0.922,0.534 1.16,2.061 1.391,3.536 0.207,1.323 0.42,2.692 1.137,3.407 0.714,0.715 2.082,0.93 3.404,1.137 1.477,0.229 3.003,0.469 3.535,1.393 0.523,0.903 -0.023,2.329 -0.555,3.708 -0.484,1.263 -0.986,2.567 -0.72,3.565 0.254,0.951 1.269,1.769 2.341,2.634 1.18,0.948 2.397,1.933 2.397,3.032 0,1.102 -1.22,2.082 -2.398,3.033 -1.073,0.863 -2.087,1.681 -2.342,2.631 -0.267,0.998 0.235,2.305 0.722,3.565 0.529,1.38 1.078,2.808 0.555,3.712 -0.532,0.922 -2.06,1.16 -3.534,1.391 -1.323,0.207 -2.691,0.42 -3.407,1.136 -0.715,0.716 -0.929,2.083 -1.135,3.405 -0.23,1.477 -0.469,3.002 -1.393,3.537 -0.248,0.145 -0.539,0.213 -0.892,0.213 -0.817,0 -1.835,-0.391 -2.817,-0.769 -1.018,-0.392 -2.068,-0.796 -2.953,-0.796 -0.222,0 -0.428,0.025 -0.612,0.075 -0.951,0.254 -1.769,1.269 -2.634,2.342 -0.948,1.181 -1.929,2.399 -3.031,2.399 z"
   id="path5507"
   inkscape:connector-curvature="0"
   style="fill:url(#SVGID_1_)" />
				<g
   id="g5511">
					<path
   d="m 261.328,33.236 c 1.041,0 2.004,1.195 2.936,2.352 0.877,1.09 1.707,2.12 2.697,2.384 0.197,0.053 0.414,0.079 0.646,0.079 0.908,0 1.972,-0.408 2.998,-0.803 0.974,-0.374 1.979,-0.76 2.775,-0.761 0.328,0 0.598,0.064 0.826,0.196 0.871,0.505 1.104,2 1.33,3.447 0.209,1.343 0.426,2.732 1.171,3.476 0.743,0.746 2.132,0.963 3.474,1.172 1.447,0.227 2.943,0.459 3.447,1.332 0.494,0.852 -0.043,2.25 -0.563,3.602 -0.492,1.28 -1.002,2.604 -0.726,3.643 0.267,0.99 1.295,1.82 2.384,2.697 1.155,0.932 2.352,1.895 2.352,2.936 0,1.041 -1.195,2.005 -2.352,2.937 -1.091,0.878 -2.119,1.707 -2.386,2.697 -0.274,1.037 0.231,2.36 0.726,3.644 0.521,1.353 1.059,2.752 0.563,3.604 -0.504,0.871 -1.999,1.104 -3.444,1.33 -1.345,0.209 -2.732,0.426 -3.479,1.171 -0.743,0.743 -0.96,2.132 -1.169,3.474 -0.228,1.447 -0.459,2.944 -1.332,3.449 -0.229,0.133 -0.499,0.197 -0.828,0.197 -0.795,0 -1.801,-0.387 -2.774,-0.762 -1.025,-0.396 -2.088,-0.804 -2.996,-0.804 -0.23,0 -0.449,0.024 -0.646,0.078 -0.99,0.267 -1.819,1.295 -2.696,2.386 -0.933,1.155 -1.896,2.352 -2.937,2.352 -1.043,0 -2.007,-1.196 -2.938,-2.354 -0.877,-1.089 -1.705,-2.116 -2.695,-2.383 -0.196,-0.052 -0.414,-0.078 -0.645,-0.078 -0.91,0 -1.973,0.408 -3,0.804 -0.973,0.375 -1.979,0.762 -2.773,0.762 -0.328,0 -0.6,-0.064 -0.828,-0.197 -0.872,-0.505 -1.104,-2.002 -1.331,-3.449 -0.21,-1.342 -0.427,-2.729 -1.169,-3.474 -0.745,-0.745 -2.135,-0.962 -3.479,-1.171 -1.445,-0.227 -2.941,-0.459 -3.445,-1.33 -0.494,-0.852 0.045,-2.25 0.564,-3.602 0.492,-1.281 1.002,-2.606 0.725,-3.646 -0.266,-0.99 -1.295,-1.82 -2.385,-2.697 -1.156,-0.932 -2.352,-1.896 -2.352,-2.937 0,-1.041 1.195,-2.004 2.352,-2.936 1.09,-0.877 2.119,-1.707 2.385,-2.697 0.277,-1.037 -0.231,-2.362 -0.725,-3.645 -0.521,-1.352 -1.059,-2.75 -0.564,-3.602 0.504,-0.871 2,-1.104 3.445,-1.33 1.344,-0.209 2.732,-0.426 3.479,-1.172 0.744,-0.745 0.962,-2.132 1.171,-3.477 0.227,-1.446 0.459,-2.942 1.329,-3.447 0.229,-0.132 0.5,-0.196 0.828,-0.196 0.795,0 1.802,0.387 2.773,0.761 1.027,0.395 2.09,0.804 3,0.804 0.23,0 0.447,-0.027 0.645,-0.079 0.99,-0.265 1.82,-1.294 2.697,-2.384 0.935,-1.157 1.898,-2.353 2.939,-2.353 m 0,-0.25 c -2.148,0 -3.715,4.215 -5.697,4.744 -0.184,0.049 -0.377,0.071 -0.58,0.071 -1.719,0 -4.083,-1.564 -5.773,-1.564 -0.351,0 -0.672,0.067 -0.952,0.23 -1.82,1.055 -1.074,5.484 -2.554,6.963 -1.479,1.479 -5.91,0.732 -6.963,2.552 -1.039,1.795 1.813,5.256 1.265,7.308 -0.529,1.981 -4.744,3.549 -4.744,5.696 0,2.148 4.215,3.716 4.744,5.697 0.549,2.051 -2.304,5.512 -1.265,7.308 1.053,1.819 5.484,1.073 6.963,2.553 1.478,1.479 0.73,5.908 2.554,6.963 0.28,0.162 0.603,0.229 0.952,0.229 1.69,0 4.056,-1.563 5.773,-1.563 0.203,0 0.396,0.021 0.58,0.07 1.98,0.528 3.547,4.743 5.697,4.743 2.148,0 3.715,-4.215 5.697,-4.743 0.184,-0.05 0.377,-0.07 0.58,-0.07 1.717,0 4.08,1.563 5.771,1.563 0.351,0 0.672,-0.067 0.953,-0.229 1.821,-1.055 1.075,-5.483 2.553,-6.963 1.479,-1.479 5.91,-0.731 6.964,-2.553 1.038,-1.796 -1.812,-5.257 -1.265,-7.308 0.53,-1.981 4.744,-3.549 4.744,-5.697 0,-2.147 -4.214,-3.715 -4.742,-5.696 -0.549,-2.052 2.301,-5.511 1.262,-7.306 -1.053,-1.821 -5.483,-1.075 -6.961,-2.554 -1.479,-1.477 -0.731,-5.908 -2.553,-6.963 -0.281,-0.162 -0.603,-0.229 -0.952,-0.229 -1.689,0 -4.057,1.564 -5.773,1.564 -0.203,0 -0.396,-0.022 -0.58,-0.071 -1.983,-0.53 -3.549,-4.745 -5.698,-4.745 z"
   id="path5509"
   inkscape:connector-curvature="0"
   style="fill:#e26926" />
				</g>
			</g>
			<g
   id="g5560"
   style="opacity:0.8">
				<g
   id="g5522">
					
						<linearGradient
   id="SVGID_2_"
   gradientUnits="userSpaceOnUse"
   x1="256.668"
   y1="-57.420898"
   x2="295.55569"
   y2="-57.420898"
   gradientTransform="matrix(1,0,0,-1,-20.8398,-10.5996)">
						<stop
   offset="0"
   style="stop-color:#FFFFFF"
   id="stop5515" />
						<stop
   offset="1"
   style="stop-color:#000000"
   id="stop5517" />
					</linearGradient>
					<path
   d="m 236.225,59.604 c 0,-0.922 1.148,-1.848 2.26,-2.742 1.072,-0.862 2.182,-1.758 2.469,-2.827 0.298,-1.115 -0.225,-2.479 -0.732,-3.8 -0.498,-1.295 -1.015,-2.637 -0.58,-3.387 0.441,-0.768 1.879,-0.99 3.267,-1.207 1.382,-0.217 2.813,-0.438 3.614,-1.24 0.803,-0.801 1.027,-2.229 1.242,-3.612 0.219,-1.389 0.44,-2.824 1.209,-3.27 0.189,-0.111 0.42,-0.164 0.703,-0.164 0.745,0 1.727,0.375 2.674,0.74 1.065,0.41 2.146,0.824 3.103,0.824 0.252,0 0.487,-0.029 0.706,-0.086 1.07,-0.287 1.964,-1.396 2.828,-2.473 0.895,-1.109 1.818,-2.258 2.74,-2.258 0.92,0 1.848,1.148 2.74,2.262 0.864,1.072 1.76,2.182 2.827,2.469 0.216,0.057 0.454,0.086 0.706,0.086 0.956,0 2.036,-0.414 3.079,-0.816 0.965,-0.371 1.948,-0.746 2.694,-0.746 0.285,0 0.515,0.053 0.705,0.162 0.086,0.051 0.164,0.117 0.237,0.191 -0.159,-0.361 -0.362,-0.648 -0.635,-0.807 -0.19,-0.111 -0.42,-0.164 -0.704,-0.164 -0.747,0 -1.73,0.377 -2.695,0.748 -1.043,0.4 -2.123,0.816 -3.078,0.816 -0.252,0 -0.49,-0.029 -0.707,-0.088 -1.067,-0.285 -1.963,-1.396 -2.826,-2.469 -0.895,-1.111 -1.82,-2.26 -2.741,-2.26 -0.922,0 -1.847,1.148 -2.74,2.258 -0.864,1.074 -1.758,2.186 -2.828,2.471 -0.218,0.059 -0.454,0.088 -0.706,0.088 -0.955,0 -2.035,-0.416 -3.103,-0.826 -0.946,-0.363 -1.929,-0.74 -2.673,-0.74 -0.284,0 -0.514,0.053 -0.704,0.166 -0.769,0.443 -0.99,1.879 -1.208,3.268 -0.215,1.383 -0.439,2.811 -1.242,3.613 -0.803,0.802 -2.232,1.025 -3.615,1.24 -1.387,0.219 -2.824,0.44 -3.267,1.209 -0.435,0.75 0.082,2.09 0.58,3.387 0.509,1.32 1.03,2.684 0.733,3.797 -0.287,1.072 -1.396,1.965 -2.47,2.83 -1.11,0.895 -2.259,1.82 -2.259,2.742 0,0.391 0.214,0.781 0.535,1.17 -0.082,-0.184 -0.138,-0.37 -0.138,-0.555 z"
   id="path5520"
   inkscape:connector-curvature="0"
   style="fill:url(#SVGID_2_)" />
				</g>
				<g
   id="g5531">
					
						<linearGradient
   id="SVGID_3_"
   gradientUnits="userSpaceOnUse"
   x1="303.51559"
   y1="-67.059601"
   x2="307.52731"
   y2="-67.059601"
   gradientTransform="matrix(1,0,0,-1,-20.8398,-10.5996)">
						<stop
   offset="0"
   style="stop-color:#FFFFFF"
   id="stop5524" />
						<stop
   offset="1"
   style="stop-color:#000000"
   id="stop5526" />
					</linearGradient>
					<path
   d="m 282.676,54.488 c 0.434,0.873 1.373,1.635 2.29,2.373 0.64,0.516 1.283,1.041 1.722,1.57 -0.33,-0.736 -1.23,-1.472 -2.117,-2.187 -0.697,-0.558 -1.403,-1.131 -1.895,-1.756 z"
   id="path5529"
   inkscape:connector-curvature="0"
   style="fill:url(#SVGID_3_)" />
				</g>
				<g
   id="g5540">
					
						<linearGradient
   id="SVGID_4_"
   gradientUnits="userSpaceOnUse"
   x1="297.23239"
   y1="-55.6768"
   x2="304.36911"
   y2="-55.6768"
   gradientTransform="matrix(1,0,0,-1,-20.8398,-10.5996)">
						<stop
   offset="0"
   style="stop-color:#FFFFFF"
   id="stop5533" />
						<stop
   offset="1"
   style="stop-color:#000000"
   id="stop5535" />
					</linearGradient>
					<path
   d="m 276.93,44.4 c 0.799,0.803 2.229,1.022 3.609,1.24 1.175,0.184 2.378,0.377 2.99,0.896 -0.026,-0.108 -0.064,-0.211 -0.118,-0.304 -0.442,-0.768 -1.88,-0.991 -3.269,-1.211 -1.381,-0.215 -2.812,-0.438 -3.611,-1.239 -0.051,-0.052 -0.092,-0.109 -0.139,-0.164 0.146,0.298 0.319,0.564 0.538,0.782 z"
   id="path5538"
   inkscape:connector-curvature="0"
   style="fill:url(#SVGID_4_)" />
				</g>
				<g
   id="g5549">
					
						<linearGradient
   id="SVGID_5_"
   gradientUnits="userSpaceOnUse"
   x1="259.91989"
   y1="-78.680702"
   x2="261.87891"
   y2="-78.680702"
   gradientTransform="matrix(1,0,0,-1,-20.8398,-10.5996)">
						<stop
   offset="0"
   style="stop-color:#FFFFFF"
   id="stop5542" />
						<stop
   offset="1"
   style="stop-color:#000000"
   id="stop5544" />
					</linearGradient>
					<path
   d="m 240.219,68.971 c 0.51,-1.32 1.031,-2.684 0.733,-3.801 -0.101,-0.375 -0.308,-0.727 -0.572,-1.064 0.072,0.146 0.136,0.295 0.177,0.449 0.297,1.115 -0.226,2.48 -0.734,3.801 -0.497,1.295 -1.014,2.636 -0.579,3.386 0.067,0.118 0.167,0.221 0.278,0.315 -0.19,-0.778 0.259,-1.95 0.697,-3.086 z"
   id="path5547"
   inkscape:connector-curvature="0"
   style="fill:url(#SVGID_5_)" />
				</g>
				<g
   id="g5558">
					
						<linearGradient
   id="SVGID_6_"
   gradientUnits="userSpaceOnUse"
   x1="267.49899"
   y1="-88.527298"
   x2="269.17679"
   y2="-88.527298"
   gradientTransform="matrix(1,0,0,-1,-20.8398,-10.5996)">
						<stop
   offset="0"
   style="stop-color:#FFFFFF"
   id="stop5551" />
						<stop
   offset="1"
   style="stop-color:#000000"
   id="stop5553" />
					</linearGradient>
					<path
   d="m 247.762,78.418 c -0.203,-1.295 -0.416,-2.623 -1.103,-3.445 0.385,0.795 0.548,1.822 0.704,2.83 0.193,1.232 0.395,2.498 0.974,3.08 -0.29,-0.656 -0.437,-1.569 -0.575,-2.465 z"
   id="path5556"
   inkscape:connector-curvature="0"
   style="fill:url(#SVGID_6_)" />
				</g>
			</g>
		</g>
		
			<text
   transform="matrix(0.9529,-0.3034,0.3034,0.9529,244.2539,69.626)"
   display="inline"
   font-size="16.9772"
   id="text5563"
   style="font-size:16.97719955px;font-family:MyriadPro-Bold;display:inline;fill:#ffffff">Beta!</text>

	</g>
	<g
   id="Production"
   display="none"
   style="display:none">
		<g
   id="Badge_3_-_Green"
   display="inline"
   style="display:inline">
			<g
   id="g5577">
				
					<radialGradient
   id="SVGID_7_"
   cx="269.61041"
   cy="-39.318401"
   r="42.632099"
   gradientTransform="matrix(1,0,0,-1,-20.8398,-10.5996)"
   gradientUnits="userSpaceOnUse">
					<stop
   offset="0"
   style="stop-color:#ECEB7B"
   id="stop5566" />
					<stop
   offset="1"
   style="stop-color:#8BC53F"
   id="stop5568" />
				</radialGradient>
				<path
   d="m 261.334,84.875 c -1.104,0 -2.085,-1.221 -3.035,-2.398 -0.863,-1.074 -1.681,-2.088 -2.63,-2.342 -0.187,-0.05 -0.394,-0.074 -0.612,-0.074 -0.887,0 -1.938,0.403 -2.955,0.795 -0.982,0.379 -2,0.77 -2.817,0.77 -0.353,0 -0.644,-0.068 -0.892,-0.213 -0.924,-0.535 -1.162,-2.063 -1.393,-3.538 -0.206,-1.321 -0.42,-2.688 -1.134,-3.403 -0.718,-0.718 -2.085,-0.931 -3.408,-1.138 -1.476,-0.229 -3.002,-0.468 -3.535,-1.392 -0.522,-0.902 0.024,-2.33 0.556,-3.709 0.485,-1.262 0.987,-2.567 0.722,-3.566 -0.255,-0.951 -1.269,-1.768 -2.343,-2.633 -1.18,-0.949 -2.397,-1.932 -2.397,-3.032 0,-1.1 1.22,-2.083 2.397,-3.032 1.074,-0.865 2.088,-1.682 2.343,-2.633 0.267,-0.999 -0.235,-2.305 -0.722,-3.566 -0.529,-1.379 -1.078,-2.807 -0.556,-3.709 0.533,-0.924 2.06,-1.162 3.535,-1.392 1.323,-0.207 2.69,-0.42 3.407,-1.136 0.717,-0.716 0.93,-2.084 1.137,-3.407 0.229,-1.476 0.469,-3.001 1.391,-3.536 0.248,-0.144 0.539,-0.213 0.892,-0.213 0.817,0 1.835,0.391 2.817,0.769 1.019,0.391 2.068,0.795 2.955,0.795 0.221,0 0.426,-0.025 0.612,-0.075 0.951,-0.254 1.769,-1.268 2.633,-2.342 0.949,-1.179 1.933,-2.398 3.032,-2.398 1.099,0 2.083,1.219 3.032,2.398 0.864,1.074 1.682,2.088 2.633,2.342 0.187,0.05 0.394,0.075 0.612,0.075 0.887,0 1.938,-0.404 2.955,-0.795 0.983,-0.378 2,-0.769 2.818,-0.769 0.352,0 0.643,0.069 0.891,0.212 0.923,0.534 1.16,2.061 1.391,3.536 0.207,1.323 0.42,2.692 1.137,3.406 0.715,0.716 2.082,0.93 3.404,1.137 1.477,0.23 3.003,0.469 3.536,1.393 0.522,0.903 -0.024,2.33 -0.556,3.709 -0.484,1.262 -0.985,2.566 -0.72,3.565 0.255,0.951 1.269,1.769 2.341,2.633 1.18,0.949 2.397,1.933 2.397,3.032 0,1.102 -1.22,2.083 -2.397,3.033 -1.074,0.863 -2.088,1.681 -2.343,2.632 -0.266,0.998 0.235,2.304 0.722,3.565 0.529,1.379 1.078,2.808 0.556,3.711 -0.533,0.922 -2.06,1.16 -3.535,1.391 -1.323,0.207 -2.69,0.42 -3.407,1.136 -0.715,0.716 -0.929,2.083 -1.135,3.405 -0.23,1.477 -0.469,3.003 -1.393,3.538 -0.248,0.144 -0.539,0.213 -0.892,0.213 -0.817,0 -1.835,-0.392 -2.817,-0.769 -1.018,-0.393 -2.068,-0.797 -2.953,-0.797 -0.221,0 -0.428,0.025 -0.612,0.075 -0.951,0.255 -1.769,1.269 -2.633,2.343 -0.949,1.179 -1.93,2.398 -3.032,2.398 z"
   id="path5571"
   inkscape:connector-curvature="0"
   style="fill:url(#SVGID_7_)" />
				<g
   id="g5575">
					<path
   d="m 261.334,33.25 c 1.041,0 2.004,1.195 2.936,2.352 0.877,1.09 1.707,2.12 2.697,2.384 0.197,0.053 0.414,0.079 0.646,0.079 0.908,0 1.972,-0.408 2.998,-0.803 0.974,-0.374 1.979,-0.76 2.775,-0.761 0.328,0 0.598,0.064 0.826,0.196 0.871,0.505 1.104,2 1.33,3.447 0.209,1.343 0.426,2.732 1.171,3.476 0.743,0.745 2.132,0.962 3.474,1.171 1.447,0.227 2.943,0.46 3.447,1.332 0.494,0.852 -0.043,2.25 -0.563,3.602 -0.492,1.28 -1.002,2.604 -0.725,3.644 0.266,0.989 1.295,1.819 2.383,2.696 1.155,0.933 2.352,1.896 2.352,2.937 0,1.041 -1.195,2.004 -2.352,2.937 -1.09,0.877 -2.119,1.707 -2.386,2.696 -0.274,1.037 0.232,2.361 0.726,3.644 0.521,1.353 1.059,2.752 0.563,3.604 -0.504,0.871 -1.999,1.104 -3.444,1.33 -1.345,0.209 -2.732,0.426 -3.479,1.171 -0.743,0.744 -0.96,2.132 -1.169,3.474 -0.228,1.447 -0.459,2.944 -1.332,3.449 -0.229,0.133 -0.499,0.197 -0.828,0.197 -0.795,0 -1.801,-0.387 -2.774,-0.762 -1.025,-0.395 -2.088,-0.803 -2.996,-0.803 -0.23,0 -0.448,0.024 -0.646,0.078 -0.989,0.266 -1.819,1.295 -2.696,2.385 -0.933,1.156 -1.896,2.352 -2.937,2.352 -1.043,0 -2.006,-1.195 -2.938,-2.354 -0.877,-1.09 -1.705,-2.117 -2.694,-2.383 -0.197,-0.053 -0.414,-0.078 -0.646,-0.078 -0.91,0 -1.973,0.408 -3,0.803 -0.973,0.375 -1.979,0.762 -2.772,0.762 -0.329,0 -0.601,-0.064 -0.828,-0.197 -0.873,-0.505 -1.104,-2.002 -1.332,-3.449 -0.209,-1.342 -0.427,-2.729 -1.169,-3.474 -0.745,-0.745 -2.135,-0.962 -3.479,-1.171 -1.445,-0.227 -2.94,-0.459 -3.445,-1.33 -0.493,-0.852 0.045,-2.25 0.564,-3.602 0.492,-1.281 1.002,-2.606 0.725,-3.646 -0.266,-0.989 -1.295,-1.819 -2.385,-2.696 -1.156,-0.933 -2.352,-1.896 -2.352,-2.937 0,-1.041 1.195,-2.004 2.352,-2.937 1.09,-0.877 2.119,-1.707 2.385,-2.696 0.277,-1.038 -0.231,-2.363 -0.725,-3.646 -0.521,-1.352 -1.059,-2.75 -0.564,-3.602 0.505,-0.871 2,-1.104 3.445,-1.33 1.344,-0.209 2.732,-0.426 3.479,-1.171 0.744,-0.745 0.962,-2.133 1.171,-3.477 0.228,-1.446 0.459,-2.942 1.33,-3.447 0.229,-0.132 0.499,-0.196 0.828,-0.196 0.795,0 1.801,0.387 2.772,0.761 1.027,0.395 2.09,0.804 3,0.804 0.23,0 0.447,-0.027 0.646,-0.079 0.989,-0.265 1.819,-1.294 2.696,-2.384 0.935,-1.157 1.898,-2.352 2.939,-2.352 m 0,-0.25 c -2.148,0 -3.715,4.215 -5.697,4.744 -0.184,0.049 -0.377,0.071 -0.58,0.071 -1.719,0 -4.082,-1.564 -5.772,-1.564 -0.351,0 -0.673,0.067 -0.953,0.23 -1.819,1.055 -1.074,5.484 -2.554,6.963 -1.479,1.479 -5.909,0.732 -6.963,2.553 -1.039,1.795 1.813,5.256 1.265,7.308 -0.529,1.981 -4.744,3.549 -4.744,5.696 0,2.147 4.215,3.715 4.744,5.696 0.549,2.052 -2.304,5.513 -1.265,7.308 1.054,1.82 5.484,1.074 6.963,2.554 1.478,1.479 0.73,5.907 2.554,6.963 0.28,0.162 0.603,0.229 0.953,0.229 1.69,0 4.055,-1.563 5.772,-1.563 0.203,0 0.396,0.021 0.58,0.069 1.98,0.529 3.547,4.744 5.697,4.744 2.148,0 3.715,-4.215 5.697,-4.744 0.184,-0.049 0.377,-0.069 0.58,-0.069 1.717,0 4.08,1.563 5.771,1.563 0.351,0 0.673,-0.067 0.953,-0.229 1.822,-1.056 1.076,-5.484 2.554,-6.963 1.479,-1.479 5.909,-0.732 6.963,-2.554 1.039,-1.795 -1.812,-5.256 -1.265,-7.308 0.531,-1.981 4.744,-3.549 4.744,-5.696 0,-2.147 -4.213,-3.715 -4.742,-5.696 -0.549,-2.052 2.302,-5.511 1.263,-7.306 -1.054,-1.821 -5.484,-1.076 -6.961,-2.555 -1.479,-1.477 -0.732,-5.908 -2.554,-6.963 -0.28,-0.162 -0.603,-0.229 -0.952,-0.229 -1.689,0 -4.056,1.564 -5.773,1.564 -0.203,0 -0.396,-0.022 -0.58,-0.071 C 265.049,37.215 263.482,33 261.334,33 Z"
   id="path5573"
   inkscape:connector-curvature="0"
   style="fill:#608d2b" />
				</g>
			</g>
			<g
   id="g5624"
   style="opacity:0.8">
				<g
   id="g5586">
					
						<linearGradient
   id="SVGID_8_"
   gradientUnits="userSpaceOnUse"
   x1="256.67291"
   y1="-57.434101"
   x2="295.56049"
   y2="-57.434101"
   gradientTransform="matrix(1,0,0,-1,-20.8398,-10.5996)">
						<stop
   offset="0"
   style="stop-color:#FFFFFF"
   id="stop5579" />
						<stop
   offset="1"
   style="stop-color:#000000"
   id="stop5581" />
					</linearGradient>
					<path
   d="m 236.23,59.617 c 0,-0.922 1.147,-1.848 2.258,-2.742 1.072,-0.863 2.183,-1.758 2.47,-2.828 0.298,-1.115 -0.226,-2.479 -0.733,-3.799 -0.498,-1.295 -1.014,-2.637 -0.58,-3.387 0.442,-0.769 1.881,-0.99 3.268,-1.207 1.382,-0.217 2.813,-0.438 3.615,-1.24 0.802,-0.803 1.027,-2.23 1.242,-3.613 0.217,-1.389 0.439,-2.824 1.207,-3.27 0.19,-0.111 0.42,-0.164 0.705,-0.164 0.744,0 1.727,0.375 2.672,0.74 1.066,0.41 2.146,0.824 3.104,0.824 0.252,0 0.488,-0.029 0.706,-0.086 1.069,-0.287 1.964,-1.396 2.828,-2.473 0.895,-1.109 1.817,-2.258 2.739,-2.258 0.922,0 1.849,1.148 2.742,2.262 0.863,1.072 1.758,2.182 2.826,2.469 0.217,0.057 0.454,0.086 0.706,0.086 0.956,0 2.036,-0.414 3.079,-0.816 0.965,-0.371 1.948,-0.746 2.695,-0.746 0.283,0 0.514,0.053 0.703,0.162 0.088,0.051 0.164,0.117 0.238,0.191 -0.16,-0.361 -0.361,-0.648 -0.635,-0.807 -0.189,-0.111 -0.42,-0.164 -0.704,-0.164 -0.747,0 -1.729,0.377 -2.694,0.748 -1.043,0.4 -2.123,0.816 -3.08,0.816 -0.252,0 -0.489,-0.029 -0.705,-0.088 -1.068,-0.285 -1.963,-1.396 -2.827,-2.469 -0.894,-1.111 -1.82,-2.26 -2.741,-2.26 -0.922,0 -1.846,1.148 -2.74,2.258 -0.863,1.074 -1.758,2.186 -2.828,2.471 -0.218,0.059 -0.453,0.088 -0.705,0.088 -0.957,0 -2.037,-0.416 -3.104,-0.826 -0.945,-0.363 -1.928,-0.74 -2.673,-0.74 -0.284,0 -0.515,0.053 -0.704,0.166 -0.768,0.443 -0.99,1.879 -1.208,3.268 -0.215,1.383 -0.438,2.811 -1.242,3.613 -0.803,0.802 -2.233,1.024 -3.614,1.24 -1.388,0.219 -2.824,0.44 -3.268,1.209 -0.434,0.75 0.082,2.09 0.58,3.387 0.509,1.32 1.031,2.685 0.732,3.798 -0.287,1.071 -1.396,1.965 -2.469,2.829 -1.109,0.896 -2.259,1.82 -2.259,2.742 0,0.392 0.214,0.781 0.536,1.17 -0.081,-0.183 -0.138,-0.368 -0.138,-0.554 z"
   id="path5584"
   inkscape:connector-curvature="0"
   style="fill:url(#SVGID_8_)" />
				</g>
				<g
   id="g5595">
					
						<linearGradient
   id="SVGID_9_"
   gradientUnits="userSpaceOnUse"
   x1="303.52151"
   y1="-67.073196"
   x2="307.5332"
   y2="-67.073196"
   gradientTransform="matrix(1,0,0,-1,-20.8398,-10.5996)">
						<stop
   offset="0"
   style="stop-color:#FFFFFF"
   id="stop5588" />
						<stop
   offset="1"
   style="stop-color:#000000"
   id="stop5590" />
					</linearGradient>
					<path
   d="m 282.682,54.502 c 0.435,0.873 1.373,1.635 2.291,2.373 0.639,0.516 1.282,1.041 1.721,1.57 -0.33,-0.736 -1.23,-1.471 -2.117,-2.187 -0.697,-0.559 -1.403,-1.131 -1.895,-1.756 z"
   id="path5593"
   inkscape:connector-curvature="0"
   style="fill:url(#SVGID_9_)" />
				</g>
				<g
   id="g5604">
					
						<linearGradient
   id="SVGID_10_"
   gradientUnits="userSpaceOnUse"
   x1="297.23831"
   y1="-55.690399"
   x2="304.375"
   y2="-55.690399"
   gradientTransform="matrix(1,0,0,-1,-20.8398,-10.5996)">
						<stop
   offset="0"
   style="stop-color:#FFFFFF"
   id="stop5597" />
						<stop
   offset="1"
   style="stop-color:#000000"
   id="stop5599" />
					</linearGradient>
					<path
   d="m 276.936,44.414 c 0.799,0.803 2.229,1.023 3.609,1.24 1.175,0.184 2.378,0.377 2.99,0.896 -0.026,-0.108 -0.064,-0.211 -0.118,-0.303 -0.442,-0.769 -1.88,-0.992 -3.269,-1.211 -1.381,-0.216 -2.812,-0.438 -3.61,-1.24 -0.052,-0.051 -0.093,-0.108 -0.14,-0.164 0.146,0.298 0.319,0.563 0.538,0.782 z"
   id="path5602"
   inkscape:connector-curvature="0"
   style="fill:url(#SVGID_10_)" />
				</g>
				<g
   id="g5613">
					
						<linearGradient
   id="SVGID_11_"
   gradientUnits="userSpaceOnUse"
   x1="259.92581"
   y1="-78.694298"
   x2="261.8848"
   y2="-78.694298"
   gradientTransform="matrix(1,0,0,-1,-20.8398,-10.5996)">
						<stop
   offset="0"
   style="stop-color:#FFFFFF"
   id="stop5606" />
						<stop
   offset="1"
   style="stop-color:#000000"
   id="stop5608" />
					</linearGradient>
					<path
   d="m 240.225,68.984 c 0.51,-1.32 1.031,-2.685 0.733,-3.801 -0.101,-0.375 -0.308,-0.728 -0.571,-1.064 0.071,0.146 0.135,0.295 0.176,0.449 0.297,1.115 -0.226,2.479 -0.733,3.801 -0.498,1.295 -1.015,2.635 -0.58,3.385 0.067,0.119 0.167,0.221 0.278,0.316 -0.19,-0.777 0.259,-1.949 0.697,-3.086 z"
   id="path5611"
   inkscape:connector-curvature="0"
   style="fill:url(#SVGID_11_)" />
				</g>
				<g
   id="g5622">
					
						<linearGradient
   id="SVGID_12_"
   gradientUnits="userSpaceOnUse"
   x1="267.50491"
   y1="-88.541"
   x2="269.18259"
   y2="-88.541"
   gradientTransform="matrix(1,0,0,-1,-20.8398,-10.5996)">
						<stop
   offset="0"
   style="stop-color:#FFFFFF"
   id="stop5615" />
						<stop
   offset="1"
   style="stop-color:#000000"
   id="stop5617" />
					</linearGradient>
					<path
   d="m 247.768,78.432 c -0.203,-1.295 -0.416,-2.623 -1.103,-3.445 0.385,0.795 0.548,1.822 0.705,2.83 0.192,1.232 0.394,2.498 0.973,3.08 -0.29,-0.657 -0.436,-1.569 -0.575,-2.465 z"
   id="path5620"
   inkscape:connector-curvature="0"
   style="fill:url(#SVGID_12_)" />
				</g>
			</g>
		</g>
		
			<text
   transform="matrix(0.9529,-0.3034,0.3034,0.9529,251.1846,58.6445)"
   display="inline"
   font-size="11.3955"
   id="text5627"
   style="font-size:11.39550018px;font-family:MyriadPro-Bold;display:inline;fill:#ffffff">Pro-</text>

		
			<text
   transform="matrix(0.9529,-0.3034,0.3034,0.9529,246.7871,74.3945)"
   display="inline"
   font-size="11.3955"
   id="text5629"
   style="font-size:11.39550018px;font-family:MyriadPro-Bold;display:inline;fill:#ffffff">duction</text>

	</g>
	<g
   id="Staging"
   display="none"
   style="display:none">
		<g
   id="Badge_3_-_Blue"
   display="inline"
   style="display:inline">
			<g
   id="g5643">
				
					<radialGradient
   id="SVGID_13_"
   cx="269.61041"
   cy="-39.318401"
   r="42.632099"
   gradientTransform="matrix(1,0,0,-1,-20.8398,-10.5996)"
   gradientUnits="userSpaceOnUse">
					<stop
   offset="0"
   style="stop-color:#D1EDFB"
   id="stop5632" />
					<stop
   offset="1"
   style="stop-color:#3DA3DB"
   id="stop5634" />
				</radialGradient>
				<path
   d="m 261.334,84.875 c -1.104,0 -2.085,-1.221 -3.035,-2.398 -0.863,-1.074 -1.681,-2.088 -2.63,-2.342 -0.187,-0.05 -0.394,-0.074 -0.612,-0.074 -0.887,0 -1.938,0.403 -2.955,0.795 -0.982,0.379 -2,0.77 -2.817,0.77 -0.353,0 -0.644,-0.068 -0.892,-0.213 -0.924,-0.535 -1.162,-2.063 -1.393,-3.538 -0.206,-1.321 -0.42,-2.688 -1.134,-3.403 -0.718,-0.718 -2.085,-0.931 -3.408,-1.138 -1.476,-0.229 -3.002,-0.468 -3.535,-1.392 -0.522,-0.902 0.024,-2.33 0.556,-3.709 0.485,-1.262 0.987,-2.567 0.722,-3.566 -0.255,-0.951 -1.269,-1.768 -2.343,-2.633 -1.18,-0.949 -2.397,-1.932 -2.397,-3.032 0,-1.1 1.22,-2.083 2.397,-3.032 1.074,-0.865 2.088,-1.682 2.343,-2.633 0.267,-0.999 -0.235,-2.305 -0.722,-3.566 -0.529,-1.379 -1.078,-2.807 -0.556,-3.709 0.533,-0.924 2.06,-1.162 3.535,-1.392 1.323,-0.207 2.69,-0.42 3.407,-1.136 0.717,-0.716 0.93,-2.084 1.137,-3.407 0.229,-1.476 0.469,-3.001 1.391,-3.536 0.248,-0.144 0.539,-0.213 0.892,-0.213 0.817,0 1.835,0.391 2.817,0.769 1.019,0.391 2.068,0.795 2.955,0.795 0.221,0 0.426,-0.025 0.612,-0.075 0.951,-0.254 1.769,-1.268 2.633,-2.342 0.949,-1.179 1.933,-2.398 3.032,-2.398 1.099,0 2.083,1.219 3.032,2.398 0.864,1.074 1.682,2.088 2.633,2.342 0.187,0.05 0.394,0.075 0.612,0.075 0.887,0 1.938,-0.404 2.955,-0.795 0.983,-0.378 2,-0.769 2.818,-0.769 0.352,0 0.643,0.069 0.891,0.212 0.923,0.534 1.16,2.061 1.391,3.536 0.207,1.323 0.42,2.692 1.137,3.406 0.715,0.716 2.082,0.93 3.404,1.137 1.477,0.23 3.003,0.469 3.536,1.393 0.522,0.903 -0.024,2.33 -0.556,3.709 -0.484,1.262 -0.985,2.566 -0.72,3.565 0.255,0.951 1.269,1.769 2.341,2.633 1.18,0.949 2.397,1.933 2.397,3.032 0,1.102 -1.22,2.083 -2.397,3.033 -1.074,0.863 -2.088,1.681 -2.343,2.632 -0.266,0.998 0.235,2.304 0.722,3.565 0.529,1.379 1.078,2.808 0.556,3.711 -0.533,0.922 -2.06,1.16 -3.535,1.391 -1.323,0.207 -2.69,0.42 -3.407,1.136 -0.715,0.716 -0.929,2.083 -1.135,3.405 -0.23,1.477 -0.469,3.003 -1.393,3.538 -0.248,0.144 -0.539,0.213 -0.892,0.213 -0.817,0 -1.835,-0.392 -2.817,-0.769 -1.018,-0.393 -2.068,-0.797 -2.953,-0.797 -0.221,0 -0.428,0.025 -0.612,0.075 -0.951,0.255 -1.769,1.269 -2.633,2.343 -0.949,1.179 -1.93,2.398 -3.032,2.398 z"
   id="path5637"
   inkscape:connector-curvature="0"
   style="fill:url(#SVGID_13_)" />
				<g
   id="g5641">
					<path
   d="m 261.334,33.25 c 1.041,0 2.004,1.195 2.936,2.352 0.877,1.09 1.707,2.12 2.697,2.384 0.197,0.053 0.414,0.079 0.646,0.079 0.908,0 1.972,-0.408 2.998,-0.803 0.974,-0.374 1.979,-0.76 2.775,-0.761 0.328,0 0.598,0.064 0.826,0.196 0.871,0.505 1.104,2 1.33,3.447 0.209,1.343 0.426,2.732 1.171,3.476 0.743,0.745 2.132,0.962 3.474,1.171 1.447,0.227 2.943,0.46 3.447,1.332 0.494,0.852 -0.043,2.25 -0.563,3.602 -0.492,1.28 -1.002,2.604 -0.725,3.644 0.266,0.989 1.295,1.819 2.383,2.696 1.155,0.933 2.352,1.896 2.352,2.937 0,1.041 -1.195,2.004 -2.352,2.937 -1.09,0.877 -2.119,1.707 -2.386,2.696 -0.274,1.037 0.232,2.361 0.726,3.644 0.521,1.353 1.059,2.752 0.563,3.604 -0.504,0.871 -1.999,1.104 -3.444,1.33 -1.345,0.209 -2.732,0.426 -3.479,1.171 -0.743,0.744 -0.96,2.132 -1.169,3.474 -0.228,1.447 -0.459,2.944 -1.332,3.449 -0.229,0.133 -0.499,0.197 -0.828,0.197 -0.795,0 -1.801,-0.387 -2.774,-0.762 -1.025,-0.395 -2.088,-0.803 -2.996,-0.803 -0.23,0 -0.448,0.024 -0.646,0.078 -0.989,0.266 -1.819,1.295 -2.696,2.385 -0.933,1.156 -1.896,2.352 -2.937,2.352 -1.043,0 -2.006,-1.195 -2.938,-2.354 -0.877,-1.09 -1.705,-2.117 -2.694,-2.383 -0.197,-0.053 -0.414,-0.078 -0.646,-0.078 -0.91,0 -1.973,0.408 -3,0.803 -0.973,0.375 -1.979,0.762 -2.772,0.762 -0.329,0 -0.601,-0.064 -0.828,-0.197 -0.873,-0.505 -1.104,-2.002 -1.332,-3.449 -0.209,-1.342 -0.427,-2.729 -1.169,-3.474 -0.745,-0.745 -2.135,-0.962 -3.479,-1.171 -1.445,-0.227 -2.94,-0.459 -3.445,-1.33 -0.493,-0.852 0.045,-2.25 0.564,-3.602 0.492,-1.281 1.002,-2.606 0.725,-3.646 -0.266,-0.989 -1.295,-1.819 -2.385,-2.696 -1.156,-0.933 -2.352,-1.896 -2.352,-2.937 0,-1.041 1.195,-2.004 2.352,-2.937 1.09,-0.877 2.119,-1.707 2.385,-2.696 0.277,-1.038 -0.231,-2.363 -0.725,-3.646 -0.521,-1.352 -1.059,-2.75 -0.564,-3.602 0.505,-0.871 2,-1.104 3.445,-1.33 1.344,-0.209 2.732,-0.426 3.479,-1.171 0.744,-0.745 0.962,-2.133 1.171,-3.477 0.228,-1.446 0.459,-2.942 1.33,-3.447 0.229,-0.132 0.499,-0.196 0.828,-0.196 0.795,0 1.801,0.387 2.772,0.761 1.027,0.395 2.09,0.804 3,0.804 0.23,0 0.447,-0.027 0.646,-0.079 0.989,-0.265 1.819,-1.294 2.696,-2.384 0.935,-1.157 1.898,-2.352 2.939,-2.352 m 0,-0.25 c -2.148,0 -3.715,4.215 -5.697,4.744 -0.184,0.049 -0.377,0.071 -0.58,0.071 -1.719,0 -4.082,-1.564 -5.772,-1.564 -0.351,0 -0.673,0.067 -0.953,0.23 -1.819,1.055 -1.074,5.484 -2.554,6.963 -1.479,1.479 -5.909,0.732 -6.963,2.553 -1.039,1.795 1.813,5.256 1.265,7.308 -0.529,1.981 -4.744,3.549 -4.744,5.696 0,2.147 4.215,3.715 4.744,5.696 0.549,2.052 -2.304,5.513 -1.265,7.308 1.054,1.82 5.484,1.074 6.963,2.554 1.478,1.479 0.73,5.907 2.554,6.963 0.28,0.162 0.603,0.229 0.953,0.229 1.69,0 4.055,-1.563 5.772,-1.563 0.203,0 0.396,0.021 0.58,0.069 1.98,0.529 3.547,4.744 5.697,4.744 2.148,0 3.715,-4.215 5.697,-4.744 0.184,-0.049 0.377,-0.069 0.58,-0.069 1.717,0 4.08,1.563 5.771,1.563 0.351,0 0.673,-0.067 0.953,-0.229 1.822,-1.056 1.076,-5.484 2.554,-6.963 1.479,-1.479 5.909,-0.732 6.963,-2.554 1.039,-1.795 -1.812,-5.256 -1.265,-7.308 0.531,-1.981 4.744,-3.549 4.744,-5.696 0,-2.147 -4.213,-3.715 -4.742,-5.696 -0.549,-2.052 2.302,-5.511 1.263,-7.306 -1.054,-1.821 -5.484,-1.076 -6.961,-2.555 -1.479,-1.477 -0.732,-5.908 -2.554,-6.963 -0.28,-0.162 -0.603,-0.229 -0.952,-0.229 -1.689,0 -4.056,1.564 -5.773,1.564 -0.203,0 -0.396,-0.022 -0.58,-0.071 C 265.049,37.215 263.482,33 261.334,33 Z"
   id="path5639"
   inkscape:connector-curvature="0"
   style="fill:#0980bc" />
				</g>
			</g>
			<g
   id="g5690"
   style="opacity:0.8">
				<g
   id="g5652">
					
						<linearGradient
   id="SVGID_14_"
   gradientUnits="userSpaceOnUse"
   x1="256.67291"
   y1="-57.434101"
   x2="295.56049"
   y2="-57.434101"
   gradientTransform="matrix(1,0,0,-1,-20.8398,-10.5996)">
						<stop
   offset="0"
   style="stop-color:#FFFFFF"
   id="stop5645" />
						<stop
   offset="1"
   style="stop-color:#000000"
   id="stop5647" />
					</linearGradient>
					<path
   d="m 236.23,59.617 c 0,-0.922 1.147,-1.848 2.258,-2.742 1.072,-0.863 2.183,-1.758 2.47,-2.828 0.298,-1.115 -0.226,-2.479 -0.733,-3.799 -0.498,-1.295 -1.014,-2.637 -0.58,-3.387 0.442,-0.769 1.881,-0.99 3.268,-1.207 1.382,-0.217 2.813,-0.438 3.615,-1.24 0.802,-0.803 1.027,-2.23 1.242,-3.613 0.217,-1.389 0.439,-2.824 1.207,-3.27 0.19,-0.111 0.42,-0.164 0.705,-0.164 0.744,0 1.727,0.375 2.672,0.74 1.066,0.41 2.146,0.824 3.104,0.824 0.252,0 0.488,-0.029 0.706,-0.086 1.069,-0.287 1.964,-1.396 2.828,-2.473 0.895,-1.109 1.817,-2.258 2.739,-2.258 0.922,0 1.849,1.148 2.742,2.262 0.863,1.072 1.758,2.182 2.826,2.469 0.217,0.057 0.454,0.086 0.706,0.086 0.956,0 2.036,-0.414 3.079,-0.816 0.965,-0.371 1.948,-0.746 2.695,-0.746 0.283,0 0.514,0.053 0.703,0.162 0.088,0.051 0.164,0.117 0.238,0.191 -0.16,-0.361 -0.361,-0.648 -0.635,-0.807 -0.189,-0.111 -0.42,-0.164 -0.704,-0.164 -0.747,0 -1.729,0.377 -2.694,0.748 -1.043,0.4 -2.123,0.816 -3.08,0.816 -0.252,0 -0.489,-0.029 -0.705,-0.088 -1.068,-0.285 -1.963,-1.396 -2.827,-2.469 -0.894,-1.111 -1.82,-2.26 -2.741,-2.26 -0.922,0 -1.846,1.148 -2.74,2.258 -0.863,1.074 -1.758,2.186 -2.828,2.471 -0.218,0.059 -0.453,0.088 -0.705,0.088 -0.957,0 -2.037,-0.416 -3.104,-0.826 -0.945,-0.363 -1.928,-0.74 -2.673,-0.74 -0.284,0 -0.515,0.053 -0.704,0.166 -0.768,0.443 -0.99,1.879 -1.208,3.268 -0.215,1.383 -0.438,2.811 -1.242,3.613 -0.803,0.802 -2.233,1.024 -3.614,1.24 -1.388,0.219 -2.824,0.44 -3.268,1.209 -0.434,0.75 0.082,2.09 0.58,3.387 0.509,1.32 1.031,2.685 0.732,3.798 -0.287,1.071 -1.396,1.965 -2.469,2.829 -1.109,0.896 -2.259,1.82 -2.259,2.742 0,0.392 0.214,0.781 0.536,1.17 -0.081,-0.183 -0.138,-0.368 -0.138,-0.554 z"
   id="path5650"
   inkscape:connector-curvature="0"
   style="fill:url(#SVGID_14_)" />
				</g>
				<g
   id="g5661">
					
						<linearGradient
   id="SVGID_15_"
   gradientUnits="userSpaceOnUse"
   x1="303.52151"
   y1="-67.073196"
   x2="307.5332"
   y2="-67.073196"
   gradientTransform="matrix(1,0,0,-1,-20.8398,-10.5996)">
						<stop
   offset="0"
   style="stop-color:#FFFFFF"
   id="stop5654" />
						<stop
   offset="1"
   style="stop-color:#000000"
   id="stop5656" />
					</linearGradient>
					<path
   d="m 282.682,54.502 c 0.435,0.873 1.373,1.635 2.291,2.373 0.639,0.516 1.282,1.041 1.721,1.57 -0.33,-0.736 -1.23,-1.471 -2.117,-2.187 -0.697,-0.559 -1.403,-1.131 -1.895,-1.756 z"
   id="path5659"
   inkscape:connector-curvature="0"
   style="fill:url(#SVGID_15_)" />
				</g>
				<g
   id="g5670">
					
						<linearGradient
   id="SVGID_16_"
   gradientUnits="userSpaceOnUse"
   x1="297.23831"
   y1="-55.690399"
   x2="304.375"
   y2="-55.690399"
   gradientTransform="matrix(1,0,0,-1,-20.8398,-10.5996)">
						<stop
   offset="0"
   style="stop-color:#FFFFFF"
   id="stop5663" />
						<stop
   offset="1"
   style="stop-color:#000000"
   id="stop5665" />
					</linearGradient>
					<path
   d="m 276.936,44.414 c 0.799,0.803 2.229,1.023 3.609,1.24 1.175,0.184 2.378,0.377 2.99,0.896 -0.026,-0.108 -0.064,-0.211 -0.118,-0.303 -0.442,-0.769 -1.88,-0.992 -3.269,-1.211 -1.381,-0.216 -2.812,-0.438 -3.61,-1.24 -0.052,-0.051 -0.093,-0.108 -0.14,-0.164 0.146,0.298 0.319,0.563 0.538,0.782 z"
   id="path5668"
   inkscape:connector-curvature="0"
   style="fill:url(#SVGID_16_)" />
				</g>
				<g
   id="g5679">
					
						<linearGradient
   id="SVGID_17_"
   gradientUnits="userSpaceOnUse"
   x1="259.92581"
   y1="-78.694298"
   x2="261.8848"
   y2="-78.694298"
   gradientTransform="matrix(1,0,0,-1,-20.8398,-10.5996)">
						<stop
   offset="0"
   style="stop-color:#FFFFFF"
   id="stop5672" />
						<stop
   offset="1"
   style="stop-color:#000000"
   id="stop5674" />
					</linearGradient>
					<path
   d="m 240.225,68.984 c 0.51,-1.32 1.031,-2.685 0.733,-3.801 -0.101,-0.375 -0.308,-0.728 -0.571,-1.064 0.071,0.146 0.135,0.295 0.176,0.449 0.297,1.115 -0.226,2.479 -0.733,3.801 -0.498,1.295 -1.015,2.635 -0.58,3.385 0.067,0.119 0.167,0.221 0.278,0.316 -0.19,-0.777 0.259,-1.949 0.697,-3.086 z"
   id="path5677"
   inkscape:connector-curvature="0"
   style="fill:url(#SVGID_17_)" />
				</g>
				<g
   id="g5688">
					
						<linearGradient
   id="SVGID_18_"
   gradientUnits="userSpaceOnUse"
   x1="267.50491"
   y1="-88.541"
   x2="269.18259"
   y2="-88.541"
   gradientTransform="matrix(1,0,0,-1,-20.8398,-10.5996)">
						<stop
   offset="0"
   style="stop-color:#FFFFFF"
   id="stop5681" />
						<stop
   offset="1"
   style="stop-color:#000000"
   id="stop5683" />
					</linearGradient>
					<path
   d="m 247.768,78.432 c -0.203,-1.295 -0.416,-2.623 -1.103,-3.445 0.385,0.795 0.548,1.822 0.705,2.83 0.192,1.232 0.394,2.498 0.973,3.08 -0.29,-0.657 -0.436,-1.569 -0.575,-2.465 z"
   id="path5686"
   inkscape:connector-curvature="0"
   style="fill:url(#SVGID_18_)" />
				</g>
			</g>
		</g>
		
			<text
   transform="matrix(0.9529,-0.3034,0.3034,0.9529,242.7803,70.4072)"
   display="inline"
   font-size="12.4385"
   id="text5693"
   style="font-size:12.4385004px;font-family:MyriadPro-Bold;display:inline;fill:#ffffff">Staging</text>

	</g>
</g>
<polygon
   points="87.647,15.916 92.041,15.916 92.041,47.299 87.647,47.299 "
   id="polygon5697"
   style="clip-rule:evenodd;fill:#ffffff;fill-rule:evenodd"
   transform="translate(0,-5.577)" />
<path
   d="m 199.469,10.104 h -4.001 l -13.652,31.618 h 4.003 l 4.237,-9.962 h 9.806 l 1.884,9.962 h 4.002 z m -7.924,18.515 5.179,-12.944 h 0.078 l 2.511,12.944 z"
   id="path5699"
   inkscape:connector-curvature="0"
   style="clip-rule:evenodd;fill:#ffffff;fill-rule:evenodd" />
<path
   d="m 101.611,21.284 v 2.59 c 1.648,-1.806 3.923,-2.903 6.198,-2.903 2.432,0 4.629,1.098 5.728,3.138 1.02,1.413 1.176,3.059 1.176,5.963 v 11.926 h -4.001 V 30.15 c 0,-4.159 -1.255,-5.806 -4.314,-5.806 -1.883,0 -3.453,0.862 -4.786,2.824 v 14.83 H 97.296 V 21.284 Z"
   id="path5701"
   inkscape:connector-curvature="0"
   style="clip-rule:evenodd;fill:#ffffff;fill-rule:evenodd" />
<path
   d="m 125.37,21.167 h 6.59 v 3.688 h -6.59 v 8.945 1.098 c 0.078,2.588 1.098,3.609 3.06,3.609 1.334,0 2.903,-0.392 4.628,-1.569 v 3.843 c -1.49,0.863 -3.766,1.413 -5.256,1.413 -2.825,0 -5.257,-1.413 -6.042,-3.766 -0.392,-1.255 -0.392,-1.806 -0.392,-4.394 v -9.18 h -3.609 v -0.549 l 7.611,-7.454 z"
   id="path5703"
   inkscape:connector-curvature="0"
   style="clip-rule:evenodd;fill:#ffffff;fill-rule:evenodd" />
<path
   d="m 153.054,31.367 c 0,-6.513 -3.611,-10.592 -9.104,-10.592 -5.806,0 -9.728,4.314 -9.728,10.592 0,3.138 1.098,5.806 3.06,7.844 2.04,2.196 4.157,2.982 7.141,2.982 3.218,0 5.413,-0.705 8.158,-2.433 v -4 c -2.276,1.725 -4.707,2.589 -7.452,2.589 -3.845,0 -6.355,-2.589 -6.748,-6.59 h 14.673 z m -14.673,-1.963 c 0.707,-3.374 2.511,-5.099 5.569,-5.099 2.827,0 4.629,1.726 4.943,5.099 z"
   id="path5705"
   inkscape:connector-curvature="0"
   style="clip-rule:evenodd;fill:#ffffff;fill-rule:evenodd" />
<polygon
   points="245.279,26.744 249.046,26.744 246.299,47.378 242.299,47.378 "
   id="polygon5707"
   style="clip-rule:evenodd;fill:#ffffff;fill-rule:evenodd"
   transform="translate(0,-5.577)" />

<path
   d="m 268.515,31.838 c 0.235,-0.628 0.235,-2.002 0.235,-2.787 0,-5.021 -3.062,-8.552 -7.532,-8.552 -5.492,0 -9.729,5.336 -9.729,12.083 0,5.884 3.609,9.807 8.786,9.807 2.434,0 4.708,-0.863 6.905,-2.432 l 0.548,-3.845 c -2.745,2.04 -5.099,3.06 -7.059,3.06 -2.906,0 -5.181,-2.589 -5.181,-6.197 0,-0.393 0,-0.51 0,-1.137 z m -7.519,-8.192 c 0.073,-0.005 0.146,-0.008 0.222,-0.008 2.195,0 3.686,1.804 3.686,4.393 v 1.452 h -0.114 -8.438 -0.389 c 0.743,-2.57 2.361,-5.772 5.033,-5.837 z"
   id="path5711"
   inkscape:connector-curvature="0"
   style="clip-rule:evenodd;fill:#ffffff;fill-rule:evenodd" />
<path
   d="m 281.624,24.618 h -4.315 l -3.216,25.971 h -3.767 l 3.138,-25.971 h -3.138 l 0.391,-3.374 h 3.376 c 0.235,-3.609 0.941,-5.493 2.118,-7.454 1.806,-2.353 4.629,-3.765 7.768,-3.765 1.489,0 2.824,0.313 5.021,1.02 l -0.628,3.845 c -1.334,-0.706 -2.904,-1.177 -4.238,-1.177 -3.608,0 -5.883,2.746 -6.354,7.532 h 4.236 z"
   id="path5713"
   inkscape:connector-curvature="0"
   style="clip-rule:evenodd;fill:#ffffff;fill-rule:evenodd" />
<path
   d="m 231.595,37.173 c 0,-0.252 0.003,-0.472 0.023,-0.701 l 2.096,-11.9 h 5.13 l 0.724,-3.405 h -5.228 l 0.708,-4.315 -8.834,7.172 -0.01,-0.004 -0.105,0.553 h 3.613 l -2.202,12.473 v 0 c -0.04,0.193 -0.073,0.388 -0.073,0.599 0,2.902 2.197,4.707 5.649,4.707 1.334,0 2.432,-0.235 4.08,-0.942 l 0.394,-3.764 c -1.257,0.785 -2.512,1.255 -3.846,1.255 -1.413,-0.002 -2.119,-0.551 -2.119,-1.728 z"
   id="path5715"
   inkscape:connector-curvature="0"
   style="fill:#ffffff" />
<path
   d="m 220.705,20.46 c -8.083,0 -13.731,5.022 -13.731,12.397 0,5.885 3.609,9.493 9.18,9.493 0.284,0 0.548,-0.011 0.799,-0.034 3.03,-0.086 4.89,-1.221 4.89,-1.221 l 0.5,-3.465 c -2.008,1.118 -5.276,1.266 -5.276,1.266 v 0.01 c -0.066,-0.004 -0.135,-0.007 -0.207,-0.007 -3.608,0 -5.806,-2.354 -5.806,-6.042 0,-5.1 4.081,-8.866 9.494,-8.866 0.627,0 1.334,0 2.589,0.236 l 0.314,0.079 0.471,-3.453 c -1.335,-0.393 -1.885,-0.393 -3.217,-0.393 z"
   id="path5717"
   inkscape:connector-curvature="0"
   style="fill:#ffffff" />
<path
   d="m 167.153,20.852 c -0.792,0 -1.571,0.197 -2.354,0.653 v -0.004 c 0,0 -2.6,1.414 -3.924,3.173 v -3.507 h -4 v 20.712 h 4 V 30.895 c 0,-3.373 2.354,-6.119 4.943,-6.119 1.099,0 2.668,0.627 4.002,1.96 l 2.04,-3.609 c -1.647,-1.491 -3.216,-2.275 -4.707,-2.275 z"
   id="path5719"
   inkscape:connector-curvature="0"
   style="fill:#ffffff" />
<path
   d="M 27.654,9.944 C 31.467,6.851 41.549,2.192 47.452,2.192 48.069,1.839 49.266,0.548 48.229,0 41.572,0 29.767,5.241 25.062,9.944 h 1.377 z"
   id="path5721"
   inkscape:connector-curvature="0"
   style="fill:#ffffff" />
<path
   d="m 16.159,53.177 c -3.214,0 -6.034,-0.805 -8.079,-2.415 C 7.169,49.994 3.174,46.011 5.783,37.015 6.061,36.126 6.353,35.213 6.614,34.212 6.739,33.718 6.043,33.046 5.621,33.582 5.183,34.153 4.82,34.839 4.515,35.588 v 0 c 0,0 -2.397,5.209 -1.374,10.581 0.319,2.059 1.134,3.8 2.342,5.189 0.005,0.008 0.011,0.013 0.016,0.021 h 0.003 c 2.229,2.549 5.774,3.918 9.961,3.918 10.618,0 22.606,-5.775 31.159,-12.627 H 44.11 C 36.504,48.313 25.007,53.177 16.159,53.177 Z"
   id="path5723"
   inkscape:connector-curvature="0"
   style="fill:#ffffff" />

<path
   style="fill:#ffffff"
   d="m 15.602,31.197 h 6.43136 C 18.955734,28.462927 16.327966,25.571064 15.794948,21.393 H 15.602 V 10.588 L 0,26.295 15.602,41.964 Z"
   id="polygon5727"
   inkscape:connector-curvature="0"
   sodipodi:nodetypes="cccccccc" />
<path
   style="fill:#ffffff"
   d="M 67.36,26.295 51.759,10.588 v 10.805 h -0.212075 c -0.253522,3.50688 -2.775964,6.78608 -6.254805,9.804 H 51.759 v 10.767 z"
   id="polygon5729"
   inkscape:connector-curvature="0"
   sodipodi:nodetypes="cccccccc" />
<path
   d="m 62.596,12.798 c 0,2.102 -0.216,3.757 -0.878,5.754 -0.207,0.856 -0.023,1.325 0.833,0.8 1.131,-1.724 1.541,-4.83 1.541,-6.918 0,-6.566 -3.196,-11.179 -9.865,-12.4 -0.868,0.206 -1.495,1.439 -0.799,2.192 5.412,0.331 9.168,5.458 9.168,10.572 z"
   id="path5731"
   inkscape:connector-curvature="0"
   style="fill:#ffffff" />
<path
   d="m 181.815,32.987 h -9.853 v -3.243 h 9.853 z"
   id="path5733"
   inkscape:connector-curvature="0"
   style="fill:#ffffff" />
<g
   transform="matrix(0.01922835,0,0,-0.01922835,16.463131,38.676227)"
   id="g6977"
   style="fill:#ffffff;fill-opacity:1;stroke:none;stroke-opacity:1"><path
     inkscape:connector-curvature="0"
     d="m 896,-128 q -26,0 -44,18 L 228,492 q -10,8 -27.5,26 Q 183,536 145,583.5 107,631 77,681 47,731 23.5,802 0,873 0,940 q 0,220 127,344 127,124 351,124 62,0 126.5,-21.5 64.5,-21.5 120,-58 55.5,-36.5 95.5,-68.5 40,-32 76,-68 36,36 76,68 40,32 95.5,68.5 55.5,36.5 120,58 64.5,21.5 126.5,21.5 224,0 351,-124 127,-124 127,-344 0,-221 -229,-450 L 940,-110 q -18,-18 -44,-18"
     id="path6975"
     style="fill:#ffffff;fill-opacity:1;stroke:none;stroke-opacity:1" /></g><path
   inkscape:connector-curvature="0"
   d="m 247.85016,18.150456 q -0.0914,0 -0.15471,-0.0633 l -2.19417,-2.116814 q -0.0352,-0.02813 -0.0967,-0.09142 -0.0616,-0.0633 -0.19516,-0.230317 -0.13362,-0.167025 -0.2391,-0.34284 -0.10549,-0.175815 -0.18813,-0.425473 -0.0826,-0.249657 -0.0826,-0.48525 0,-0.773586 0.44657,-1.209607 0.44657,-0.436022 1.23423,-0.436022 0.218,0 0.4448,0.0756 0.2268,0.0756 0.42196,0.203946 0.19515,0.128345 0.33581,0.240866 0.14065,0.112522 0.26723,0.239109 0.12659,-0.126587 0.26724,-0.239109 0.14066,-0.112521 0.33581,-0.240866 0.19515,-0.128345 0.42195,-0.203946 0.22681,-0.0756 0.44482,-0.0756 0.78766,0 1.23422,0.436022 0.44657,0.436021 0.44657,1.209607 0,0.777103 -0.80523,1.582336 l -2.19066,2.109782 q -0.0633,0.0633 -0.15472,0.0633"
   id="path6975-3"
   style="fill:#ffffff;fill-opacity:1;stroke:none;stroke-width:0.0035163;stroke-opacity:1" /></svg>