<?xml version="1.0" encoding="UTF-8" standalone="no"?>
<!-- Created with Inkscape (http://www.inkscape.org/) -->

<svg
   width="243.68124mm"
   height="95.25mm"
   viewBox="0 0 243.68124 95.25"
   version="1.1"
   id="svg1"
   xml:space="preserve"
   inkscape:version="1.4.3 (0d15f75042, 2025-12-25)"
   sodipodi:docname="matrix_glasses.svg"
   xmlns:inkscape="http://www.inkscape.org/namespaces/inkscape"
   xmlns:sodipodi="http://sodipodi.sourceforge.net/DTD/sodipodi-0.dtd"
   xmlns="http://www.w3.org/2000/svg"
   xmlns:svg="http://www.w3.org/2000/svg"><sodipodi:namedview
     id="namedview1"
     pagecolor="#ffffff"
     bordercolor="#000000"
     borderopacity="0.25"
     inkscape:showpageshadow="2"
     inkscape:pageopacity="0.0"
     inkscape:pagecheckerboard="true"
     inkscape:deskcolor="#d1d1d1"
     inkscape:document-units="mm"
     inkscape:zoom="0.87414193"
     inkscape:cx="233.9437"
     inkscape:cy="48.619107"
     inkscape:window-width="1920"
     inkscape:window-height="1056"
     inkscape:window-x="1920"
     inkscape:window-y="444"
     inkscape:window-maximized="1"
     inkscape:current-layer="layer1" /><defs
     id="defs1" /><g
     inkscape:label="Layer 1"
     inkscape:groupmode="layer"
     id="layer1"
     transform="translate(45.110256,-24.401295)"><path
       id="path1"
       style="display:inline;fill:#000000"
       d="M 138.91262 43.262159 C 138.71943 43.268489 138.51781 43.307235 138.32403 43.314869 C 141.11758 43.205157 143.87028 43.198629 146.47495 43.367579 C 144.04772 43.210138 141.50804 43.177119 138.91262 43.262159 z M 160.69424 45.520936 C 165.33253 46.704851 167.71863 47.610605 172.07132 49.840569 C 167.71863 47.610605 165.33253 46.704851 160.69424 45.520936 z M 172.07132 49.840569 C 176.74656 52.235778 179.09402 54.870757 180.22689 58.494821 C 179.32549 54.972591 176.74656 52.235778 172.07132 49.840569 z M 60.869322 58.369247 L 65.082501 64.054172 C 64.933817 63.403274 64.869251 62.813764 64.938841 62.744174 C 65.536306 62.146708 77.888153 61.770689 83.832778 62.169016 C 86.379392 62.339655 88.660332 62.538983 88.901719 62.611883 C 89.274941 62.724597 89.29955 62.891449 89.066567 63.726543 C 88.978782 64.041196 88.932818 64.529198 88.915672 65.115089 L 92.845148 58.687574 L 92.013157 59.347482 L 89.179738 59.020371 C 84.274721 58.454398 71.934048 58.372789 66.690672 58.871542 L 62.116791 59.306658 L 60.869322 58.369247 z M -26.235956 58.920118 C -26.496395 59.992284 -26.52394 60.013528 -27.888568 60.182057 C -30.679832 60.526774 -33.365144 61.213264 -33.799835 61.693592 C -34.698424 62.686521 -34.004677 64.576104 -32.741502 64.576104 C -32.43658 64.576104 -31.353521 64.399635 -30.33493 64.18388 C -29.316338 63.968126 -28.001474 63.789505 -27.412628 63.787005 L -26.341893 63.782354 L -26.270579 64.087761 C -26.590024 62.380926 -26.641226 60.715139 -26.235956 58.920118 z M 180.43153 59.286504 C 180.76067 60.854521 180.73071 62.685704 180.39536 64.171994 C 180.53483 63.809763 180.77748 63.782354 181.59374 63.782354 C 182.22422 63.782354 183.64869 63.956473 184.75892 64.168893 C 187.05139 64.607516 187.98309 64.386157 188.24553 63.34052 C 188.6715 61.64332 187.86888 61.021098 184.67417 60.571697 C 181.18073 60.080272 180.69471 60.085109 180.43153 59.286504 z M 180.27599 64.64225 C 179.29455 68.079666 176.73095 74.544667 174.19884 78.307049 C 176.73095 74.544667 179.57581 68.147789 180.27599 64.64225 z M 89.753863 73.085662 L 90.321271 75.873605 L 89.452073 75.510837 C 87.013437 74.49191 86.674443 77.150537 88.71465 81.291879 C 90.476794 84.86879 93.092081 87.821835 95.422251 88.865577 C 95.981025 89.115866 97.504976 90.443974 98.861835 91.863327 C 95.984414 88.606659 92.215615 85.047821 89.753863 73.085662 z M 65.570327 75.324802 C 65.310204 75.322859 65.004942 75.391335 64.65462 75.537709 C 63.742331 75.918887 63.723582 75.914801 63.855186 75.346506 C 61.278267 85.080291 59.122433 87.151982 56.874733 90.06137 C 57.268878 89.568395 57.682936 89.192058 57.847801 89.189072 C 59.241246 89.163536 62.741718 85.898266 64.479437 83.003403 C 67.006323 78.793867 67.391187 75.338398 65.570327 75.324802 z M 165.04901 88.632 C 161.53629 91.699849 157.60775 94.353069 153.40424 96.468214 C 157.60775 94.353065 161.53633 91.699843 165.04901 88.632 z M 116.39823 101.7511 C 120.14187 102.56197 124.19785 102.90108 128.37683 102.77429 C 124.19786 102.90109 120.14186 102.56197 116.39823 101.7511 z " /><g
       id="g7"
       style="display:inline"><path
         id="path6"
         style="fill:#000000;fill-opacity:1;opacity:0.65"
         d="m 65.08272,64.054326 v 0 c 0.3824,1.674215 -0.01193,6.700559 -1.22715,11.291033 -2.638853,9.968236 -4.836199,11.901343 -7.1427,14.926769 -0.43657,0.592378 -1.68672,1.931553 -2.77813,2.975943 -6.115751,5.85232 -12.956846,8.651639 -23.018749,9.419109 -3.915559,0.29864 -4.503166,0.29798 -8.207874,-0.009 l -4e-5,-2.8e-4 v 0 C 5.680888,101.24569 -10.325929,92.401051 -19.308634,79.441365 c -3.119061,-4.499987 -5.670219,-9.800654 -6.562176,-13.634557 -0.63517,-2.334195 -0.904795,-4.496132 -0.365036,-6.886832 0.859272,-3.537427 3.432499,-6.485797 7.685441,-8.805879 12.628722,-6.889271 30.83615,-8.719371 49.404546,-4.965847 11.100458,2.243912 21.080079,6.505119 28.768569,12.283918 l 1.246791,0.937108" /><path
         id="path7"
         style="fill:#000000;fill-opacity:1;opacity:0.65"
         d="m 92.845178,58.687244 0.832382,-0.66038 c 5.49974,-4.363344 13.877,-8.569437 21.90505,-10.998192 9.67497,-2.927002 21.18353,-4.290911 30.89246,-3.661147 5.95873,0.386509 9.24902,0.884803 14.219,2.153381 4.63829,1.183915 7.02439,2.089915 11.37708,4.319879 4.67524,2.395209 7.02274,5.029939 8.15561,8.654003 0.58446,1.869696 0.56329,4.346636 0.0491,6.147676 -0.98144,3.437416 -3.54488,9.901968 -6.07699,13.66435 -5.08073,7.549289 -12.38773,13.930897 -20.79475,18.161187 -15.64095,7.870309 -35.39521,8.469699 -47.10917,1.42942 -3.08558,-1.85449 -4.73329,-2.978431 -7.43256,-6.03351 -2.88932,-3.270186 -6.678016,-6.845245 -9.13914,-18.926841 -0.556879,-2.733713 -0.866404,-5.877964 -0.813072,-7.812529" /></g></g></svg>
