<?xml version="1.0" encoding="UTF-8" standalone="no"?>
<!-- Created with Inkscape (http://www.inkscape.org/) -->

<svg
   width="110.80564mm"
   height="2.9021485mm"
   viewBox="0 0 110.80564 2.9021485"
   version="1.1"
   id="svg1"
   inkscape:version="1.4.3 (0d15f75042, 2025-12-25)"
   sodipodi:docname="matrix_button.svg"
   inkscape:export-filename="matrix_button.png"
   inkscape:export-xdpi="96"
   inkscape:export-ydpi="96"
   xmlns:inkscape="http://www.inkscape.org/namespaces/inkscape"
   xmlns:sodipodi="http://sodipodi.sourceforge.net/DTD/sodipodi-0.dtd"
   xmlns="http://www.w3.org/2000/svg"
   xmlns:svg="http://www.w3.org/2000/svg">
  <sodipodi:namedview
     id="namedview1"
     pagecolor="#ffffff"
     bordercolor="#000000"
     borderopacity="0.25"
     inkscape:showpageshadow="2"
     inkscape:pageopacity="0.0"
     inkscape:pagecheckerboard="0"
     inkscape:deskcolor="#d1d1d1"
     inkscape:document-units="mm"
     inkscape:zoom="9.3601285"
     inkscape:cx="92.092752"
     inkscape:cy="18.642906"
     inkscape:window-width="1920"
     inkscape:window-height="1056"
     inkscape:window-x="1920"
     inkscape:window-y="444"
     inkscape:window-maximized="1"
     inkscape:current-layer="layer1" />
  <defs
     id="defs1" />
  <g
     inkscape:label="Layer 1"
     inkscape:groupmode="layer"
     id="layer1"
     transform="translate(-19.201573,-115.93816)">
    <path
       style="font-size:4.1275px;font-family:mononoki;-inkscape-font-specification:mononoki;opacity:0.65;fill:#282828;stroke-width:2;stroke-linejoin:round;stroke-miterlimit:2"
       d="m 20.140741,115.93816 q 0.286184,0 0.495783,0.17736 0.213631,0.17332 0.326492,0.50384 0.112861,0.32649 0.112861,0.76988 0,0.44338 -0.112861,0.7739 -0.112861,0.32649 -0.326492,0.50385 -0.209599,0.17332 -0.495783,0.17332 -0.286184,0 -0.499815,-0.17332 -0.21363,-0.17736 -0.326491,-0.50385 -0.112862,-0.33052 -0.112862,-0.7739 0,-0.44339 0.112862,-0.76988 0.112861,-0.33052 0.326491,-0.50384 0.213631,-0.17736 0.499815,-0.17736 z m -0.596553,1.45108 q 0,0.16526 0.02015,0.34664 l 1.064121,-1.06412 q -0.07659,-0.20557 -0.201538,-0.3144 -0.124954,-0.11286 -0.286184,-0.11286 -0.274092,0 -0.435323,0.31037 -0.16123,0.30634 -0.16123,0.83437 z m 0.108831,0.70941 q 0.07658,0.2096 0.201538,0.32246 0.124953,0.10883 0.286184,0.10883 0.274091,0 0.431291,-0.30634 0.161231,-0.30633 0.161231,-0.83436 0,-0.1693 -0.02015,-0.35068 z m 3.518855,0.39098 q 0.100769,0 0.100769,0.10077 v 0.10883 q 0,0.10077 -0.100769,0.10077 h -1.430921 q -0.100769,0 -0.100769,-0.10077 v -0.10883 q 0,-0.10077 0.100769,-0.10077 h 0.673137 v -1.78562 h -0.673137 q -0.100769,0 -0.100769,-0.10077 v -0.10883 q 0,-0.10077 0.100769,-0.10077 0.302307,0 0.471599,-0.0726 0.169292,-0.0766 0.249907,-0.26199 0.03628,-0.0806 0.116893,-0.0806 h 0.07658 q 0.100769,0 0.100769,0.10077 v 2.41039 z m 2.317687,0 q 0.10077,0 0.10077,0.10077 v 0.10883 q 0,0.10077 -0.10077,0.10077 h -1.43092 q -0.100769,0 -0.100769,-0.10077 v -0.10883 q 0,-0.10077 0.100769,-0.10077 h 0.673137 v -1.78562 h -0.673137 q -0.100769,0 -0.100769,-0.10077 v -0.10883 q 0,-0.10077 0.100769,-0.10077 0.302307,0 0.471599,-0.0726 0.169292,-0.0766 0.249907,-0.26199 0.03628,-0.0806 0.116893,-0.0806 h 0.07658 q 0.100769,0 0.100769,0.10077 v 2.41039 z m 1.604244,-2.55147 q 0.286184,0 0.495783,0.17736 0.213631,0.17332 0.326492,0.50384 0.112861,0.32649 0.112861,0.76988 0,0.44338 -0.112861,0.7739 -0.112861,0.32649 -0.326492,0.50385 -0.209599,0.17332 -0.495783,0.17332 -0.286184,0 -0.499815,-0.17332 -0.21363,-0.17736 -0.326492,-0.50385 -0.112861,-0.33052 -0.112861,-0.7739 0,-0.44339 0.112861,-0.76988 0.112862,-0.33052 0.326492,-0.50384 0.213631,-0.17736 0.499815,-0.17736 z m -0.596553,1.45108 q 0,0.16526 0.02015,0.34664 l 1.064121,-1.06412 q -0.07659,-0.20557 -0.201538,-0.3144 -0.124954,-0.11286 -0.286184,-0.11286 -0.274092,0 -0.435323,0.31037 -0.16123,0.30634 -0.16123,0.83437 z m 0.10883,0.70941 q 0.07658,0.2096 0.201539,0.32246 0.124953,0.10883 0.286184,0.10883 0.274091,0 0.431291,-0.30634 0.161231,-0.30633 0.161231,-0.83436 0,-0.1693 -0.02015,-0.35068 z m 2.805411,-2.16049 q 0.286184,0 0.495783,0.17736 0.213631,0.17332 0.326492,0.50384 0.112861,0.32649 0.112861,0.76988 0,0.44338 -0.112861,0.7739 -0.112861,0.32649 -0.326492,0.50385 -0.209599,0.17332 -0.495783,0.17332 -0.286184,0 -0.499815,-0.17332 -0.21363,-0.17736 -0.326492,-0.50385 -0.112861,-0.33052 -0.112861,-0.7739 0,-0.44339 0.112861,-0.76988 0.112862,-0.33052 0.326492,-0.50384 0.213631,-0.17736 0.499815,-0.17736 z m -0.596553,1.45108 q 0,0.16526 0.02015,0.34664 l 1.064121,-1.06412 q -0.07659,-0.20557 -0.201538,-0.3144 -0.124954,-0.11286 -0.286184,-0.11286 -0.274092,0 -0.435323,0.31037 -0.16123,0.30634 -0.16123,0.83437 z m 0.10883,0.70941 q 0.07658,0.2096 0.201539,0.32246 0.124953,0.10883 0.286184,0.10883 0.274091,0 0.431291,-0.30634 0.161231,-0.30633 0.161231,-0.83436 0,-0.1693 -0.02015,-0.35068 z m 2.805411,-2.16049 q 0.286184,0 0.495783,0.17736 0.213631,0.17332 0.326492,0.50384 0.112861,0.32649 0.112861,0.76988 0,0.44338 -0.112861,0.7739 -0.112861,0.32649 -0.326492,0.50385 -0.209599,0.17332 -0.495783,0.17332 -0.286184,0 -0.499815,-0.17332 -0.21363,-0.17736 -0.326492,-0.50385 -0.112861,-0.33052 -0.112861,-0.7739 0,-0.44339 0.112861,-0.76988 0.112862,-0.33052 0.326492,-0.50384 0.213631,-0.17736 0.499815,-0.17736 z m -0.596553,1.45108 q 0,0.16526 0.02015,0.34664 l 1.064121,-1.06412 q -0.07659,-0.20557 -0.201538,-0.3144 -0.124954,-0.11286 -0.286184,-0.11286 -0.274092,0 -0.435323,0.31037 -0.16123,0.30634 -0.16123,0.83437 z m 0.10883,0.70941 q 0.07658,0.2096 0.201539,0.32246 0.124953,0.10883 0.286184,0.10883 0.274091,0 0.431291,-0.30634 0.161231,-0.30633 0.161231,-0.83436 0,-0.1693 -0.02015,-0.35068 z m 3.518855,0.39098 q 0.100769,0 0.100769,0.10077 v 0.10883 q 0,0.10077 -0.100769,0.10077 h -1.43092 q -0.100769,0 -0.100769,-0.10077 v -0.10883 q 0,-0.10077 0.100769,-0.10077 h 0.673137 v -1.78562 h -0.673137 q -0.100769,0 -0.100769,-0.10077 v -0.10883 q 0,-0.10077 0.100769,-0.10077 0.302307,0 0.471599,-0.0726 0.169292,-0.0766 0.249907,-0.26199 0.03628,-0.0806 0.116892,-0.0806 h 0.07659 q 0.100769,0 0.100769,0.10077 v 2.41039 z m 1.604244,-2.55147 q 0.286184,0 0.495783,0.17736 0.213631,0.17332 0.326492,0.50384 0.112861,0.32649 0.112861,0.76988 0,0.44338 -0.112861,0.7739 -0.112861,0.32649 -0.326492,0.50385 -0.209599,0.17332 -0.495783,0.17332 -0.286184,0 -0.499815,-0.17332 -0.21363,-0.17736 -0.326492,-0.50385 -0.112861,-0.33052 -0.112861,-0.7739 0,-0.44339 0.112861,-0.76988 0.112862,-0.33052 0.326492,-0.50384 0.213631,-0.17736 0.499815,-0.17736 z m -0.596553,1.45108 q 0,0.16526 0.02015,0.34664 l 1.064121,-1.06412 q -0.07659,-0.20557 -0.201538,-0.3144 -0.124954,-0.11286 -0.286184,-0.11286 -0.274092,0 -0.435323,0.31037 -0.16123,0.30634 -0.16123,0.83437 z m 0.10883,0.70941 q 0.07658,0.2096 0.201539,0.32246 0.124953,0.10883 0.286184,0.10883 0.274091,0 0.431291,-0.30634 0.161231,-0.30633 0.161231,-0.83436 0,-0.1693 -0.02015,-0.35068 z m 2.805411,-2.16049 q 0.286184,0 0.495783,0.17736 0.213631,0.17332 0.326492,0.50384 0.112861,0.32649 0.112861,0.76988 0,0.44338 -0.112861,0.7739 -0.112861,0.32649 -0.326492,0.50385 -0.209599,0.17332 -0.495783,0.17332 -0.286185,0 -0.499815,-0.17332 -0.21363,-0.17736 -0.326492,-0.50385 -0.112861,-0.33052 -0.112861,-0.7739 0,-0.44339 0.112861,-0.76988 0.112862,-0.33052 0.326492,-0.50384 0.21363,-0.17736 0.499815,-0.17736 z m -0.596553,1.45108 q 0,0.16526 0.02015,0.34664 l 1.064121,-1.06412 q -0.07659,-0.20557 -0.201538,-0.3144 -0.124954,-0.11286 -0.286184,-0.11286 -0.274092,0 -0.435323,0.31037 -0.16123,0.30634 -0.16123,0.83437 z m 0.10883,0.70941 q 0.07659,0.2096 0.201538,0.32246 0.124954,0.10883 0.286185,0.10883 0.274091,0 0.431291,-0.30634 0.161231,-0.30633 0.161231,-0.83436 0,-0.1693 -0.02015,-0.35068 z m 3.518855,0.39098 q 0.100769,0 0.100769,0.10077 v 0.10883 q 0,0.10077 -0.100769,0.10077 h -1.43092 q -0.100769,0 -0.100769,-0.10077 v -0.10883 q 0,-0.10077 0.100769,-0.10077 h 0.673137 v -1.78562 h -0.673137 q -0.100769,0 -0.100769,-0.10077 v -0.10883 q 0,-0.10077 0.100769,-0.10077 0.302307,0 0.471599,-0.0726 0.169292,-0.0766 0.249907,-0.26199 0.03628,-0.0806 0.116892,-0.0806 h 0.07659 q 0.100769,0 0.100769,0.10077 v 2.41039 z m 2.317688,0 q 0.100769,0 0.100769,0.10077 v 0.10883 q 0,0.10077 -0.100769,0.10077 h -1.43092 q -0.100769,0 -0.100769,-0.10077 v -0.10883 q 0,-0.10077 0.100769,-0.10077 h 0.673137 v -1.78562 h -0.673137 q -0.100769,0 -0.100769,-0.10077 v -0.10883 q 0,-0.10077 0.100769,-0.10077 0.302307,0 0.471599,-0.0726 0.169292,-0.0766 0.249907,-0.26199 0.03628,-0.0806 0.116892,-0.0806 h 0.07658 q 0.100769,0 0.100769,0.10077 v 2.41039 z m 2.317688,0 q 0.100769,0 0.100769,0.10077 v 0.10883 q 0,0.10077 -0.100769,0.10077 h -1.43092 q -0.100769,0 -0.100769,-0.10077 v -0.10883 q 0,-0.10077 0.100769,-0.10077 h 0.673137 v -1.78562 h -0.673137 q -0.100769,0 -0.100769,-0.10077 v -0.10883 q 0,-0.10077 0.100769,-0.10077 0.302307,0 0.471599,-0.0726 0.169292,-0.0766 0.249907,-0.26199 0.03628,-0.0806 0.116892,-0.0806 h 0.07659 q 0.100769,0 0.100769,0.10077 v 2.41039 z m 1.604244,-2.55147 q 0.286184,0 0.495783,0.17736 0.213631,0.17332 0.326492,0.50384 0.112861,0.32649 0.112861,0.76988 0,0.44338 -0.112861,0.7739 -0.112861,0.32649 -0.326492,0.50385 -0.209599,0.17332 -0.495783,0.17332 -0.286185,0 -0.499815,-0.17332 -0.21363,-0.17736 -0.326492,-0.50385 -0.112861,-0.33052 -0.112861,-0.7739 0,-0.44339 0.112861,-0.76988 0.112862,-0.33052 0.326492,-0.50384 0.21363,-0.17736 0.499815,-0.17736 z m -0.596553,1.45108 q 0,0.16526 0.02015,0.34664 l 1.064121,-1.06412 q -0.07659,-0.20557 -0.201538,-0.3144 -0.124954,-0.11286 -0.286184,-0.11286 -0.274092,0 -0.435323,0.31037 -0.16123,0.30634 -0.16123,0.83437 z m 0.10883,0.70941 q 0.07659,0.2096 0.201538,0.32246 0.124954,0.10883 0.286185,0.10883 0.274091,0 0.431291,-0.30634 0.161231,-0.30633 0.161231,-0.83436 0,-0.1693 -0.02015,-0.35068 z m 3.518855,0.39098 q 0.100769,0 0.100769,0.10077 v 0.10883 q 0,0.10077 -0.100769,0.10077 h -1.43092 q -0.100769,0 -0.100769,-0.10077 v -0.10883 q 0,-0.10077 0.100769,-0.10077 h 0.673137 v -1.78562 h -0.673137 q -0.100769,0 -0.100769,-0.10077 v -0.10883 q 0,-0.10077 0.100769,-0.10077 0.302307,0 0.471599,-0.0726 0.169292,-0.0766 0.249907,-0.26199 0.03628,-0.0806 0.116892,-0.0806 h 0.07659 q 0.100769,0 0.100769,0.10077 v 2.41039 z m 1.604244,-2.55147 q 0.286184,0 0.495783,0.17736 0.213631,0.17332 0.326492,0.50384 0.112861,0.32649 0.112861,0.76988 0,0.44338 -0.112861,0.7739 -0.112861,0.32649 -0.326492,0.50385 -0.209599,0.17332 -0.495783,0.17332 -0.286185,0 -0.499815,-0.17332 -0.21363,-0.17736 -0.326492,-0.50385 -0.112861,-0.33052 -0.112861,-0.7739 0,-0.44339 0.112861,-0.76988 0.112862,-0.33052 0.326492,-0.50384 0.21363,-0.17736 0.499815,-0.17736 z m -0.596553,1.45108 q 0,0.16526 0.02015,0.34664 l 1.064121,-1.06412 q -0.07659,-0.20557 -0.201538,-0.3144 -0.124954,-0.11286 -0.286184,-0.11286 -0.274092,0 -0.435323,0.31037 -0.16123,0.30634 -0.16123,0.83437 z m 0.10883,0.70941 q 0.07659,0.2096 0.201538,0.32246 0.124954,0.10883 0.286185,0.10883 0.274091,0 0.431291,-0.30634 0.16123,-0.30633 0.16123,-0.83436 0,-0.1693 -0.02015,-0.35068 z m 3.518855,0.39098 q 0.100769,0 0.100769,0.10077 v 0.10883 q 0,0.10077 -0.100769,0.10077 h -1.43092 q -0.100769,0 -0.100769,-0.10077 v -0.10883 q 0,-0.10077 0.100769,-0.10077 h 0.673137 v -1.78562 h -0.673137 q -0.100769,0 -0.100769,-0.10077 v -0.10883 q 0,-0.10077 0.100769,-0.10077 0.302307,0 0.471599,-0.0726 0.169292,-0.0766 0.249907,-0.26199 0.03628,-0.0806 0.116892,-0.0806 h 0.07659 q 0.100769,0 0.100769,0.10077 v 2.41039 z m 1.604243,-2.55147 q 0.286185,0 0.495784,0.17736 0.213631,0.17332 0.326492,0.50384 0.112861,0.32649 0.112861,0.76988 0,0.44338 -0.112861,0.7739 -0.112861,0.32649 -0.326492,0.50385 -0.209599,0.17332 -0.495784,0.17332 -0.286184,0 -0.499814,-0.17332 -0.21363,-0.17736 -0.326492,-0.50385 -0.112861,-0.33052 -0.112861,-0.7739 0,-0.44339 0.112861,-0.76988 0.112862,-0.33052 0.326492,-0.50384 0.21363,-0.17736 0.499814,-0.17736 z m -0.596552,1.45108 q 0,0.16526 0.02015,0.34664 l 1.064121,-1.06412 q -0.07659,-0.20557 -0.201538,-0.3144 -0.124954,-0.11286 -0.286185,-0.11286 -0.274091,0 -0.435322,0.31037 -0.16123,0.30634 -0.16123,0.83437 z m 0.10883,0.70941 q 0.07658,0.2096 0.201538,0.32246 0.124954,0.10883 0.286184,0.10883 0.274092,0 0.431292,-0.30634 0.16123,-0.30633 0.16123,-0.83436 0,-0.1693 -0.02015,-0.35068 z m 3.518855,0.39098 q 0.100769,0 0.100769,0.10077 v 0.10883 q 0,0.10077 -0.100769,0.10077 h -1.43092 q -0.100769,0 -0.100769,-0.10077 v -0.10883 q 0,-0.10077 0.100769,-0.10077 h 0.673137 v -1.78562 h -0.673137 q -0.100769,0 -0.100769,-0.10077 v -0.10883 q 0,-0.10077 0.100769,-0.10077 0.302307,0 0.471599,-0.0726 0.169292,-0.0766 0.249907,-0.26199 0.03628,-0.0806 0.116892,-0.0806 h 0.07658 q 0.100769,0 0.100769,0.10077 v 2.41039 z m 2.317688,0 q 0.100769,0 0.100769,0.10077 v 0.10883 q 0,0.10077 -0.100769,0.10077 h -1.43092 q -0.100769,0 -0.100769,-0.10077 v -0.10883 q 0,-0.10077 0.100769,-0.10077 h 0.673137 v -1.78562 h -0.673137 q -0.100769,0 -0.100769,-0.10077 v -0.10883 q 0,-0.10077 0.100769,-0.10077 0.302307,0 0.471599,-0.0726 0.169292,-0.0766 0.249907,-0.26199 0.03628,-0.0806 0.116892,-0.0806 h 0.07659 q 0.100769,0 0.100769,0.10077 v 2.41039 z m 2.317688,0 q 0.100769,0 0.100769,0.10077 v 0.10883 q 0,0.10077 -0.100769,0.10077 h -1.43092 q -0.100769,0 -0.100769,-0.10077 v -0.10883 q 0,-0.10077 0.100769,-0.10077 h 0.673137 v -1.78562 h -0.673137 q -0.100769,0 -0.100769,-0.10077 v -0.10883 q 0,-0.10077 0.100769,-0.10077 0.302307,0 0.471599,-0.0726 0.169292,-0.0766 0.249907,-0.26199 0.03628,-0.0806 0.116892,-0.0806 h 0.07658 q 0.100769,0 0.100769,0.10077 v 2.41039 z m 1.604243,-2.55147 q 0.286185,0 0.495784,0.17736 0.213631,0.17332 0.326492,0.50384 0.112861,0.32649 0.112861,0.76988 0,0.44338 -0.112861,0.7739 -0.112861,0.32649 -0.326492,0.50385 -0.209599,0.17332 -0.495784,0.17332 -0.286184,0 -0.499814,-0.17332 -0.21363,-0.17736 -0.326492,-0.50385 -0.112861,-0.33052 -0.112861,-0.7739 0,-0.44339 0.112861,-0.76988 0.112862,-0.33052 0.326492,-0.50384 0.21363,-0.17736 0.499814,-0.17736 z m -0.596552,1.45108 q 0,0.16526 0.02015,0.34664 l 1.064121,-1.06412 q -0.07659,-0.20557 -0.201538,-0.3144 -0.124954,-0.11286 -0.286185,-0.11286 -0.274091,0 -0.435322,0.31037 -0.16123,0.30634 -0.16123,0.83437 z m 0.10883,0.70941 q 0.07659,0.2096 0.201538,0.32246 0.124954,0.10883 0.286184,0.10883 0.274092,0 0.431292,-0.30634 0.16123,-0.30633 0.16123,-0.83436 0,-0.1693 -0.02015,-0.35068 z m 3.518855,0.39098 q 0.100769,0 0.100769,0.10077 v 0.10883 q 0,0.10077 -0.100769,0.10077 h -1.43092 q -0.100769,0 -0.100769,-0.10077 v -0.10883 q 0,-0.10077 0.100769,-0.10077 h 0.673137 v -1.78562 h -0.673137 q -0.100769,0 -0.100769,-0.10077 v -0.10883 q 0,-0.10077 0.100769,-0.10077 0.302307,0 0.471599,-0.0726 0.169292,-0.0766 0.249907,-0.26199 0.03628,-0.0806 0.116892,-0.0806 h 0.07659 q 0.100769,0 0.100769,0.10077 v 2.41039 z m 1.604243,-2.55147 q 0.286185,0 0.495784,0.17736 0.21363,0.17332 0.326492,0.50384 0.112861,0.32649 0.112861,0.76988 0,0.44338 -0.112861,0.7739 -0.112862,0.32649 -0.326492,0.50385 -0.209599,0.17332 -0.495784,0.17332 -0.286184,0 -0.499814,-0.17332 -0.21363,-0.17736 -0.326492,-0.50385 -0.112861,-0.33052 -0.112861,-0.7739 0,-0.44339 0.112861,-0.76988 0.112862,-0.33052 0.326492,-0.50384 0.21363,-0.17736 0.499814,-0.17736 z m -0.596552,1.45108 q 0,0.16526 0.02015,0.34664 l 1.064122,-1.06412 q -0.07658,-0.20557 -0.201538,-0.3144 -0.124954,-0.11286 -0.286185,-0.11286 -0.274091,0 -0.435322,0.31037 -0.16123,0.30634 -0.16123,0.83437 z m 0.10883,0.70941 q 0.07658,0.2096 0.201538,0.32246 0.124954,0.10883 0.286184,0.10883 0.274092,0 0.431292,-0.30634 0.16123,-0.30633 0.16123,-0.83436 0,-0.1693 -0.02015,-0.35068 z m 2.80541,-2.16049 q 0.286184,0 0.495784,0.17736 0.21363,0.17332 0.326492,0.50384 0.112861,0.32649 0.112861,0.76988 0,0.44338 -0.112861,0.7739 -0.112862,0.32649 -0.326492,0.50385 -0.2096,0.17332 -0.495784,0.17332 -0.286184,0 -0.499814,-0.17332 -0.21363,-0.17736 -0.326492,-0.50385 -0.112861,-0.33052 -0.112861,-0.7739 0,-0.44339 0.112861,-0.76988 0.112862,-0.33052 0.326492,-0.50384 0.21363,-0.17736 0.499814,-0.17736 z m -0.596552,1.45108 q 0,0.16526 0.02015,0.34664 l 1.064122,-1.06412 q -0.07659,-0.20557 -0.201539,-0.3144 -0.124953,-0.11286 -0.286184,-0.11286 -0.274091,0 -0.435322,0.31037 -0.16123,0.30634 -0.16123,0.83437 z m 0.10883,0.70941 q 0.07659,0.2096 0.201538,0.32246 0.124954,0.10883 0.286184,0.10883 0.274092,0 0.431292,-0.30634 0.16123,-0.30633 0.16123,-0.83436 0,-0.1693 -0.02015,-0.35068 z m 2.80541,-2.16049 q 0.286184,0 0.495784,0.17736 0.21363,0.17332 0.326492,0.50384 0.112861,0.32649 0.112861,0.76988 0,0.44338 -0.112861,0.7739 -0.112862,0.32649 -0.326492,0.50385 -0.2096,0.17332 -0.495784,0.17332 -0.286184,0 -0.499814,-0.17332 -0.21363,-0.17736 -0.326492,-0.50385 -0.112861,-0.33052 -0.112861,-0.7739 0,-0.44339 0.112861,-0.76988 0.112862,-0.33052 0.326492,-0.50384 0.21363,-0.17736 0.499814,-0.17736 z m -0.596552,1.45108 q 0,0.16526 0.02015,0.34664 l 1.064122,-1.06412 q -0.07659,-0.20557 -0.201539,-0.3144 -0.124953,-0.11286 -0.286184,-0.11286 -0.274091,0 -0.435322,0.31037 -0.16123,0.30634 -0.16123,0.83437 z m 0.10883,0.70941 q 0.07658,0.2096 0.201538,0.32246 0.124954,0.10883 0.286184,0.10883 0.274092,0 0.431292,-0.30634 0.16123,-0.30633 0.16123,-0.83436 0,-0.1693 -0.02015,-0.35068 z m 3.518855,0.39098 q 0.100769,0 0.100769,0.10077 v 0.10883 q 0,0.10077 -0.100769,0.10077 h -1.43092 q -0.100769,0 -0.100769,-0.10077 v -0.10883 q 0,-0.10077 0.100769,-0.10077 h 0.673137 v -1.78562 h -0.673137 q -0.100769,0 -0.100769,-0.10077 v -0.10883 q 0,-0.10077 0.100769,-0.10077 0.302307,0 0.471599,-0.0726 0.169292,-0.0766 0.249907,-0.26199 0.03628,-0.0806 0.116892,-0.0806 h 0.07659 q 0.100769,0 0.100769,0.10077 v 2.41039 z m 2.317688,0 q 0.100769,0 0.100769,0.10077 v 0.10883 q 0,0.10077 -0.100769,0.10077 h -1.43092 q -0.100769,0 -0.100769,-0.10077 v -0.10883 q 0,-0.10077 0.100769,-0.10077 h 0.673137 v -1.78562 h -0.673137 q -0.100769,0 -0.100769,-0.10077 v -0.10883 q 0,-0.10077 0.100769,-0.10077 0.302307,0 0.471599,-0.0726 0.169292,-0.0766 0.249907,-0.26199 0.03628,-0.0806 0.116892,-0.0806 h 0.07658 q 0.100769,0 0.100769,0.10077 v 2.41039 z m 2.317688,0 q 0.100769,0 0.100769,0.10077 v 0.10883 q 0,0.10077 -0.100769,0.10077 h -1.43092 q -0.100769,0 -0.100769,-0.10077 v -0.10883 q 0,-0.10077 0.100769,-0.10077 h 0.673137 v -1.78562 h -0.673137 q -0.100769,0 -0.100769,-0.10077 v -0.10883 q 0,-0.10077 0.100769,-0.10077 0.302307,0 0.471599,-0.0726 0.169292,-0.0766 0.249907,-0.26199 0.03628,-0.0806 0.116892,-0.0806 h 0.07658 q 0.100769,0 0.100769,0.10077 v 2.41039 z m 1.604243,-2.55147 q 0.286184,0 0.495784,0.17736 0.21363,0.17332 0.326492,0.50384 0.112861,0.32649 0.112861,0.76988 0,0.44338 -0.112861,0.7739 -0.112862,0.32649 -0.326492,0.50385 -0.2096,0.17332 -0.495784,0.17332 -0.286184,0 -0.499814,-0.17332 -0.21363,-0.17736 -0.326492,-0.50385 -0.112861,-0.33052 -0.112861,-0.7739 0,-0.44339 0.112861,-0.76988 0.112862,-0.33052 0.326492,-0.50384 0.21363,-0.17736 0.499814,-0.17736 z m -0.596552,1.45108 q 0,0.16526 0.02015,0.34664 l 1.064122,-1.06412 q -0.07658,-0.20557 -0.201539,-0.3144 -0.124953,-0.11286 -0.286184,-0.11286 -0.274091,0 -0.435322,0.31037 -0.16123,0.30634 -0.16123,0.83437 z m 0.10883,0.70941 q 0.07658,0.2096 0.201538,0.32246 0.124954,0.10883 0.286184,0.10883 0.274092,0 0.431292,-0.30634 0.16123,-0.30633 0.16123,-0.83436 0,-0.1693 -0.02015,-0.35068 z m 3.518855,0.39098 q 0.100769,0 0.100769,0.10077 v 0.10883 q 0,0.10077 -0.100769,0.10077 h -1.43092 q -0.100769,0 -0.100769,-0.10077 v -0.10883 q 0,-0.10077 0.100769,-0.10077 h 0.673137 v -1.78562 h -0.673137 q -0.100769,0 -0.100769,-0.10077 v -0.10883 q 0,-0.10077 0.100769,-0.10077 0.302307,0 0.471599,-0.0726 0.169292,-0.0766 0.249907,-0.26199 0.03628,-0.0806 0.116892,-0.0806 h 0.07658 q 0.100769,0 0.100769,0.10077 v 2.41039 z m 1.604243,-2.55147 q 0.286184,0 0.495784,0.17736 0.21363,0.17332 0.326492,0.50384 0.112861,0.32649 0.112861,0.76988 0,0.44338 -0.112861,0.7739 -0.112862,0.32649 -0.326492,0.50385 -0.2096,0.17332 -0.495784,0.17332 -0.286184,0 -0.499814,-0.17332 -0.213631,-0.17736 -0.326492,-0.50385 -0.112861,-0.33052 -0.112861,-0.7739 0,-0.44339 0.112861,-0.76988 0.112861,-0.33052 0.326492,-0.50384 0.21363,-0.17736 0.499814,-0.17736 z m -0.596552,1.45108 q 0,0.16526 0.02015,0.34664 l 1.064122,-1.06412 q -0.07659,-0.20557 -0.201539,-0.3144 -0.124953,-0.11286 -0.286184,-0.11286 -0.274091,0 -0.435322,0.31037 -0.16123,0.30634 -0.16123,0.83437 z m 0.10883,0.70941 q 0.07659,0.2096 0.201538,0.32246 0.124954,0.10883 0.286184,0.10883 0.274092,0 0.431292,-0.30634 0.16123,-0.30633 0.16123,-0.83436 0,-0.1693 -0.02015,-0.35068 z m 2.80541,-2.16049 q 0.286184,0 0.495784,0.17736 0.21363,0.17332 0.326492,0.50384 0.112861,0.32649 0.112861,0.76988 0,0.44338 -0.112861,0.7739 -0.112862,0.32649 -0.326492,0.50385 -0.2096,0.17332 -0.495784,0.17332 -0.286184,0 -0.499814,-0.17332 -0.213631,-0.17736 -0.326492,-0.50385 -0.112861,-0.33052 -0.112861,-0.7739 0,-0.44339 0.112861,-0.76988 0.112861,-0.33052 0.326492,-0.50384 0.21363,-0.17736 0.499814,-0.17736 z m -0.596552,1.45108 q 0,0.16526 0.02015,0.34664 l 1.064121,-1.06412 q -0.07658,-0.20557 -0.201538,-0.3144 -0.124953,-0.11286 -0.286184,-0.11286 -0.274091,0 -0.435322,0.31037 -0.16123,0.30634 -0.16123,0.83437 z m 0.10883,0.70941 q 0.07659,0.2096 0.201538,0.32246 0.124954,0.10883 0.286184,0.10883 0.274092,0 0.431292,-0.30634 0.16123,-0.30633 0.16123,-0.83436 0,-0.1693 -0.02015,-0.35068 z m 2.80541,-2.16049 q 0.286184,0 0.495784,0.17736 0.21363,0.17332 0.326492,0.50384 0.112861,0.32649 0.112861,0.76988 0,0.44338 -0.112861,0.7739 -0.112862,0.32649 -0.326492,0.50385 -0.2096,0.17332 -0.495784,0.17332 -0.286184,0 -0.499814,-0.17332 -0.213631,-0.17736 -0.326492,-0.50385 -0.112861,-0.33052 -0.112861,-0.7739 0,-0.44339 0.112861,-0.76988 0.112861,-0.33052 0.326492,-0.50384 0.21363,-0.17736 0.499814,-0.17736 z m -0.596552,1.45108 q 0,0.16526 0.02015,0.34664 l 1.064121,-1.06412 q -0.07658,-0.20557 -0.201538,-0.3144 -0.124953,-0.11286 -0.286184,-0.11286 -0.274091,0 -0.435322,0.31037 -0.16123,0.30634 -0.16123,0.83437 z m 0.10883,0.70941 q 0.07658,0.2096 0.201538,0.32246 0.124954,0.10883 0.286184,0.10883 0.274092,0 0.431292,-0.30634 0.16123,-0.30633 0.16123,-0.83436 0,-0.1693 -0.02015,-0.35068 z m 3.518855,0.39098 q 0.100769,0 0.100769,0.10077 v 0.10883 q 0,0.10077 -0.100769,0.10077 h -1.43092 q -0.100769,0 -0.100769,-0.10077 v -0.10883 q 0,-0.10077 0.100769,-0.10077 h 0.673137 v -1.78562 h -0.673137 q -0.100769,0 -0.100769,-0.10077 v -0.10883 q 0,-0.10077 0.100769,-0.10077 0.302307,0 0.471599,-0.0726 0.169292,-0.0766 0.249907,-0.26199 0.03628,-0.0806 0.116892,-0.0806 h 0.07658 q 0.100769,0 0.100769,0.10077 v 2.41039 z m 2.317688,0 q 0.100769,0 0.100769,0.10077 v 0.10883 q 0,0.10077 -0.100769,0.10077 h -1.43092 q -0.100769,0 -0.100769,-0.10077 v -0.10883 q 0,-0.10077 0.100769,-0.10077 h 0.673137 v -1.78562 h -0.673137 q -0.100769,0 -0.100769,-0.10077 v -0.10883 q 0,-0.10077 0.100769,-0.10077 0.302307,0 0.471599,-0.0726 0.169292,-0.0766 0.249907,-0.26199 0.03628,-0.0806 0.116892,-0.0806 h 0.07658 q 0.100769,0 0.100769,0.10077 v 2.41039 z m 1.604243,-2.55147 q 0.28618,0 0.49578,0.17736 0.21363,0.17332 0.3265,0.50384 0.11286,0.32649 0.11286,0.76988 0,0.44338 -0.11286,0.7739 -0.11287,0.32649 -0.3265,0.50385 -0.2096,0.17332 -0.49578,0.17332 -0.28618,0 -0.49981,-0.17332 -0.21363,-0.17736 -0.3265,-0.50385 -0.11286,-0.33052 -0.11286,-0.7739 0,-0.44339 0.11286,-0.76988 0.11287,-0.33052 0.3265,-0.50384 0.21363,-0.17736 0.49981,-0.17736 z m -0.59655,1.45108 q 0,0.16526 0.0202,0.34664 l 1.06412,-1.06412 q -0.0766,-0.20557 -0.20154,-0.3144 -0.12495,-0.11286 -0.28618,-0.11286 -0.27409,0 -0.43532,0.31037 -0.16123,0.30634 -0.16123,0.83437 z m 0.10883,0.70941 q 0.0766,0.2096 0.20154,0.32246 0.12495,0.10883 0.28618,0.10883 0.27409,0 0.43129,-0.30634 0.16123,-0.30633 0.16123,-0.83436 0,-0.1693 -0.0202,-0.35068 z m 3.51885,0.39098 q 0.10077,0 0.10077,0.10077 v 0.10883 q 0,0.10077 -0.10077,0.10077 h -1.43092 q -0.10077,0 -0.10077,-0.10077 v -0.10883 q 0,-0.10077 0.10077,-0.10077 h 0.67314 v -1.78562 h -0.67314 q -0.10077,0 -0.10077,-0.10077 v -0.10883 q 0,-0.10077 0.10077,-0.10077 0.30231,0 0.4716,-0.0726 0.16929,-0.0766 0.24991,-0.26199 0.0363,-0.0806 0.11689,-0.0806 h 0.0766 q 0.10076,0 0.10076,0.10077 v 2.41039 z m 2.31769,0 q 0.10077,0 0.10077,0.10077 v 0.10883 q 0,0.10077 -0.10077,0.10077 h -1.43092 q -0.10077,0 -0.10077,-0.10077 v -0.10883 q 0,-0.10077 0.10077,-0.10077 h 0.67314 v -1.78562 h -0.67314 q -0.10077,0 -0.10077,-0.10077 v -0.10883 q 0,-0.10077 0.10077,-0.10077 0.30231,0 0.4716,-0.0726 0.16929,-0.0766 0.24991,-0.26199 0.0363,-0.0806 0.11689,-0.0806 h 0.0766 q 0.10077,0 0.10077,0.10077 v 2.41039 z m 2.31769,0 q 0.10077,0 0.10077,0.10077 v 0.10883 q 0,0.10077 -0.10077,0.10077 h -1.43092 q -0.10077,0 -0.10077,-0.10077 v -0.10883 q 0,-0.10077 0.10077,-0.10077 h 0.67314 v -1.78562 h -0.67314 q -0.10077,0 -0.10077,-0.10077 v -0.10883 q 0,-0.10077 0.10077,-0.10077 0.30231,0 0.4716,-0.0726 0.16929,-0.0766 0.2499,-0.26199 0.0363,-0.0806 0.1169,-0.0806 h 0.0766 q 0.10077,0 0.10077,0.10077 v 2.41039 z m 2.31769,0 q 0.10077,0 0.10077,0.10077 v 0.10883 q 0,0.10077 -0.10077,0.10077 h -1.43092 q -0.10077,0 -0.10077,-0.10077 v -0.10883 q 0,-0.10077 0.10077,-0.10077 h 0.67313 v -1.78562 h -0.67313 q -0.10077,0 -0.10077,-0.10077 v -0.10883 q 0,-0.10077 0.10077,-0.10077 0.3023,0 0.4716,-0.0726 0.16929,-0.0766 0.2499,-0.26199 0.0363,-0.0806 0.1169,-0.0806 h 0.0766 q 0.10077,0 0.10077,0.10077 v 2.41039 z m 1.60424,-2.55147 q 0.28618,0 0.49578,0.17736 0.21363,0.17332 0.3265,0.50384 0.11286,0.32649 0.11286,0.76988 0,0.44338 -0.11286,0.7739 -0.11287,0.32649 -0.3265,0.50385 -0.2096,0.17332 -0.49578,0.17332 -0.28618,0 -0.49981,-0.17332 -0.21363,-0.17736 -0.3265,-0.50385 -0.11286,-0.33052 -0.11286,-0.7739 0,-0.44339 0.11286,-0.76988 0.11287,-0.33052 0.3265,-0.50384 0.21363,-0.17736 0.49981,-0.17736 z m -0.59655,1.45108 q 0,0.16526 0.0202,0.34664 l 1.06412,-1.06412 q -0.0766,-0.20557 -0.20154,-0.3144 -0.12495,-0.11286 -0.28618,-0.11286 -0.27409,0 -0.43532,0.31037 -0.16123,0.30634 -0.16123,0.83437 z m 0.10883,0.70941 q 0.0766,0.2096 0.20154,0.32246 0.12495,0.10883 0.28618,0.10883 0.27409,0 0.43129,-0.30634 0.16123,-0.30633 0.16123,-0.83436 0,-0.1693 -0.0202,-0.35068 z m 3.51885,0.39098 q 0.10077,0 0.10077,0.10077 v 0.10883 q 0,0.10077 -0.10077,0.10077 h -1.43092 q -0.10077,0 -0.10077,-0.10077 v -0.10883 q 0,-0.10077 0.10077,-0.10077 h 0.67314 v -1.78562 h -0.67314 q -0.10077,0 -0.10077,-0.10077 v -0.10883 q 0,-0.10077 0.10077,-0.10077 0.30231,0 0.4716,-0.0726 0.16929,-0.0766 0.24991,-0.26199 0.0363,-0.0806 0.11689,-0.0806 h 0.0766 q 0.10076,0 0.10076,0.10077 v 2.41039 z m 2.31769,0 q 0.10077,0 0.10077,0.10077 v 0.10883 q 0,0.10077 -0.10077,0.10077 h -1.43092 q -0.10077,0 -0.10077,-0.10077 v -0.10883 q 0,-0.10077 0.10077,-0.10077 h 0.67314 v -1.78562 h -0.67314 q -0.10077,0 -0.10077,-0.10077 v -0.10883 q 0,-0.10077 0.10077,-0.10077 0.30231,0 0.4716,-0.0726 0.16929,-0.0766 0.24991,-0.26199 0.0363,-0.0806 0.11689,-0.0806 h 0.0766 q 0.10077,0 0.10077,0.10077 v 2.41039 z m 1.60424,-2.55147 q 0.28619,0 0.49579,0.17736 0.21363,0.17332 0.32649,0.50384 0.11286,0.32649 0.11286,0.76988 0,0.44338 -0.11286,0.7739 -0.11286,0.32649 -0.32649,0.50385 -0.2096,0.17332 -0.49579,0.17332 -0.28618,0 -0.49981,-0.17332 -0.21363,-0.17736 -0.32649,-0.50385 -0.11286,-0.33052 -0.11286,-0.7739 0,-0.44339 0.11286,-0.76988 0.11286,-0.33052 0.32649,-0.50384 0.21363,-0.17736 0.49981,-0.17736 z m -0.59655,1.45108 q 0,0.16526 0.0202,0.34664 l 1.06412,-1.06412 q -0.0766,-0.20557 -0.20154,-0.3144 -0.12496,-0.11286 -0.28619,-0.11286 -0.27409,0 -0.43532,0.31037 -0.16123,0.30634 -0.16123,0.83437 z m 0.10883,0.70941 q 0.0766,0.2096 0.20154,0.32246 0.12495,0.10883 0.28618,0.10883 0.2741,0 0.4313,-0.30634 0.16123,-0.30633 0.16123,-0.83436 0,-0.1693 -0.0202,-0.35068 z m 3.51886,0.39098 q 0.10077,0 0.10077,0.10077 v 0.10883 q 0,0.10077 -0.10077,0.10077 h -1.43092 q -0.10077,0 -0.10077,-0.10077 v -0.10883 q 0,-0.10077 0.10077,-0.10077 h 0.67313 v -1.78562 h -0.67313 q -0.10077,0 -0.10077,-0.10077 v -0.10883 q 0,-0.10077 0.10077,-0.10077 0.3023,0 0.4716,-0.0726 0.16929,-0.0766 0.2499,-0.26199 0.0363,-0.0806 0.1169,-0.0806 h 0.0766 q 0.10077,0 0.10077,0.10077 v 2.41039 z m 2.31768,0 q 0.10077,0 0.10077,0.10077 v 0.10883 q 0,0.10077 -0.10077,0.10077 h -1.43092 q -0.10076,0 -0.10076,-0.10077 v -0.10883 q 0,-0.10077 0.10076,-0.10077 h 0.67314 v -1.78562 h -0.67314 q -0.10076,0 -0.10076,-0.10077 v -0.10883 q 0,-0.10077 0.10076,-0.10077 0.30231,0 0.4716,-0.0726 0.1693,-0.0766 0.24991,-0.26199 0.0363,-0.0806 0.11689,-0.0806 h 0.0766 q 0.10077,0 0.10077,0.10077 v 2.41039 z m 2.31769,0 q 0.10077,0 0.10077,0.10077 v 0.10883 q 0,0.10077 -0.10077,0.10077 h -1.43092 q -0.10077,0 -0.10077,-0.10077 v -0.10883 q 0,-0.10077 0.10077,-0.10077 h 0.67314 v -1.78562 h -0.67314 q -0.10077,0 -0.10077,-0.10077 v -0.10883 q 0,-0.10077 0.10077,-0.10077 0.30231,0 0.4716,-0.0726 0.16929,-0.0766 0.24991,-0.26199 0.0363,-0.0806 0.11689,-0.0806 h 0.0766 q 0.10076,0 0.10076,0.10077 v 2.41039 z m 1.60425,-2.55147 q 0.28618,0 0.49578,0.17736 0.21363,0.17332 0.32649,0.50384 0.11286,0.32649 0.11286,0.76988 0,0.44338 -0.11286,0.7739 -0.11286,0.32649 -0.32649,0.50385 -0.2096,0.17332 -0.49578,0.17332 -0.28619,0 -0.49982,-0.17332 -0.21363,-0.17736 -0.32649,-0.50385 -0.11286,-0.33052 -0.11286,-0.7739 0,-0.44339 0.11286,-0.76988 0.11286,-0.33052 0.32649,-0.50384 0.21363,-0.17736 0.49982,-0.17736 z m -0.59656,1.45108 q 0,0.16526 0.0202,0.34664 l 1.06412,-1.06412 q -0.0766,-0.20557 -0.20154,-0.3144 -0.12495,-0.11286 -0.28618,-0.11286 -0.2741,0 -0.43533,0.31037 -0.16123,0.30634 -0.16123,0.83437 z m 0.10883,0.70941 q 0.0766,0.2096 0.20154,0.32246 0.12496,0.10883 0.28619,0.10883 0.27409,0 0.43129,-0.30634 0.16123,-0.30633 0.16123,-0.83436 0,-0.1693 -0.0202,-0.35068 z"
       id="text1"
       aria-label="011000100111010101110100011101000110111101101110" />
  </g>
</svg>
