<?xml version="1.0" encoding="UTF-8" standalone="no"?>
<!-- Generator: Adobe Illustrator 16.0.3, SVG Export Plug-In . SVG Version: 6.00 Build 0)  -->

<svg
   xmlns:dc="http://purl.org/dc/elements/1.1/"
   xmlns:cc="http://creativecommons.org/ns#"
   xmlns:rdf="http://www.w3.org/1999/02/22-rdf-syntax-ns#"
   xmlns:svg="http://www.w3.org/2000/svg"
   xmlns="http://www.w3.org/2000/svg"
   xmlns:sodipodi="http://sodipodi.sourceforge.net/DTD/sodipodi-0.dtd"
   xmlns:inkscape="http://www.inkscape.org/namespaces/inkscape"
   version="1.1"
   id="Laag_1"
   x="0px"
   y="0px"
   width="1350"
   height="300"
   viewBox="0 0 1350 300.00001"
   enable-background="new 0 0 1451.34 725.67"
   xml:space="preserve"
   sodipodi:docname="inter-actief-logo-tekst-rechts-wit.svg"
   inkscape:version="0.92.4 5da689c313, 2019-01-14"><metadata
   id="metadata1022"><rdf:RDF><cc:Work
       rdf:about=""><dc:format>image/svg+xml</dc:format><dc:type
         rdf:resource="http://purl.org/dc/dcmitype/StillImage" /><dc:title></dc:title></cc:Work></rdf:RDF></metadata><defs
   id="defs1020" /><sodipodi:namedview
   pagecolor="#ffffff"
   bordercolor="#666666"
   borderopacity="1"
   objecttolerance="10"
   gridtolerance="10"
   guidetolerance="10"
   inkscape:pageopacity="0"
   inkscape:pageshadow="2"
   inkscape:window-width="1920"
   inkscape:window-height="1056"
   id="namedview1018"
   showgrid="false"
   fit-margin-top="0"
   fit-margin-left="0"
   fit-margin-right="0"
   fit-margin-bottom="0"
   inkscape:zoom="0.65043341"
   inkscape:cx="323.90915"
   inkscape:cy="96.393658"
   inkscape:window-x="0"
   inkscape:window-y="1104"
   inkscape:window-maximized="0"
   inkscape:current-layer="Laag_1" />
<polygon
   points="497.807,419.83 497.807,294.963 515.289,294.963 515.289,419.83 "
   id="polygon979"
   style="clip-rule:evenodd;fill:#ffffff;fill-rule:evenodd"
   transform="translate(-4.5569783,-210.74446)" />
<path
   d="m 938.17002,83.282536 h -15.92 l -54.315,125.803004 h 15.919 l 16.859,-39.641 h 39.017 l 7.496,39.641 h 15.92 z m -31.528,73.669004 20.602,-51.505 h 0.316 l 9.988,51.505 z"
   id="path981"
   inkscape:connector-curvature="0"
   style="clip-rule:evenodd;fill:#ffffff;fill-rule:evenodd" />
<path
   d="m 548.81102,127.76754 v 10.304 c 6.556,-7.183 15.609,-11.553 24.66,-11.553 9.679,0 18.418,4.37 22.789,12.486 4.059,5.62 4.681,12.175 4.681,23.728 v 47.448 h -15.921 v -47.139 c 0,-16.544 -4.994,-23.099 -17.167,-23.099 -7.493,0 -13.736,3.433 -19.042,11.237 v 59 h -17.173 v -82.413 h 17.173 z"
   id="path983"
   inkscape:connector-curvature="0"
   style="clip-rule:evenodd;fill:#ffffff;fill-rule:evenodd" />
<path
   d="m 643.34102,127.29854 h 26.22 v 14.67 h -26.22 v 35.591 4.369 c 0.312,10.299 4.37,14.36 12.173,14.36 5.306,0 11.552,-1.561 18.418,-6.243 v 15.295 c -5.932,3.435 -14.985,5.618 -20.915,5.618 -11.239,0 -20.917,-5.618 -24.038,-14.982 -1.559,-4.993 -1.559,-7.184 -1.559,-17.483 v -36.524 h -14.361 v -2.184 l 30.281,-29.658 v 17.171 z"
   id="path985"
   inkscape:connector-curvature="0"
   style="clip-rule:evenodd;fill:#ffffff;fill-rule:evenodd" />
<path
   d="m 753.48502,167.88254 c 0,-25.913 -14.361,-42.143 -36.211,-42.143 -23.102,0 -38.708,17.167 -38.708,42.143 0,12.486 4.369,23.102 12.174,31.216 8.115,8.739 16.543,11.861 28.407,11.861 12.801,0 21.541,-2.808 32.463,-9.675 v -15.921 c -9.053,6.864 -18.729,10.304 -29.65,10.304 -15.3,0 -25.287,-10.304 -26.849,-26.223 h 58.375 v -1.562 z m -58.375,-7.806 c 2.81,-13.422 9.987,-20.292 22.164,-20.292 11.24,0 18.416,6.869 19.666,20.292 z"
   id="path987"
   inkscape:connector-curvature="0"
   style="clip-rule:evenodd;fill:#ffffff;fill-rule:evenodd" />
<polygon
   points="1113.139,420.14 1124.999,338.043 1139.981,338.043 1129.06,420.14 "
   id="polygon989"
   style="clip-rule:evenodd;fill:#ffffff;fill-rule:evenodd"
   transform="translate(-4.5569783,-210.74446)" />
<path
   d="m 1131.6811,109.50354 c -4.997,0 -8.743,-3.432 -8.743,-8.429 0,-4.994004 2.809,-8.743004 8.743,-8.743004 4.367,0 8.426,3.749 8.426,9.055004 0,4.684 -4.059,8.117 -8.426,8.117 z"
   id="path991"
   inkscape:connector-curvature="0"
   style="clip-rule:evenodd;fill:#ffffff;fill-rule:evenodd" />
<path
   d="m 1212.8851,169.75554 c 0.938,-2.498 0.938,-7.965 0.938,-11.088 0,-19.979 -12.178,-34.027 -29.972,-34.027 -21.852,0 -38.707,21.23 -38.707,48.078 0,23.412 14.359,39.02 34.959,39.02 9.68,0 18.731,-3.433 27.477,-9.676 l 2.181,-15.297 c -10.926,8.117 -20.29,12.172 -28.093,12.172 -11.553,0 -20.604,-10.3 -20.604,-24.658 0,-1.561 0,-2.024 0,-4.523 h 51.821 z m -29.914,-32.594 c 0.29,-0.021 0.584,-0.032 0.881,-0.032 8.74,0 14.671,7.179 14.671,17.479 v 5.778 h -0.457 -33.567 -1.553 c 2.961,-10.226 9.398,-22.966 20.025,-23.225 z"
   id="path993"
   inkscape:connector-curvature="0"
   style="clip-rule:evenodd;fill:#ffffff;fill-rule:evenodd" />
<path
   d="m 1265.0511,141.03254 h -17.171 l -12.799,103.329 h -14.984 l 12.484,-103.329 h -12.484 l 1.561,-13.424 h 13.424 c 0.935,-14.361 3.747,-21.852 8.43,-29.657004 7.178,-9.362 18.417,-14.981 30.903,-14.981 5.93,0 11.238,1.246 19.979,4.058 l -2.496,15.296004 c -5.311,-2.810004 -11.554,-4.683004 -16.857,-4.683004 -14.36,0 -23.412,10.926004 -25.288,29.967004 h 16.857 z"
   id="path995"
   inkscape:connector-curvature="0"
   style="clip-rule:evenodd;fill:#ffffff;fill-rule:evenodd" />
<path
   d="m 1065.9931,190.98454 c 0,-1.003 0.01,-1.88 0.091,-2.788 l 8.339,-47.347 h 20.417 l 2.874,-13.55 h -20.795 l 2.809,-17.171 -35.145,28.539 -0.038,-0.017 -0.419,2.2 h 14.376 l -8.761,49.627 v 0 c -0.167,0.769 -0.294,1.544 -0.294,2.381 0,11.548 8.741,18.728 22.476,18.728 5.308,0 9.678,-0.935 16.235,-3.747 l 1.563,-14.98 c -4.997,3.12 -9.994,4.992 -15.299,4.992 -5.618,-0.002 -8.43,-2.184 -8.43,-6.867 z"
   id="path997"
   inkscape:connector-curvature="0"
   style="fill:#ffffff" />
<path
   d="m 1022.661,124.48754 c -32.15598,0 -54.62998,19.979 -54.62998,49.324 0,23.414 14.36,37.773 36.52198,37.773 1.133,0 2.182,-0.048 3.176,-0.137 12.058,-0.347 19.46,-4.858 19.46,-4.858 l 1.99,-13.787 c -7.99,4.453 -20.989,5.039 -20.989,5.039 l -0.01,0.034 c -0.266,-0.016 -0.537,-0.026 -0.82,-0.026 -14.36098,0 -23.10298,-9.365 -23.10298,-24.038 0,-20.29 16.23298,-35.275 37.77498,-35.275 2.494,0 5.307,0 10.3,0.938 l 1.25,0.311 1.872,-13.736 c -5.306,-1.562 -7.493,-1.562 -12.797,-1.562 z"
   id="path999"
   inkscape:connector-curvature="0"
   style="fill:#ffffff" />
<path
   d="m 809.59102,126.04954 c -3.152,0 -6.253,0.783 -9.364,2.598 v -0.018 c 0,0 -10.35,5.626 -15.608,12.626 v -13.957 h -15.919 v 82.413 h 15.919 v -43.704 c 0,-13.422 9.366,-24.347 19.663,-24.347 4.373,0 10.616,2.495 15.923,7.802 l 8.118,-14.361 c -6.558,-5.93 -12.799,-9.052 -18.732,-9.052 z"
   id="path1001"
   inkscape:connector-curvature="0"
   style="fill:#ffffff" />
<path
   d="m 254.54802,82.647536 c 15.171,-12.309 55.284,-30.846005 78.772,-30.846005 2.455,-1.407 7.22,-6.542 3.089,-8.723 -26.485,0 -73.458,20.854005 -92.177,39.568005 h 5.48 4.836 z"
   id="path1003"
   inkscape:connector-curvature="0"
   style="fill:#ffffff" />
<path
   d="m 208.81202,254.65954 c -12.789,0 -24.006,-3.199 -32.143,-9.605 -3.623,-3.055 -19.52,-18.902 -9.143,-54.695 1.108,-3.537 2.271,-7.17 3.308,-11.156 0.498,-1.961 -2.273,-4.633 -3.953,-2.504 -1.741,2.27 -3.19,4.998 -4.403,7.984 h -0.002 c 0,0 -9.538,20.727 -5.466,42.094 1.269,8.193 4.515,15.117 9.321,20.648 0.022,0.029 0.043,0.055 0.065,0.084 l 0.01,-0.002 c 8.87,10.146 22.975,15.594 39.633,15.594 42.248,0 89.945,-22.982 123.977,-50.238 h -9.994 c -30.258,22.441 -76.005,41.796 -111.21,41.796 z"
   id="path1005"
   inkscape:connector-curvature="0"
   style="fill:#ffffff" />
<path
   d="m 298.24002,124.63454 h 48.649 V 85.208536 c -13.839,0 -24.177,0 -31.766,0 -0.067,0 -4.755,0 -18.619,0 -15.393,0 -42.096,0 -86.346,0 v 39.426004 h 48.652 c 0,15.399 0,30.738 0,46.136 h -48.652 v 39.275 h 136.73 c 0,-39.236 0,-25.936 0,-39.275 h -48.649 v -46.136 z"
   id="path1007"
   inkscape:connector-curvature="0"
   style="fill:#ffffff" />
<polygon
   points="259.805,338.944 211.151,338.944 211.151,295.953 149.076,358.448 211.151,420.791 211.151,377.951 259.805,377.951 "
   id="polygon1009"
   style="fill:#ffffff"
   transform="translate(-4.5569783,-210.74446)" />
<polygon
   points="355.016,338.944 306.361,338.944 306.361,377.951 355.016,377.951 355.016,420.791 417.088,358.448 355.016,295.953 "
   id="polygon1011"
   style="fill:#ffffff"
   transform="translate(-4.5569783,-210.74446)" />
<path
   d="m 393.57702,94.001536 c 0,8.361004 -0.863,14.946004 -3.497,22.896004 -0.822,3.406 -0.093,5.271 3.316,3.18 4.5,-6.858 6.13,-19.216 6.13,-27.527004 0,-26.124 -12.715,-44.476005 -39.249,-49.337005 -3.452,0.82 -5.947,5.727 -3.179,8.723 21.534,1.318 36.479,21.715005 36.479,42.065005 z"
   id="path1013"
   inkscape:connector-curvature="0"
   style="fill:#ffffff" />
<path
   d="m 867.93502,174.33154 h -39.209 v -12.904 h 39.209 z"
   id="path1015"
   inkscape:connector-curvature="0"
   style="fill:#ffffff" />
</svg>