<?xml version="1.0" encoding="UTF-8"?>
<!-- Generator: Adobe Illustrator 18.0.0, SVG Export Plug-In . SVG Version: 6.00 Build 0)  -->
<!DOCTYPE svg PUBLIC "-//W3C//DTD SVG 1.1//EN" "http://www.w3.org/Graphics/SVG/1.1/DTD/svg11.dtd">
<svg version="1.1" id="Laag_1" xmlns="http://www.w3.org/2000/svg" xmlns:xlink="http://www.w3.org/1999/xlink" x="0px" y="0px" viewBox="0 0 725.7 725.7" enable-background="new 0 0 725.7 725.7" xml:space="preserve">
<path fill="#FFFFFF" d="M311.3,212.8c32.1-26,116.9-65.2,166.6-65.2c5.2-3,15.3-13.8,6.5-18.5c-56,0-155.4,44.1-195,83.7h11.6H311.3  z"/>
<path fill="#FFFFFF" d="M214.5,576.7c-27.1,0-50.8-6.8-68-20.3c-7.7-6.5-41.3-40-19.3-115.7c2.3-7.5,4.8-15.2,7-23.6  c1.1-4.1-4.8-9.8-8.4-5.3c-3.7,4.8-6.8,10.6-9.3,16.9l0,0c0,0-20.2,43.8-11.6,89c2.7,17.3,9.6,32,19.7,43.7c0,0.1,0.1,0.1,0.1,0.2  l0,0c18.8,21.5,48.6,33,83.8,33c89.4,0,190.3-48.6,262.2-106.3h-21.1C385.8,535.7,289,576.7,214.5,576.7z"/>
<path fill="#FFFFFF" d="M403.7,301.6h102.9v-83.4c-29.3,0-51.1,0-67.2,0c-0.1,0-10.1,0-39.4,0c-32.6,0-89,0-182.6,0v83.4h102.9  c0,32.6,0,65,0,97.6H217.4v83.1h289.2c0-83,0-54.9,0-83.1H403.7V301.6z"/>
<polygon fill="#FFFFFF" points="209.8,391.7 312.8,391.7 312.8,309.2 209.8,309.2 209.8,218.2 78.5,350.4 209.8,482.3 "/>
<polygon fill="#FFFFFF" points="645.5,350.4 514.2,218.2 514.2,309.2 411.2,309.2 411.2,391.7 514.2,391.7 514.2,482.3 "/>
<path fill="#FFFFFF" d="M605.4,236.8c0,17.7-1.8,31.6-7.4,48.4c-1.7,7.2-0.2,11.1,7,6.7c9.5-14.5,13-40.6,13-58.2  c0-55.3-26.9-94.1-83-104.4c-7.3,1.7-12.6,12.1-6.7,18.5C573.8,150.6,605.4,193.8,605.4,236.8z"/>
</svg>